<svg id="Aztec_Wisdom" data-name="Aztec Wisdom" xmlns="http://www.w3.org/2000/svg" xmlns:xlink="http://www.w3.org/1999/xlink" viewBox="0 0 350 350"><defs><style>.cls-1,.cls-3{fill:none;stroke-miterlimit:10;}.cls-1{stroke:#401e0b;stroke-width:0.86px;}.cls-2{fill:#42210b;}.cls-3{stroke:#42210b;stroke-width:1.51px;}</style></defs><image width="2100" height="2100" transform="translate(36 65.51) scale(0.13)" xlink:href="../../../../../../../../Users/kathleenfenton/Downloads/Aztec%20Wisdom.png"/><g id="Circle_copy" data-name="Circle copy"><circle class="cls-1" cx="175.71" cy="202.16" r="118.91"/></g><g id="Border"><path class="cls-2" d="M296.31,228.57A1.36,1.36,0,0,1,295.2,227a1.32,1.32,0,0,1,1.58-1,1.35,1.35,0,0,1,1.12,1.54A1.3,1.3,0,0,1,296.31,228.57Z"/><path class="cls-2" d="M302.2,224.43l-1.35-.24-.93-.15-.43-.06a1.35,1.35,0,0,0,1.11,1.54A1.38,1.38,0,0,0,302.2,224.43Z"/><path class="cls-3" d="M304.22,224.81a10.13,10.13,0,0,1-1.46,4.21c-1.77,2-4.13,3.86-5.82,5.89a15.75,15.75,0,0,0-1.16,1.56,9.42,9.42,0,0,0-.94,1.66,8,8,0,0,0-.65,3.9c.44,4.27,3.13,7.95.95,13"/><path class="cls-2" d="M290.91,247.37a1.39,1.39,0,0,0-1.79.65,1.32,1.32,0,0,0,.72,1.73,1.38,1.38,0,0,0,1.81-.64A1.31,1.31,0,0,0,290.91,247.37Z"/><path class="cls-2" d="M293.35,254.19a1.31,1.31,0,0,0-.7-1.76,1.37,1.37,0,0,0-1.81.65s.15.08.39.18l.86.38Z"/><path class="cls-3" d="M300.13,244.85a4.57,4.57,0,0,1-3-5.51,4.44,4.44,0,0,1,2-2.52,4.48,4.48,0,0,1,3.15-.61l.31.07a4.45,4.45,0,1,1-2.43,8.57Z"/><path class="cls-2" d="M299.84,244.75,297.27,243l-.35-3.44,2.05-2.39,3.37-.65c-.3,1.25-.69,2.46-1.08,3.68l-1.14,3.66C300,244.17,300,244.46,299.84,244.75Z"/><path class="cls-2" d="M286.54,256.78a1.3,1.3,0,1,1,1.09-2.36,1.3,1.3,0,1,1-1.09,2.36Z"/><path class="cls-2" d="M293.23,254.16,292,253.6l-.87-.37-.4-.16a1.4,1.4,0,0,0,.76,1.78A1.3,1.3,0,0,0,293.23,254.16Z"/><path class="cls-3" d="M295.11,255a9,9,0,0,1-2.41,3.75c-1.14.76-2.34,1.46-3.54,2.17a35.37,35.37,0,0,0-3.52,2.14c-2.11,1.58-3.89,3.35-4.39,6.25-.24,2.18,0,4.22-.07,6.37a10.24,10.24,0,0,1-2.12,6.44"/><path class="cls-2" d="M276.78,273.72a1.35,1.35,0,0,0-1.88.21,1.3,1.3,0,0,0,.28,1.84,1.37,1.37,0,0,0,1.91-.18A1.32,1.32,0,0,0,276.78,273.72Z"/><path class="cls-2" d="M277.52,280.92a1.31,1.31,0,0,0-.26-1.87,1.37,1.37,0,0,0-1.92.19l.33.27.75.58Z"/><path class="cls-3" d="M286.35,273.49a4.54,4.54,0,0,1-1.56-6.06,4.16,4.16,0,0,1,1.09-1.23,4.59,4.59,0,0,1,1.39-.76,4.5,4.5,0,0,1,3.2.18l.29.14a4.35,4.35,0,0,1,2.14,2.66,4.88,4.88,0,0,1,.15,1.75,4.57,4.57,0,0,1-.61,1.71A4.34,4.34,0,0,1,286.35,273.49Z"/><path class="cls-2" d="M286.09,273.33,284,271l.5-3.42c.85-.6,1.74-1.19,2.55-1.84l3.43.19c-1.18,2.26-2.6,4.4-3.92,6.58Z"/><path class="cls-2" d="M270.28,281.8a1.3,1.3,0,1,1,1.63-2,1.32,1.32,0,0,1,.26,1.87A1.33,1.33,0,0,1,270.28,281.8Z"/><path class="cls-2" d="M277.41,280.86l-1.09-.84-.75-.57-.35-.25a1.4,1.4,0,0,0,.3,1.91A1.31,1.31,0,0,0,277.41,280.86Z"/><path class="cls-3" d="M279,282.14a8.73,8.73,0,0,1-3.24,3.06c-1.28.47-2.63.86-3.95,1.26a37.07,37.07,0,0,0-3.94,1.23c-2.43,1-4.58,2.33-5.76,5-.75,2.05-1.05,4.09-1.59,6.17a10.28,10.28,0,0,1-3.6,5.74"/><path class="cls-2" d="M256.73,295.91a1.35,1.35,0,0,0-1.87-.25,1.31,1.31,0,0,0-.17,1.86,1.38,1.38,0,0,0,1.9.28A1.31,1.31,0,0,0,256.73,295.91Z"/><path class="cls-2" d="M255.73,303.08a1.32,1.32,0,0,0,.2-1.88,1.38,1.38,0,0,0-1.91-.27l.26.34.59.74Z"/><path class="cls-3" d="M266.08,298a4.53,4.53,0,0,1-.06-6.26,4.66,4.66,0,0,1,2.88-1.33,4.43,4.43,0,0,1,3.07.94l.25.2a4.38,4.38,0,0,1,1.43,3.1,4.27,4.27,0,0,1-1.27,3.25A4.35,4.35,0,0,1,266.08,298Z"/><path class="cls-2" d="M265.87,297.76,264.39,295l1.31-3.2c1-.37,2-.74,2.91-1.17l3.29,1c-1.7,1.91-3.57,3.65-5.39,5.44Z"/><path class="cls-2" d="M248.49,302.21a1.3,1.3,0,1,1,2.07-1.58,1.3,1.3,0,1,1-2.07,1.58Z"/><path class="cls-2" d="M255.64,303l-.86-1.08-.59-.73-.28-.33a1.4,1.4,0,0,0-.16,1.93A1.31,1.31,0,0,0,255.64,303Z"/><path class="cls-3" d="M256.9,304.62a8.72,8.72,0,0,1-3.88,2.2c-1.36.15-2.76.21-4.14.28a36.25,36.25,0,0,0-4.11.26c-2.61.42-5,1.16-6.8,3.51-2.49,3.49-2.92,8-7.88,10.33"/><path class="cls-2" d="M232,312.69a1.37,1.37,0,0,0-1.76-.7,1.32,1.32,0,0,0-.61,1.77,1.38,1.38,0,0,0,1.78.72A1.3,1.3,0,0,0,232,312.69Z"/><path class="cls-2" d="M229.29,319.41a1.32,1.32,0,0,0,.64-1.78,1.39,1.39,0,0,0-1.79-.72s.06.16.17.4l.39.86Z"/><path class="cls-3" d="M240.56,316.92a4.45,4.45,0,0,1,7.3-5.06l.19.26a4.36,4.36,0,0,1,.66,3.35,4.7,4.7,0,0,1-.68,1.62,4.76,4.76,0,0,1-1.33,1.23A4.34,4.34,0,0,1,240.56,316.92Z"/><path class="cls-2" d="M240.4,316.66l-.78-3,2-2.8c1-.14,2.09-.24,3.11-.44l3,1.76c-2.1,1.45-4.34,2.68-6.53,4Z"/><path class="cls-2" d="M222.47,316.84a1.3,1.3,0,1,1,1.74.74A1.32,1.32,0,0,1,222.47,316.84Z"/><path class="cls-2" d="M229.22,319.31l-.58-1.25-.4-.85c-.11-.23-.2-.39-.2-.39a1.41,1.41,0,0,0-.61,1.84A1.32,1.32,0,0,0,229.22,319.31Z"/><path class="cls-3" d="M230.06,321.19a9,9,0,0,1-4.29,1.21c-1.36-.19-2.73-.45-4.09-.72a36.22,36.22,0,0,0-4.06-.73c-2.62-.21-5.14-.08-7.43,1.78-3.26,2.8-4.76,7.1-10.13,8.15"/><path class="cls-2" d="M203.93,323.06a1.36,1.36,0,0,0-1.54-1.09,1.31,1.31,0,0,0-1,1.57,1.37,1.37,0,0,0,1.56,1.12A1.3,1.3,0,0,0,203.93,323.06Z"/><path class="cls-2" d="M199.71,329a1.32,1.32,0,0,0,1-1.58,1.37,1.37,0,0,0-1.57-1.12l.07.42.18.93Z"/><path class="cls-3" d="M211.25,329.24a4.46,4.46,0,0,1,8.31-3.18l.12.3a4.38,4.38,0,0,1-.17,3.41,4.47,4.47,0,0,1-8.26-.53Z"/><path class="cls-2" d="M211.16,328.94l0-3.11,2.64-2.23c1,.1,2.09.26,3.13.31l2.45,2.41c-2.39.92-4.87,1.57-7.3,2.34Z"/><path class="cls-2" d="M193.71,324.81a1.3,1.3,0,1,1,2.56-.44,1.3,1.3,0,1,1-2.56.44Z"/><path class="cls-2" d="M199.67,328.83l-.26-1.35-.19-.92c-.05-.26-.09-.42-.09-.42a1.4,1.4,0,0,0-1,1.64A1.32,1.32,0,0,0,199.67,328.83Z"/><path class="cls-3" d="M200,330.86a8.67,8.67,0,0,1-4.45.14c-1.27-.5-2.54-1.1-3.8-1.68a36.22,36.22,0,0,0-3.76-1.68c-2.5-.84-5-1.3-7.64-.07a28.76,28.76,0,0,0-2.69,1.72c-.86.61-1.7,1.25-2.59,1.84a11.84,11.84,0,0,1-2.91,1.46,10.17,10.17,0,0,1-3.6.44"/><path class="cls-2" d="M174.22,326.38A1.32,1.32,0,0,0,173,325a1.3,1.3,0,0,0-1.36,1.27,1.38,1.38,0,0,0,1.23,1.48A1.35,1.35,0,0,0,174.22,326.38Z"/><path class="cls-2" d="M168.71,331.08a1.31,1.31,0,0,0,1.4-1.27,1.39,1.39,0,0,0-1.25-1.48s0,.17,0,.43l-.05.94Z"/><path class="cls-3" d="M179.84,334.13a4.53,4.53,0,0,1,4.11-4.72,4.26,4.26,0,0,1,1.63.21,4.17,4.17,0,0,1,1.41.71,4.46,4.46,0,0,1,1.68,2.74l0,.31a4.34,4.34,0,0,1-1,3.27,4.28,4.28,0,0,1-3.11,1.59A4.36,4.36,0,0,1,179.84,334.13Z"/><path class="cls-2" d="M179.83,333.83l.71-3,3.1-1.52c1,.36,2,.75,3,1.05l1.8,2.93c-2.54.31-5.1.37-7.65.51Z"/><path class="cls-2" d="M163.88,325.62a1.34,1.34,0,0,1,1.4-1.26,1.37,1.37,0,0,1,1.19,1.48,1.32,1.32,0,0,1-1.4,1.26A1.34,1.34,0,0,1,163.88,325.62Z"/><path class="cls-2" d="M168.7,331l.07-1.37,0-.94c0-.26,0-.43,0-.43a1.4,1.4,0,0,0-1.4,1.33A1.32,1.32,0,0,0,168.7,331Z"/><path class="cls-3" d="M168.56,333a22,22,0,0,1-2.32-.18,5.87,5.87,0,0,1-2-.74c-2.23-1.61-4.34-3.54-6.54-5.08a11.28,11.28,0,0,0-3.46-1.67,8.32,8.32,0,0,0-3.94-.24,18.59,18.59,0,0,0-3,1.08c-1,.38-1.94.79-2.95,1.14a10.29,10.29,0,0,1-6.77.31"/><path class="cls-2" d="M144.57,322.48a1.3,1.3,0,1,0-2.5-.71,1.3,1.3,0,0,0,.86,1.67A1.34,1.34,0,0,0,144.57,322.48Z"/><path class="cls-2" d="M138.09,325.76a1.3,1.3,0,0,0,1.66-.89,1.42,1.42,0,0,0-.86-1.75s-.06.16-.14.41l-.27.91Z"/><path class="cls-3" d="M148.18,331.34a4.47,4.47,0,0,1,5.11-3.56,4.39,4.39,0,0,1,3.71,4.65l0,.32a4.45,4.45,0,1,1-8.79-1.41Z"/><path class="cls-2" d="M148.24,331l1.41-2.76,3.37-.71c.86.61,1.74,1.12,2.63,1.69l1,3.29L152.9,332l-3.75-.76Z"/><path class="cls-2" d="M134.69,319.33a1.33,1.33,0,0,1,1.65-.89,1.29,1.29,0,0,1,.82,1.67,1.37,1.37,0,0,1-1.67.94A1.34,1.34,0,0,1,134.69,319.33Z"/><path class="cls-2" d="M138.11,325.63l.39-1.31.27-.91c.07-.25.11-.42.11-.42a1.37,1.37,0,0,0-1.67.95A1.34,1.34,0,0,0,138.11,325.63Z"/><path class="cls-3" d="M137.49,327.59a9.66,9.66,0,0,1-4-1.89c-1.76-2.14-3.35-4.53-5.13-6.5a11.7,11.7,0,0,0-3-2.48,9.42,9.42,0,0,0-3.78-1.15c-4.32,0-8.26,2.14-13-.6"/><path class="cls-2" d="M116.7,311.67a1.37,1.37,0,0,0-.43-1.85,1.38,1.38,0,0,0-1.38,2.38A1.32,1.32,0,0,0,116.7,311.67Z"/><path class="cls-2" d="M109.63,313.29a1.27,1.27,0,0,0,1.81-.45,1.42,1.42,0,0,0-.41-1.91l-.22.36-.49.82Z"/><path class="cls-3" d="M118.09,321.12a4.49,4.49,0,0,1,2.49-2.29,4.59,4.59,0,0,1,3.32,0,4.45,4.45,0,0,1,2.49,5.44l-.11.3a4.42,4.42,0,0,1-5.87,2.4,4.37,4.37,0,0,1-2.32-5.89Z"/><path class="cls-2" d="M118.22,320.85l2-2.34c1.15,0,2.27.14,3.44.11l2.14,2.27.22,3.46c-2.34-1-4.73-1.94-7-3.12Z"/><path class="cls-2" d="M107.87,306.24a1.38,1.38,0,0,1,1.83-.49,1.31,1.31,0,0,1,.4,1.82,1.37,1.37,0,0,1-1.85.51A1.3,1.3,0,0,1,107.87,306.24Z"/><path class="cls-2" d="M109.68,313.18l.69-1.19.48-.81.21-.38a1.38,1.38,0,0,0-1.38,2.38Z"/><path class="cls-3" d="M108.6,314.93a9.8,9.8,0,0,1-3.44-2.82c-1.23-2.46-2.15-5.23-3.43-7.53a11.81,11.81,0,0,0-2.25-3.13,8,8,0,0,0-1.54-1.15,8.39,8.39,0,0,0-1.86-.87c-4.19-1.05-8.53.08-12.46-3.71"/><path class="cls-2" d="M92.26,294.46a1.37,1.37,0,0,0,0-1.9,1.38,1.38,0,0,0-1.92,2A1.33,1.33,0,0,0,92.26,294.46Z"/><path class="cls-2" d="M85,294.34a1.28,1.28,0,0,0,1.87,0,1.44,1.44,0,0,0,.06-1.95s-.13.11-.31.3l-.67.67C85.48,293.84,85,294.34,85,294.34Z"/><path class="cls-3" d="M91.33,304a4.56,4.56,0,0,1,3-1.63,4.71,4.71,0,0,1,3.22.84,4.45,4.45,0,0,1,1.09,5.89l-.17.27a4.42,4.42,0,0,1-6.27.9,4.59,4.59,0,0,1-1.23-1.34,4.5,4.5,0,0,1-.54-1.66A4.33,4.33,0,0,1,91.33,304Z"/><path class="cls-2" d="M91.53,303.74,94.06,302c1.1.34,2.18.67,3.31.93l1.53,2.73L98.28,309l-3-2.32-1.52-1.16-1.47-1.24Z"/><path class="cls-2" d="M85,287.06a1.38,1.38,0,0,1,1.9,0,1.32,1.32,0,0,1-.06,1.87,1.38,1.38,0,0,1-1.91.05A1.31,1.31,0,0,1,85,287.06Z"/><path class="cls-2" d="M85.08,294.24l1-1,.66-.67.29-.32a1.38,1.38,0,0,0-1.91,2Z"/><path class="cls-3" d="M83.62,295.68A10,10,0,0,1,81,292.12c-.6-2.69-.84-5.59-1.53-8.14A11.64,11.64,0,0,0,78,280.4a8.07,8.07,0,0,0-1.22-1.48,8.36,8.36,0,0,0-1.6-1.29c-3.82-2-8.3-1.95-11.21-6.58"/><path class="cls-2" d="M72.64,271.89a1.3,1.3,0,1,0-1.37-2.21,1.3,1.3,0,1,0,1.37,2.21Z"/><path class="cls-2" d="M65.63,270a1.27,1.27,0,0,0,1.81.44A1.43,1.43,0,0,0,68,268.6s-.16.08-.38.22l-.8.49Z"/><path class="cls-3" d="M69.47,280.91a4.54,4.54,0,0,1,3.27-.88,4.64,4.64,0,0,1,2.93,1.59,4.45,4.45,0,0,1-.35,6l-.23.21a4.41,4.41,0,0,1-6.3-.61,4.35,4.35,0,0,1,.68-6.29Z"/><path class="cls-2" d="M69.72,280.72l2.88-1.12c1,.58,2,1.17,3,1.7l.83,3L75,287.48l-2.41-3L71.41,283l-1.14-1.54Z"/><path class="cls-2" d="M67.34,263a1.37,1.37,0,0,1,1.85.43,1.3,1.3,0,0,1-.5,1.79,1.35,1.35,0,0,1-1.87-.4A1.31,1.31,0,0,1,67.34,263Z"/><path class="cls-2" d="M65.72,270l1.17-.72.8-.5.36-.24a1.37,1.37,0,0,0-1.87-.41A1.35,1.35,0,0,0,65.72,270Z"/><path class="cls-3" d="M64,271a9.83,9.83,0,0,1-1.75-4.1c.08-2.76.51-5.62.46-8.27A9.69,9.69,0,0,0,60,251.47c-1.59-1.45-3.56-2.38-5.22-3.66a13.29,13.29,0,0,1-2.38-2.2,8.54,8.54,0,0,1-1.72-3.2"/><path class="cls-2" d="M59,245.3a1.3,1.3,0,1,0-.81-2.47A1.3,1.3,0,1,0,59,245.3Z"/><path class="cls-2" d="M52.59,241.83a1.29,1.29,0,0,0,1.66.86,1.42,1.42,0,0,0,1-1.7l-.41.12-.9.29Z"/><path class="cls-3" d="M53.73,253.3a4.54,4.54,0,0,1,5.85,2.17,4.44,4.44,0,0,1-1.75,5.72l-.28.15a4.41,4.41,0,0,1-6-2.09,4.37,4.37,0,0,1,2.16-5.95Z"/><path class="cls-2" d="M54,253.18l3.07-.41c.84.8,1.62,1.62,2.51,2.37l.09,3.12L57.55,261c-1.06-2.32-2.24-4.59-3.17-7Z"/><path class="cls-2" d="M56,235.38a1.35,1.35,0,0,1,1.68.85,1.3,1.3,0,0,1-.91,1.63A1.38,1.38,0,0,1,55,237,1.31,1.31,0,0,1,56,235.38Z"/><path class="cls-2" d="M52.7,241.77l1.31-.42.9-.3.4-.14a1.37,1.37,0,0,0-2.61.86Z"/><path class="cls-3" d="M50.74,242.38A10,10,0,0,1,50,238c.75-2.67,1.84-5.34,2.44-7.92a11.51,11.51,0,0,0,.37-3.84,8.75,8.75,0,0,0-.38-1.87,8.14,8.14,0,0,0-.82-1.89c-2.45-3.56-6.44-5.59-6.87-11"/><path class="cls-2" d="M52.05,216.22a1.36,1.36,0,0,0,1.28-1.4,1.38,1.38,0,0,0-2.74.21A1.32,1.32,0,0,0,52.05,216.22Z"/><path class="cls-2" d="M46.7,211.32a1.29,1.29,0,0,0,1.4,1.24,1.45,1.45,0,0,0,1.35-1.43l-.43,0-1,.07Z"/><path class="cls-3" d="M45.06,222.73a4.54,4.54,0,0,1,3.3.74,4.66,4.66,0,0,1,1.85,2.77,4.45,4.45,0,0,1-3.07,5.13l-.31.08a4.41,4.41,0,0,1-5.3-3.47,4.36,4.36,0,0,1,3.53-5.25Z"/><path class="cls-2" d="M45.36,222.68l3.07.34c.62,1,1.19,1.95,1.87,2.9L49.64,229l-2.73,2.15c-.47-2.51-1.08-5-1.4-7.53Z"/><path class="cls-2" d="M51.51,205.87A1.38,1.38,0,0,1,53,207.1a1.32,1.32,0,0,1-1.28,1.36,1.37,1.37,0,0,1-1.47-1.23A1.29,1.29,0,0,1,51.51,205.87Z"/><path class="cls-2" d="M46.82,211.29l1.38-.09.94-.08.43,0a1.38,1.38,0,0,0-2.75.21Z"/><path class="cls-3" d="M44.77,211.41a10.08,10.08,0,0,1,.37-4.44c1.31-2.41,3.11-4.74,4.25-7.1a11.76,11.76,0,0,0,1.31-3.63,9.3,9.3,0,0,0-.28-4,53.48,53.48,0,0,0-2.93-5.68,11.16,11.16,0,0,1-1.12-6.69"/><path class="cls-2" d="M52.34,186.32a1.37,1.37,0,0,0,1.59-1,1.34,1.34,0,0,0-1.13-1.51,1.36,1.36,0,0,0-1.59,1.05A1.31,1.31,0,0,0,52.34,186.32Z"/><path class="cls-2" d="M48.3,180.28a1.33,1.33,0,0,0,1.12,1.54A1.36,1.36,0,0,0,51,180.75l-.42-.08-.94-.16Z"/><path class="cls-3" d="M44,191a4.56,4.56,0,0,1,4.17,4.64,4.47,4.47,0,0,1-4.24,4.24H43.6a4.38,4.38,0,0,1-4.28-4.64A4.32,4.32,0,0,1,44,191Z"/><path class="cls-2" d="M44.3,191l2.89,1.07c.33,1.1.73,2.18,1.14,3.26l-1.39,2.81-3.18,1.43.2-3.83c.07-1.28.1-2.55.26-3.82Z"/><path class="cls-2" d="M54.31,176.13a1.39,1.39,0,0,1,1.12,1.55,1.38,1.38,0,0,1-2.7-.53A1.31,1.31,0,0,1,54.31,176.13Z"/><path class="cls-2" d="M48.42,180.28l1.36.24.93.15.42.06A1.33,1.33,0,0,0,50,179.19,1.38,1.38,0,0,0,48.42,180.28Z"/><path class="cls-3" d="M46.4,179.9a10,10,0,0,1,1.47-4.21c1.76-2.05,4.13-3.86,5.81-5.89a15.36,15.36,0,0,0,1.16-1.56,9.42,9.42,0,0,0,.94-1.66,8,8,0,0,0,.65-3.91c-.43-4.26-3.13-7.94-1-12.95"/><path class="cls-2" d="M59.72,157.33a1.38,1.38,0,0,0,1.78-.65,1.3,1.3,0,0,0-.71-1.72,1.37,1.37,0,0,0-1.81.64A1.28,1.28,0,0,0,59.72,157.33Z"/><path class="cls-2" d="M57.27,150.52a1.32,1.32,0,0,0,.7,1.76,1.38,1.38,0,0,0,1.82-.65l-.39-.19-.87-.37Z"/><path class="cls-3" d="M50.49,159.86a4.58,4.58,0,0,1,3,5.51,4.52,4.52,0,0,1-2,2.52,4.4,4.4,0,0,1-3.14.6l-.31-.06a4.39,4.39,0,0,1-3.1-5.54A4.33,4.33,0,0,1,50.49,159.86Z"/><path class="cls-2" d="M50.79,160l2.57,1.73.35,3.45-2.05,2.39-3.37.65c.29-1.25.68-2.46,1.07-3.68l1.15-3.66C50.59,160.54,50.68,160.24,50.79,160Z"/><path class="cls-2" d="M64.08,147.93a1.35,1.35,0,0,1,.7,1.76,1.38,1.38,0,1,1-.7-1.76Z"/><path class="cls-2" d="M57.39,150.55l1.26.55.87.38a3.82,3.82,0,0,0,.4.15,1.41,1.41,0,0,0-.77-1.78A1.32,1.32,0,0,0,57.39,150.55Z"/><path class="cls-3" d="M55.52,149.7A8.79,8.79,0,0,1,57.93,146c1.13-.76,2.34-1.47,3.54-2.17A34.7,34.7,0,0,0,65,141.63c2.11-1.57,3.89-3.35,4.38-6.25.24-2.17,0-4.22.07-6.37a10.3,10.3,0,0,1,2.13-6.43"/><path class="cls-2" d="M73.85,131a1.35,1.35,0,0,0,1.87-.21,1.29,1.29,0,0,0-.28-1.84,1.37,1.37,0,0,0-1.91.18A1.32,1.32,0,0,0,73.85,131Z"/><path class="cls-2" d="M73.11,123.79a1.31,1.31,0,0,0,.25,1.87,1.39,1.39,0,0,0,1.92-.19s-.13-.12-.33-.27l-.75-.58Z"/><path class="cls-3" d="M64.28,131.21a4.55,4.55,0,0,1,1.56,6.07,4,4,0,0,1-1.1,1.22,4.15,4.15,0,0,1-1.38.76,4.47,4.47,0,0,1-3.21-.17l-.28-.14a4.38,4.38,0,0,1-2.14-2.66,4.28,4.28,0,0,1,.45-3.47A4.37,4.37,0,0,1,64.28,131.21Z"/><path class="cls-2" d="M64.54,131.38l2.09,2.3-.51,3.42c-.85.6-1.74,1.19-2.54,1.84l-3.44-.19c1.19-2.27,2.6-4.4,3.93-6.58Z"/><path class="cls-2" d="M80.34,122.91a1.3,1.3,0,1,1-1.63,2,1.3,1.3,0,1,1,1.63-2Z"/><path class="cls-2" d="M73.22,123.84l1.09.84.75.57a3.55,3.55,0,0,0,.35.25,1.4,1.4,0,0,0-.31-1.91A1.32,1.32,0,0,0,73.22,123.84Z"/><path class="cls-3" d="M71.6,122.57a8.65,8.65,0,0,1,3.24-3.06c1.29-.47,2.64-.86,4-1.26A36.88,36.88,0,0,0,82.73,117c2.43-1,4.58-2.32,5.76-5,.76-2.06,1.05-4.09,1.6-6.17a10.33,10.33,0,0,1,3.6-5.75"/><path class="cls-2" d="M93.89,108.8a1.36,1.36,0,0,0,1.87.25,1.3,1.3,0,0,0,.17-1.86,1.37,1.37,0,0,0-1.9-.28A1.32,1.32,0,0,0,93.89,108.8Z"/><path class="cls-2" d="M94.9,101.63a1.31,1.31,0,0,0-.2,1.88,1.38,1.38,0,0,0,1.91.27l-.26-.34-.59-.74Z"/><path class="cls-3" d="M84.55,106.73a4.55,4.55,0,0,1,.06,6.26,4.45,4.45,0,0,1-1.36.93,4.28,4.28,0,0,1-1.53.4,4.45,4.45,0,0,1-3.07-.94l-.24-.2a4.45,4.45,0,1,1,6.14-6.45Z"/><path class="cls-2" d="M84.76,107l1.47,2.74-1.31,3.19c-1,.38-2,.74-2.9,1.18l-3.29-1c1.69-1.91,3.57-3.65,5.38-5.45Z"/><path class="cls-2" d="M102.13,102.5a1.3,1.3,0,1,1-2.06,1.58,1.3,1.3,0,1,1,2.06-1.58Z"/><path class="cls-2" d="M95,101.71l.85,1.07.6.74c.16.2.28.32.28.32a1.39,1.39,0,0,0,.16-1.92A1.32,1.32,0,0,0,95,101.71Z"/><path class="cls-3" d="M93.73,100.09a8.69,8.69,0,0,1,3.87-2.2c1.36-.15,2.76-.21,4.15-.28a36.25,36.25,0,0,0,4.11-.26c2.6-.42,5-1.16,6.79-3.51,2.49-3.5,2.93-8,7.88-10.33"/><path class="cls-2" d="M118.65,92a1.36,1.36,0,0,0,1.76.69A1.3,1.3,0,0,0,121,91a1.36,1.36,0,0,0-1.78-.72A1.3,1.3,0,0,0,118.65,92Z"/><path class="cls-2" d="M121.34,85.3a1.32,1.32,0,0,0-.65,1.78,1.38,1.38,0,0,0,1.8.71l-.17-.39-.4-.86Z"/><path class="cls-3" d="M110.07,87.78a4.54,4.54,0,0,1-1.43,6.1,4.49,4.49,0,0,1-5.88-1l-.19-.25a4.36,4.36,0,0,1-.65-3.35,4.52,4.52,0,0,1,.68-1.62,4.66,4.66,0,0,1,1.33-1.24A4.35,4.35,0,0,1,110.07,87.78Z"/><path class="cls-2" d="M110.22,88.05l.79,3-2,2.8c-1,.14-2.09.24-3.1.44l-3-1.76c2.1-1.45,4.35-2.68,6.53-4Z"/><path class="cls-2" d="M128.16,87.87a1.36,1.36,0,0,1-.64,1.78,1.34,1.34,0,0,1-1.74-.74,1.3,1.3,0,1,1,2.38-1Z"/><path class="cls-2" d="M121.41,85.4l.57,1.24.41.86c.11.23.19.38.19.38a1.39,1.39,0,0,0,.61-1.83A1.31,1.31,0,0,0,121.41,85.4Z"/><path class="cls-3" d="M120.57,83.52a8.73,8.73,0,0,1,4.29-1.21c1.35.19,2.72.44,4.09.72a34.21,34.21,0,0,0,4.05.72c2.63.21,5.15.08,7.43-1.78,3.26-2.79,4.77-7.09,10.13-8.14"/><path class="cls-2" d="M146.69,81.64a1.39,1.39,0,0,0,1.55,1.1,1.3,1.3,0,0,0,1-1.57A1.37,1.37,0,0,0,147.7,80,1.31,1.31,0,0,0,146.69,81.64Z"/><path class="cls-2" d="M150.91,75.76a1.33,1.33,0,0,0-1,1.58,1.39,1.39,0,0,0,1.57,1.12s0-.17-.07-.42l-.18-.93Z"/><path class="cls-3" d="M139.38,75.47a4.56,4.56,0,0,1-2.85,5.59,4.5,4.5,0,0,1-5.46-2.42l-.12-.29a4.34,4.34,0,0,1,.16-3.41,4.28,4.28,0,0,1,2.64-2.29A4.35,4.35,0,0,1,139.38,75.47Z"/><path class="cls-2" d="M139.46,75.76l0,3.12-2.64,2.23c-1-.1-2.09-.26-3.12-.31l-2.45-2.42c2.39-.91,4.86-1.56,7.3-2.33Z"/><path class="cls-2" d="M156.91,79.9a1.3,1.3,0,1,1-1.51-1.14A1.33,1.33,0,0,1,156.91,79.9Z"/><path class="cls-2" d="M151,75.87l.27,1.35.18.93c0,.25.1.42.1.42a1.4,1.4,0,0,0,1-1.64A1.32,1.32,0,0,0,151,75.87Z"/><path class="cls-3" d="M150.59,73.85a8.83,8.83,0,0,1,4.46-.15c1.27.51,2.54,1.1,3.79,1.68a34.46,34.46,0,0,0,3.77,1.69c2.49.84,5,1.3,7.64.07,1-.54,1.83-1.12,2.69-1.72s1.7-1.26,2.59-1.84a11.78,11.78,0,0,1,2.9-1.46,10.43,10.43,0,0,1,3.6-.45"/><path class="cls-2" d="M176.4,78.33a1.3,1.3,0,1,0,2.6.14A1.39,1.39,0,0,0,177.76,77,1.36,1.36,0,0,0,176.4,78.33Z"/><path class="cls-2" d="M181.91,73.63a1.31,1.31,0,0,0-1.4,1.27,1.4,1.4,0,0,0,1.26,1.48s0-.18,0-.43l0-1Z"/><path class="cls-3" d="M170.79,70.57a4.55,4.55,0,0,1-4.11,4.73,4.21,4.21,0,0,1-1.63-.21,4.36,4.36,0,0,1-1.41-.71A4.47,4.47,0,0,1,162,71.64l-.05-.31a4.36,4.36,0,0,1,1-3.27,4.31,4.31,0,0,1,3.11-1.6A4.38,4.38,0,0,1,170.79,70.57Z"/><path class="cls-2" d="M170.8,70.88l-.71,3L167,75.43c-1-.36-2-.76-3-1.05l-1.8-2.94c2.54-.3,5.1-.36,7.65-.5Z"/><path class="cls-2" d="M186.74,79.08a1.33,1.33,0,0,1-1.39,1.27,1.37,1.37,0,0,1-1.2-1.48,1.3,1.3,0,1,1,2.59.21Z"/><path class="cls-2" d="M181.93,73.75l-.08,1.38,0,.94c0,.26,0,.43,0,.43a1.39,1.39,0,0,0,1.39-1.33A1.33,1.33,0,0,0,181.93,73.75Z"/><path class="cls-3" d="M182.06,71.7a19.3,19.3,0,0,1,2.32.18,6,6,0,0,1,2,.74c2.23,1.61,4.34,3.54,6.54,5.08a11.46,11.46,0,0,0,3.45,1.67,8.24,8.24,0,0,0,4,.23,18.89,18.89,0,0,0,3-1.07c1-.39,1.94-.79,2.94-1.14a10.17,10.17,0,0,1,6.77-.31"/><path class="cls-2" d="M206.06,82.22a1.34,1.34,0,0,0,.86,1.68,1.36,1.36,0,0,0,1.64-1,1.3,1.3,0,1,0-2.5-.72Z"/><path class="cls-2" d="M212.53,79a1.28,1.28,0,0,0-1.65.89,1.4,1.4,0,0,0,.86,1.74s.06-.16.13-.4l.27-.91Z"/><path class="cls-3" d="M202.44,73.37a4.47,4.47,0,0,1-5.1,3.56,4.42,4.42,0,0,1-3.72-4.65l0-.32a4.48,4.48,0,0,1,5.14-3.77A4.41,4.41,0,0,1,202.44,73.37Z"/><path class="cls-2" d="M202.38,73.67,201,76.43l-3.36.7c-.86-.6-1.75-1.12-2.63-1.68l-1-3.3,3.79.58,3.75.77Z"/><path class="cls-2" d="M215.94,85.38a1.35,1.35,0,0,1-1.66.89,1.31,1.31,0,0,1-.82-1.67,1.38,1.38,0,0,1,1.67-.95A1.35,1.35,0,0,1,215.94,85.38Z"/><path class="cls-2" d="M212.51,79.07l-.39,1.32-.27.91c-.07.25-.1.41-.1.41a1.37,1.37,0,0,0,.76-2.64Z"/><path class="cls-3" d="M213.13,77.11a9.73,9.73,0,0,1,4,1.9c1.77,2.14,3.36,4.52,5.14,6.5A11.66,11.66,0,0,0,225.24,88,9.41,9.41,0,0,0,229,89.13c4.33,0,8.26-2.13,13,.61"/><path class="cls-2" d="M233.92,93a1.31,1.31,0,1,0,2.25,1.32A1.31,1.31,0,1,0,233.92,93Z"/><path class="cls-2" d="M241,91.41a1.28,1.28,0,0,0-1.81.46,1.43,1.43,0,0,0,.41,1.91s.1-.14.23-.36l.48-.82Z"/><path class="cls-3" d="M232.54,83.58a4.53,4.53,0,0,1-5.82,2.25,4.44,4.44,0,0,1-2.48-5.43l.1-.3a4.41,4.41,0,0,1,5.87-2.4,4.38,4.38,0,0,1,2.33,5.88Z"/><path class="cls-2" d="M232.41,83.86l-2,2.34c-1.16,0-2.28-.14-3.44-.11l-2.15-2.27-.22-3.47c2.34,1,4.73,2,7,3.12Z"/><path class="cls-2" d="M242.75,98.47a1.37,1.37,0,0,1-1.83.49,1.32,1.32,0,0,1-.39-1.83,1.37,1.37,0,0,1,1.84-.51A1.29,1.29,0,0,1,242.75,98.47Z"/><path class="cls-2" d="M241,91.53l-.7,1.18-.48.82-.2.38A1.38,1.38,0,0,0,241,91.53Z"/><path class="cls-3" d="M242,89.78a9.93,9.93,0,0,1,3.45,2.82c1.22,2.46,2.14,5.23,3.43,7.53a11.38,11.38,0,0,0,2.25,3.13,7.69,7.69,0,0,0,1.54,1.14,8.2,8.2,0,0,0,1.86.88c4.19,1,8.53-.09,12.46,3.71"/><path class="cls-2" d="M258.37,110.25a1.3,1.3,0,1,0,1.88-.08A1.31,1.31,0,0,0,258.37,110.25Z"/><path class="cls-2" d="M265.62,110.37a1.28,1.28,0,0,0-1.87,0,1.43,1.43,0,0,0-.06,2l.31-.3.66-.67Z"/><path class="cls-3" d="M259.29,100.73a4.48,4.48,0,0,1-3,1.63,4.66,4.66,0,0,1-3.22-.83A4.48,4.48,0,0,1,252,95.64l.17-.27a4.41,4.41,0,0,1,6.27-.9,4.56,4.56,0,0,1,1.23,1.33,4.85,4.85,0,0,1,.55,1.66A4.31,4.31,0,0,1,259.29,100.73Z"/><path class="cls-2" d="M259.1,101l-2.53,1.78c-1.1-.33-2.19-.67-3.32-.93l-1.53-2.73.62-3.41,3,2.32,1.53,1.16,1.46,1.23Z"/><path class="cls-2" d="M265.64,117.64a1.39,1.39,0,0,1-1.9,0,1.31,1.31,0,0,1,.06-1.87,1.36,1.36,0,0,1,1.91,0A1.3,1.3,0,0,1,265.64,117.64Z"/><path class="cls-2" d="M265.55,110.47l-1,1-.65.68-.29.32a1.38,1.38,0,0,0,1.91-2Z"/><path class="cls-3" d="M267,109a9.88,9.88,0,0,1,2.67,3.56c.59,2.69.83,5.59,1.52,8.14a11.74,11.74,0,0,0,1.44,3.57,8.2,8.2,0,0,0,1.22,1.49,8.36,8.36,0,0,0,1.6,1.29c3.82,2,8.31,2,11.22,6.57"/><path class="cls-2" d="M278,132.82a1.3,1.3,0,1,0,1.86.37A1.33,1.33,0,0,0,278,132.82Z"/><path class="cls-2" d="M285,134.67a1.28,1.28,0,0,0-1.82-.44,1.41,1.41,0,0,0-.52,1.88l.37-.22.8-.49Z"/><path class="cls-3" d="M281.15,123.8a4.47,4.47,0,0,1-3.27.87,4.6,4.6,0,0,1-2.92-1.58,4.46,4.46,0,0,1,.34-6l.23-.22a4.42,4.42,0,0,1,6.31.62,4.36,4.36,0,0,1-.69,6.29Z"/><path class="cls-2" d="M280.91,124,278,125.11c-1-.58-2-1.18-3-1.7l-.84-3,1.42-3.17,2.41,3,1.2,1.5,1.13,1.54Z"/><path class="cls-2" d="M283.28,141.73a1.36,1.36,0,0,1-1.84-.42,1.31,1.31,0,0,1,.5-1.8,1.37,1.37,0,0,1,1.87.41A1.3,1.3,0,0,1,283.28,141.73Z"/><path class="cls-2" d="M284.91,134.75l-1.17.72-.8.5-.36.24a1.38,1.38,0,0,0,2.33-1.46Z"/><path class="cls-3" d="M286.67,133.69a10,10,0,0,1,1.75,4.09c-.08,2.77-.51,5.63-.47,8.28a9.69,9.69,0,0,0,2.63,7.17c1.59,1.46,3.57,2.39,5.22,3.66a13.73,13.73,0,0,1,2.38,2.21,10.34,10.34,0,0,1,1,1.43,9.66,9.66,0,0,1,.72,1.76"/><path class="cls-2" d="M291.66,159.41a1.36,1.36,0,0,0-.9,1.67,1.35,1.35,0,0,0,1.71.8,1.3,1.3,0,1,0-.81-2.47Z"/><path class="cls-2" d="M298,162.88a1.28,1.28,0,0,0-1.66-.86,1.41,1.41,0,0,0-.95,1.7l.41-.12.9-.29Z"/><path class="cls-3" d="M296.89,151.41a4.55,4.55,0,0,1-5.85-2.17,4.45,4.45,0,0,1,1.76-5.72l.27-.16a4.42,4.42,0,0,1,6,2.1,4.37,4.37,0,0,1-2.16,5.95Z"/><path class="cls-2" d="M296.61,151.53l-3.07.4c-.84-.8-1.62-1.61-2.5-2.36l-.1-3.12,2.13-2.74c1.07,2.32,2.25,4.59,3.17,7Z"/><path class="cls-2" d="M294.68,169.33a1.37,1.37,0,0,1-1.69-.85,1.31,1.31,0,0,1,.91-1.63,1.37,1.37,0,0,1,1.72.84A1.31,1.31,0,0,1,294.68,169.33Z"/><path class="cls-2" d="M297.92,162.93l-1.31.43-.89.29-.41.15a1.38,1.38,0,0,0,2.61-.87Z"/><path class="cls-3" d="M299.89,162.33a10,10,0,0,1,.72,4.39c-.74,2.67-1.84,5.34-2.43,7.92a11.72,11.72,0,0,0-.38,3.83,8.39,8.39,0,0,0,.39,1.88,8.14,8.14,0,0,0,.82,1.89c2.45,3.56,6.43,5.59,6.87,11"/><path class="cls-2" d="M298.57,188.49a1.36,1.36,0,0,0-1.28,1.4,1.34,1.34,0,0,0,1.47,1.19,1.3,1.3,0,1,0-.19-2.59Z"/><path class="cls-2" d="M303.92,193.39a1.28,1.28,0,0,0-1.4-1.24,1.42,1.42,0,0,0-1.34,1.42h.43l.94-.07Z"/><path class="cls-3" d="M305.57,182a4.52,4.52,0,0,1-3.31-.75,4.6,4.6,0,0,1-1.85-2.76,4.45,4.45,0,0,1,3.08-5.13l.3-.09a4.42,4.42,0,0,1,5.31,3.48,4.38,4.38,0,0,1-3.53,5.25Z"/><path class="cls-2" d="M305.27,182l-3.08-.34c-.62-1-1.18-2-1.86-2.9l.65-3.06,2.73-2.14c.47,2.51,1.08,5,1.4,7.53Z"/><path class="cls-2" d="M299.12,198.84a1.38,1.38,0,0,1-1.45-1.23,1.3,1.3,0,0,1,1.28-1.36,1.37,1.37,0,0,1,1.46,1.23A1.29,1.29,0,0,1,299.12,198.84Z"/><path class="cls-2" d="M303.8,193.42l-1.37.09-.94.07c-.26,0-.43,0-.43,0a1.37,1.37,0,0,0,2.74-.21Z"/><path class="cls-3" d="M305.85,193.3a9.82,9.82,0,0,1-.37,4.44c-1.31,2.41-3.11,4.74-4.24,7.1a11.67,11.67,0,0,0-1.31,3.63,9.09,9.09,0,0,0,.28,3.94,51.55,51.55,0,0,0,2.92,5.68,11.17,11.17,0,0,1,1.12,6.69"/><path class="cls-2" d="M298.29,218.39a1.37,1.37,0,0,0-1.59,1.05,1.33,1.33,0,0,0,1.12,1.51,1.35,1.35,0,0,0,1.59-1.06A1.3,1.3,0,0,0,298.29,218.39Z"/><path class="cls-2" d="M302.33,224.43a1.38,1.38,0,0,0-2.71-.48l.42.09.93.16Z"/><path class="cls-3" d="M306.63,213.74a4.57,4.57,0,0,1-4.17-4.64,4.49,4.49,0,0,1,4.24-4.25H307a4.39,4.39,0,0,1,4.29,4.64A4.33,4.33,0,0,1,306.63,213.74Z"/><path class="cls-2" d="M306.33,213.72l-2.9-1.07c-.32-1.1-.72-2.19-1.13-3.26l1.39-2.81,3.17-1.43-.2,3.83c-.07,1.27-.1,2.55-.26,3.82Z"/></g><g id="Text_copy_2" data-name="Text copy 2"><path class="cls-2" d="M34.29,75.72C36.15,74,37.1,73.19,39,71.56c1.66,1.25,2.48,1.88,4.13,3.14A227.59,227.59,0,0,1,70.94,89.89a256.39,256.39,0,0,1-7-30.48c-1.82-1.29-2.74-1.93-4.59-3.19,2.07-1.37,3.11-2,5.21-3.34,1.39,1.52,2.08,2.29,3.45,3.83a247.94,247.94,0,0,1,24.2,19.76A245.64,245.64,0,0,1,90.07,45c-.43-2-.64-3-1-5.09,1.94-.87,2.92-1.29,4.87-2.1a265.64,265.64,0,0,0,1.48,41.06c-1.36.71-2.05,1.07-3.4,1.82A244.85,244.85,0,0,0,67.74,61.35a252.09,252.09,0,0,0,6.79,30.36c-1.31,1-2,1.44-3.27,2.43A278.64,278.64,0,0,0,34.29,75.72Z"/><path class="cls-2" d="M111.87,65.93,102.09,40c-1-1.77-1.58-2.65-2.65-4.42,2.32-.88,3.48-1.31,5.82-2.12.32,2,.49,3,.82,5.09,3.7,10.45,5.54,15.67,9.23,26.13,1,1.81,1.45,2.71,2.4,4.53-1.91.67-2.86,1-4.75,1.74C112.51,68.94,112.29,67.94,111.87,65.93Z"/><path class="cls-2" d="M124.76,65.21c-.77-1.56-1.16-2.33-2-3.88,2.7.47,4,.74,6.66,1.32A38.55,38.55,0,0,0,139,61.9c8.08-1.65,11.74-4.9,11.15-9.43s-4.34-6.55-15-6.82c-12-.31-17-1.71-18.58-7.07s3.75-11.09,15.1-13.4a48,48,0,0,1,17-.32c.53,1.66.79,2.49,1.31,4.15-2.88-.88-4.35-1.29-7.31-2.07a36.38,36.38,0,0,0-10.25.59c-8.41,1.71-12.71,5.78-11.64,9.68s4.58,5.06,15.41,5.38c12.32.37,17.17,3.25,17.82,9.2.67,6.18-4.37,10.54-14.31,12.49A61.54,61.54,0,0,1,124.76,65.21Z"/><path class="cls-2" d="M163,55.1c-.64-11.06-1-16.6-1.61-27.66-.47-2-.71-3-1.2-5a172.23,172.23,0,0,1,17.89-.34c12.61.3,25.46,6.49,23.19,20.94-2,12.56-12.24,17.33-24.11,16.9a142.47,142.47,0,0,0-14.61.28C162.72,58.16,162.81,57.14,163,55.1Zm14.35,2.33c9.91.89,18.48-5,19.84-15,1.54-11.29-8.44-18.24-18.95-17.85-5.1-.13-7.65-.11-12.75.08q.62,16.41,1.22,32.81C171,57.33,173.09,57.32,177.35,57.43Z"/><path class="cls-2" d="M208.11,44.19c2.58-12.62,16.48-17.52,28-13.34S256.9,45.53,251.33,58C246.59,68.58,234.48,72.16,224,68.81S205.81,55.47,208.11,44.19Zm39.32,12.07c4.52-10.11-2.46-19.88-12.12-23S214.4,34.22,212.23,45c-2.12,10.6,3.24,18.39,12.45,21.33S243,66.13,247.43,56.26Z"/><path class="cls-2" d="M289.22,99.46c-1.14,1.71-1.71,2.56-2.86,4.25-1.49-1.35-2.23-2-3.75-3.3,1.54-1.36,2.32-2,3.87-3.37l19.65-22.73A215.71,215.71,0,0,0,270,90.59c-1-.7-1.48-1-2.48-1.72a235.41,235.41,0,0,0,3-39.41L256.08,75.94c-.72,1.92-1.08,2.88-1.82,4.79-1.6-.88-2.4-1.31-4-2.15,1.2-1.66,1.81-2.49,3-4.15,5.13-9.82,7.69-14.74,12.82-24.57.61-2,.92-3,1.52-4.92,2.92,1.5,4.36,2.29,7.23,3.92-.24,2.12-.37,3.17-.64,5.28-.47,11-1.38,21.47-2.84,32.37,9.76-5.19,19.25-9.63,29.47-13.84,1.88-1,2.82-1.49,4.72-2.46,2.55,2.14,3.81,3.24,6.29,5.51-1.63,1.26-2.44,1.89-4.05,3.17Z"/></g></svg>