<svg id="Spanish_Strength" data-name="Spanish Strength" xmlns="http://www.w3.org/2000/svg" xmlns:xlink="http://www.w3.org/1999/xlink" viewBox="0 0 350 350"><defs><style>.cls-1{fill:#633712;}.cls-2,.cls-3,.cls-4{fill:none;stroke:#633712;stroke-miterlimit:10;}.cls-2{stroke-width:0.45px;}.cls-3{stroke-width:0.3px;}.cls-4{stroke-width:0.25px;}.cls-5{fill:#401e0b;}</style></defs><image id="Illustration" width="2100" height="2100" transform="translate(31.5 48) scale(0.14)" xlink:href="../../../../../../../../Users/kathleenfenton/Downloads/Spanish%20Strength.png"/><g id="Border"><path class="cls-1" d="M308.9,230.17a136,136,0,0,0,3.39-30h-.45a135.63,135.63,0,0,1-3.38,29.92Z"/><path class="cls-1" d="M301.12,228.4a128.33,128.33,0,0,0,3.2-28.25h-.45a128.1,128.1,0,0,1-3.19,28.15Z"/><path class="cls-1" d="M304.8,229.19a132.09,132.09,0,0,0,3.28-29h-.69A132.55,132.55,0,0,1,304.13,229Z"/><path class="cls-2" d="M304.14,206.68q1.92-1.69,3.86-3.48,2,1.59,3.91,3.28a1.62,1.62,0,0,1,2.23.14,4.83,4.83,0,0,1,1.06,1.18,5.2,5.2,0,0,1-1.25.9,1.77,1.77,0,0,1-2.25-.23c-1.42.86-2.84,1.68-4.25,2.48Q305.8,208.76,304.14,206.68Z"/><path class="cls-2" d="M300.15,206.45q1.94-1.6,3.87-3.31l3.62.07-.1,3.86-.29,3.84-3.43-.42C302.6,209.1,301.37,207.76,300.15,206.45Z"/><path class="cls-2" d="M297.28,220.22c.38-1.5,3.86-3.54,5.6-3.61,1.08,0,2.88,1.29,3.59,2.1l-.19.81s1,.5,2,1.11,2,1.35,1.88,1.77-1.23.8-2.37,1-2.27.4-2.27.4l0,.74c-1,.58-3.41,1.32-4.52.85C299.46,224.78,297,221.67,297.28,220.22Z"/><path class="cls-3" d="M310.32,222.44c.75-.54,1.53-1.09,2.27-1.65.56.77,1.08,1.54,1.62,2.33l-2.28,1.65Z"/><line class="cls-4" x1="318.3" y1="223.83" x2="314.21" y2="223.12"/><path class="cls-3" d="M312.06,224.8l.69-4c1.87,1,3.7,2,5.55,3C316.21,224.18,314.14,224.5,312.06,224.8Z"/><path class="cls-1" d="M299,258.71a136.2,136.2,0,0,0,9.94-28.54l-.44-.1a135.07,135.07,0,0,1-9.91,28.44Z"/><path class="cls-1" d="M291.77,255.24a126.91,126.91,0,0,0,9.35-26.84l-.44-.1A127.08,127.08,0,0,1,291.37,255Z"/><path class="cls-1" d="M295.19,256.83a131.64,131.64,0,0,0,9.59-27.54l-.68-.16a130.88,130.88,0,0,1-9.54,27.4Z"/><path class="cls-2" d="M299.5,234.72c1.52-.8,3.11-1.63,4.6-2.52,1.07,1.34,2,2.68,3,4.06a1.64,1.64,0,0,1,2.15.63,5.3,5.3,0,0,1,.76,1.39,5,5,0,0,1-1.39.61,1.79,1.79,0,0,1-2.15-.73c-1.56.52-3.06,1-4.66,1.48C301.12,238,300.29,236.32,299.5,234.72Z"/><path class="cls-2" d="M295.66,233.61c1.51-.75,3.09-1.52,4.58-2.34l3.51.87c-.29,1.25-.68,2.48-1,3.72s-.67,2.48-1.08,3.7l-3.24-1.18C297.54,236.76,296.58,235.16,295.66,233.61Z"/><path class="cls-2" d="M289.84,246.39c.61-1.42,4.58-2.57,6.29-2.26,1.06.21,2.49,1.89,3,2.84l-.39.74s.88.72,1.72,1.54,1.64,1.76,1.48,2.16-1.35.51-2.52.5-2.31-.13-2.31-.13l-.23.71c-1.15.33-3.65.5-4.62-.2a7.24,7.24,0,0,1-1.93-2.81A4.78,4.78,0,0,1,289.84,246.39Z"/><path class="cls-3" d="M302,251.47l2.55-1.11,1.1,2.65c-.85.38-1.7.75-2.58,1.1C302.79,253.23,302.41,252.35,302,251.47Z"/><line class="cls-4" x1="309.51" y1="254.62" x2="305.69" y2="253.01"/><path class="cls-3" d="M303.23,254.17c.56-1.23,1-2.51,1.51-3.76q2.4,2.07,4.77,4.21C307.42,254.5,305.34,254.36,303.23,254.17Z"/><path class="cls-1" d="M282.84,284.26A138.52,138.52,0,0,0,299,258.71l-.41-.2A137.14,137.14,0,0,1,282.48,284Z"/><path class="cls-1" d="M276.6,279.28a129.31,129.31,0,0,0,15.17-24l-.4-.2a129,129,0,0,1-15.12,24Z"/><path class="cls-1" d="M279.57,281.59a133,133,0,0,0,15.57-24.67l-.62-.3A133,133,0,0,1,279,281.16Z"/><path class="cls-2" d="M288.77,261c1.68-.43,3.31-.93,5-1.45q1.07,2.3,2.1,4.66a1.64,1.64,0,0,1,1.95,1.1,5.26,5.26,0,0,1,.42,1.51,5.43,5.43,0,0,1-1.51.28,1.78,1.78,0,0,1-1.93-1.19c-1.64.15-3.28.28-4.89.39Q289.37,263.63,288.77,261Z"/><path class="cls-2" d="M285.27,259.09c1.66-.38,3.28-.83,5-1.29l3.22,1.64c-.6,1.14-1.14,2.3-1.78,3.42l-1.92,3.34-2.9-1.87C286.34,262.55,285.81,260.8,285.27,259.09Z"/><path class="cls-2" d="M276.71,270.23c.47-.62,1.74-1,3.09-1.1a7.87,7.87,0,0,1,3.53.3c1,.43,2,2.42,2.33,3.46-.17.22-.37.42-.56.64,0,0,.7.88,1.33,1.87s1.19,2.07.94,2.42-1.45.18-2.58-.08-2.2-.63-2.2-.63l-.36.66c-1.17.09-3.69-.34-4.47-1.23C276.71,275.31,275.81,271.42,276.71,270.23Z"/><polygon class="cls-3" points="287.47 277.9 290.23 277.41 290.68 280.22 287.92 280.71 287.47 277.9"/><line class="cls-4" x1="294.05" y1="282.63" x2="290.68" y2="280.22"/><path class="cls-3" d="M288,280.8l2.34-3.31c1.24,1.69,2.47,3.41,3.69,5.14C292,282.05,290,281.44,288,280.8Z"/><path class="cls-1" d="M261.48,305.62c2-1.52,3.86-3.25,5.78-4.88s3.68-3.46,5.52-5.18,3.52-3.62,5.18-5.51,3.36-3.77,4.88-5.79l-.36-.28c-1.51,2-3.23,3.85-4.86,5.77s-3.44,3.66-5.16,5.49-3.61,3.51-5.5,5.17-3.75,3.35-5.77,4.86Z"/><path class="cls-1" d="M256.5,299.39c1.9-1.43,3.63-3.06,5.45-4.59s3.45-3.26,5.19-4.88,3.31-3.41,4.87-5.19,3.17-3.55,4.59-5.45l-.35-.28c-1.42,1.9-3.05,3.62-4.57,5.43s-3.25,3.44-4.86,5.17-3.4,3.3-5.18,4.86-3.53,3.15-5.42,4.57Z"/><path class="cls-1" d="M258.88,302.3c2-1.47,3.73-3.14,5.59-4.71s3.55-3.35,5.33-5,3.4-3.49,5-5.32,3.25-3.64,4.71-5.59l-.54-.44c-1.45,1.95-3.12,3.71-4.68,5.56s-3.33,3.53-5,5.3-3.48,3.38-5.3,5-3.62,3.23-5.56,4.68Z"/><path class="cls-2" d="M272.4,284.27c1.71-.07,3.46-.16,5.22-.28.35,1.64.67,3.29,1,5,1,0,1.48.72,1.66,1.5a5.62,5.62,0,0,1,.1,1.59,4.87,4.87,0,0,1-1.51-.05,1.79,1.79,0,0,1-1.62-1.59c-1.63-.2-3.28-.46-4.88-.73C272.41,287.88,272.45,286.09,272.4,284.27Z"/><path class="cls-2" d="M269.42,281.6c1.68,0,3.4-.06,5.13-.13l2.78,2.31c-1.69,1.93-3.31,3.93-5.13,5.76l-2.41-2.47C269.72,285.24,269.61,283.43,269.42,281.6Z"/><path class="cls-2" d="M258.62,290.6c1.19-1,5.21-.37,6.62.66.87.65,1.44,2.8,1.48,3.88l-.67.5s.5,1,.9,2.14.72,2.3.39,2.58-1.47-.16-2.52-.67-2-1.11-2-1.11l-.5.56c-1.17-.2-3.49-1.11-4.06-2.17C257.45,295.5,257.46,291.53,258.62,290.6Z"/><path class="cls-3" d="M267.41,300.46c.94.07,1.86.09,2.79.11,0,1-.09,1.92-.17,2.86l-2.82-.15Z"/><line class="cls-4" x1="272.78" y1="306.53" x2="270.03" y2="303.43"/><path class="cls-3" d="M267.29,303.39c1-.9,2.06-1.75,3-2.7.86,1.94,1.7,3.9,2.48,5.84C270.93,305.5,269.1,304.46,267.29,303.39Z"/><path class="cls-1" d="M235.92,321.74a137.55,137.55,0,0,0,25.56-16.12l-.29-.35a137.59,137.59,0,0,1-25.46,16.07Z"/><path class="cls-1" d="M232.46,314.56a130.36,130.36,0,0,0,24-15.17l-.28-.36a129,129,0,0,1-24,15.12Z"/><path class="cls-1" d="M234.14,317.92a133,133,0,0,0,24.67-15.56l-.44-.55a132.15,132.15,0,0,1-24.54,15.49Z"/><path class="cls-2" d="M251.29,303.31c1.69.33,3.45.67,5.16.89,0,1.72-.07,3.38-.15,5.07a1.64,1.64,0,0,1,1.28,1.84,5.2,5.2,0,0,1-.27,1.55,5.2,5.2,0,0,1-1.46-.39,1.77,1.77,0,0,1-1.23-1.9c-1.55-.57-3.05-1.13-4.57-1.75C250.51,306.85,250.91,305.06,251.29,303.31Z"/><path class="cls-2" d="M249,300.05c1.65.36,3.37.75,5,1l2.21,2.87c-1,.82-2.08,1.52-3.11,2.28s-2.09,1.51-3.16,2.23l-1.8-2.94C248.47,303.67,248.73,301.84,249,300.05Z"/><path class="cls-2" d="M236.45,306.42c1.36-.73,5.19.85,6.33,2.16.71.82.78,3,.57,4.08l-.77.33s.25,1.11.4,2.28.19,2.39-.19,2.61-1.38-.45-2.28-1.18-1.73-1.53-1.73-1.53l-.62.41c-1.11-.46-3.17-1.88-3.5-3a7.33,7.33,0,0,1,.25-3.39,7.85,7.85,0,0,1,.66-1.68A2.5,2.5,0,0,1,236.45,306.42Z"/><path class="cls-3" d="M242.84,318l2.69.71-.8,2.76c-.9-.24-1.79-.46-2.7-.74C242.33,319.84,242.58,318.91,242.84,318Z"/><line class="cls-4" x1="246.73" y1="325.11" x2="244.73" y2="321.47"/><path class="cls-3" d="M242.09,320.85c1.2-.62,2.34-1.34,3.52-2q.6,3.11,1.12,6.26C245.16,323.71,243.63,322.32,242.09,320.85Z"/><path class="cls-1" d="M207.39,331.68a135.92,135.92,0,0,0,28.53-9.94l-.19-.4a135.61,135.61,0,0,1-28.44,9.9Z"/><path class="cls-1" d="M205.62,323.91a128.24,128.24,0,0,0,26.84-9.35l-.2-.41a127.3,127.3,0,0,1-26.74,9.32Z"/><path class="cls-1" d="M206.5,327.56A131.73,131.73,0,0,0,234.05,318l-.3-.63a131.1,131.1,0,0,1-27.4,9.55Z"/><path class="cls-2" d="M226.5,317.23c1.59.69,3.18,1.32,4.82,2q-.58,2.44-1.26,4.95a1.64,1.64,0,0,1,.84,2.07,4.62,4.62,0,0,1-.61,1.45,5.1,5.1,0,0,1-1.35-.72,1.78,1.78,0,0,1-.77-2.13q-2.08-1.36-4.08-2.75C224.93,320.44,225.74,318.82,226.5,317.23Z"/><path class="cls-2" d="M225,313.53c1.53.72,3.07,1.39,4.66,2.06l1.51,3.29c-1.18.52-2.33,1.09-3.52,1.57L224,321.87l-1.1-3.27Q224,316,225,313.53Z"/><path class="cls-2" d="M211.34,316.9c.76-.2,2,.35,3.1,1.07A7.72,7.72,0,0,1,217,320.4c.5,1,.09,3.16-.34,4.15-.27.06-.54.13-.82.17,0,0,0,1.13-.13,2.29s-.36,2.36-.77,2.47-1.25-.76-2-1.68-1.33-1.86-1.33-1.86l-.69.29c-1-.66-2.67-2.54-2.72-3.73C208.19,320.89,209.9,317.25,211.34,316.9Z"/><polygon class="cls-3" points="214.97 329.61 217.45 330.94 216.04 333.42 213.57 332.08 214.97 329.61"/><line class="cls-4" x1="217.17" y1="337.41" x2="216.04" y2="333.42"/><path class="cls-3" d="M213.6,332.22l3.89-1.13q-.11,3.15-.32,6.32Q215.34,334.83,213.6,332.22Z"/><path class="cls-1" d="M177.37,335.08a136,136,0,0,0,30-3.4l-.1-.44a135.7,135.7,0,0,1-29.92,3.39Z"/><path class="cls-1" d="M177.37,327.1a129,129,0,0,0,28.25-3.19l-.1-.44a128.09,128.09,0,0,1-28.15,3.18Z"/><path class="cls-1" d="M177.42,330.86a132.08,132.08,0,0,0,29-3.27l-.16-.68a131.17,131.17,0,0,1-28.83,3.26Z"/><path class="cls-2" d="M199.22,325.18c1.39,1,2.81,2.05,4.27,3.06q-1.14,2.24-2.35,4.48a1.63,1.63,0,0,1,.35,2.21,5.44,5.44,0,0,1-.92,1.29,5,5,0,0,1-1.14-1,1.77,1.77,0,0,1-.28-2.24q-1.71-1.74-3.35-3.6C197,328.06,198.12,326.6,199.22,325.18Z"/><path class="cls-2" d="M198.56,321.23c1.34,1,2.7,2.09,4.1,3.12l.73,3.55-3.79.68c-1.27.23-2.53.47-3.81.61l-.34-3.43C196.54,324.31,197.57,322.74,198.56,321.23Z"/><path class="cls-2" d="M184.52,321.52c1.54-.07,4.3,3,4.76,4.67.27,1.05-.63,3.08-1.27,3.93l-.84,0s-.26,1.11-.63,2.23-.88,2.24-1.31,2.27-1-1-1.54-2.07-.89-2.13-.89-2.13l-.74.11c-.8-.9-2-3.08-1.83-4.26C180.54,324.58,183,321.6,184.52,321.52Z"/><path class="cls-3" d="M185.22,334.72l2.11,1.81-1.91,2.14c-.71-.59-1.42-1.22-2.11-1.86C184,336.14,184.6,335.45,185.22,334.72Z"/><line class="cls-4" x1="185.63" y1="342.81" x2="185.42" y2="338.67"/><path class="cls-3" d="M183.31,337c1.34,0,2.69-.18,4-.27-.54,2-1.11,4.09-1.71,6.13C184.83,340.89,184.05,338.93,183.31,337Z"/><path class="cls-1" d="M147.35,331.68a136,136,0,0,0,30,3.4v-.45a135.7,135.7,0,0,1-29.92-3.39Z"/><path class="cls-1" d="M149.12,323.91a128.93,128.93,0,0,0,28.25,3.19v-.45a128.09,128.09,0,0,1-28.15-3.18Z"/><path class="cls-1" d="M148.33,327.59a132.08,132.08,0,0,0,29,3.27v-.69a131.33,131.33,0,0,1-28.84-3.26Z"/><path class="cls-2" d="M170.84,326.93q1.69,1.92,3.49,3.85c-1.07,1.3-2.16,2.61-3.29,3.91a1.64,1.64,0,0,1-.14,2.24,4.92,4.92,0,0,1-1.18,1.05,5.61,5.61,0,0,1-.9-1.24,1.78,1.78,0,0,1,.23-2.26c-.86-1.41-1.68-2.83-2.48-4.25Q168.76,328.58,170.84,326.93Z"/><path class="cls-2" d="M171.07,322.93q1.6,1.94,3.31,3.88l-.07,3.61-3.85-.1-3.85-.29.42-3.43C168.42,325.38,169.76,324.16,171.07,322.93Z"/><path class="cls-2" d="M157.31,320.07c1.49.37,3.53,3.85,3.6,5.6,0,1.08-1.28,2.88-2.1,3.59l-.81-.2s-.5,1-1.11,2-1.34,2-1.77,1.89-.79-1.24-1.05-2.38-.39-2.26-.39-2.26l-.75,0c-.58-1-1.32-3.4-.85-4.51C152.74,322.24,155.85,319.76,157.31,320.07Z"/><path class="cls-3" d="M155.08,333.1c.55.75,1.09,1.53,1.65,2.27-.77.56-1.54,1.08-2.33,1.62l-1.65-2.28Z"/><line class="cls-4" x1="153.69" y1="341.08" x2="154.4" y2="336.99"/><path class="cls-3" d="M152.72,334.84l4,.69c-1,1.87-2,3.7-3,5.55Q153.17,338,152.72,334.84Z"/><path class="cls-1" d="M118.82,321.74a135.92,135.92,0,0,0,28.53,9.94l.1-.44a135.61,135.61,0,0,1-28.44-9.9Z"/><path class="cls-1" d="M122.28,314.56a128,128,0,0,0,26.84,9.35l.1-.44a127.3,127.3,0,0,1-26.74-9.32Z"/><path class="cls-1" d="M120.69,318a131.73,131.73,0,0,0,27.55,9.59l.15-.67a131.1,131.1,0,0,1-27.4-9.55Z"/><path class="cls-2" d="M142.8,322.29c.81,1.52,1.63,3.1,2.52,4.59-1.34,1.07-2.67,2-4.06,3a1.64,1.64,0,0,1-.63,2.14,5.3,5.3,0,0,1-1.39.76,4.84,4.84,0,0,1-.6-1.39,1.77,1.77,0,0,1,.72-2.14c-.52-1.57-1-3.07-1.48-4.67C139.54,323.91,141.2,323.07,142.8,322.29Z"/><path class="cls-2" d="M143.91,318.44c.75,1.51,1.52,3.09,2.35,4.58l-.88,3.51c-1.25-.29-2.47-.68-3.71-1s-2.49-.66-3.71-1.08l1.18-3.24C140.76,320.33,142.36,319.36,143.91,318.44Z"/><path class="cls-2" d="M131.13,312.62c1.42.61,2.58,4.58,2.26,6.29-.21,1.06-1.89,2.5-2.84,3l-.74-.39s-.71.88-1.54,1.73-1.76,1.63-2.16,1.48-.51-1.36-.5-2.53.13-2.31.13-2.31l-.71-.22c-.33-1.16-.5-3.66.2-4.63a7.31,7.31,0,0,1,2.81-1.92A4.81,4.81,0,0,1,131.13,312.62Z"/><path class="cls-3" d="M126.05,324.83l1.11,2.54-2.65,1.1c-.38-.85-.75-1.69-1.1-2.58C124.29,325.57,125.18,325.2,126.05,324.83Z"/><line class="cls-4" x1="122.91" y1="332.3" x2="124.51" y2="328.47"/><path class="cls-3" d="M123.35,326c1.23.56,2.51,1,3.76,1.51-1.37,1.6-2.78,3.2-4.2,4.78C123,330.2,123.16,328.13,123.35,326Z"/><path class="cls-1" d="M93.26,305.62a137.22,137.22,0,0,0,25.56,16.12l.19-.4a137.66,137.66,0,0,1-25.47-16.07Z"/><path class="cls-1" d="M98.24,299.39a130.36,130.36,0,0,0,24,15.17l.2-.41a129,129,0,0,1-24-15.12Z"/><path class="cls-1" d="M95.93,302.36a133,133,0,0,0,24.67,15.56l.3-.62a132.81,132.81,0,0,1-24.54-15.49Z"/><path class="cls-2" d="M116.49,311.55c.43,1.69.94,3.32,1.45,5q-2.3,1.08-4.66,2.1a1.63,1.63,0,0,1-1.1,2,4.91,4.91,0,0,1-1.51.42,5.22,5.22,0,0,1-.27-1.51,1.77,1.77,0,0,1,1.18-1.93q-.22-2.46-.39-4.89Q113.89,312.15,116.49,311.55Z"/><path class="cls-2" d="M118.43,308.06c.38,1.66.83,3.27,1.29,4.94l-1.64,3.22c-1.14-.59-2.3-1.14-3.42-1.78l-3.34-1.92,1.87-2.9Q115.86,308.87,118.43,308.06Z"/><path class="cls-2" d="M107.29,299.49c.63.47,1,1.74,1.1,3.1a7.67,7.67,0,0,1-.3,3.52c-.43,1-2.41,2-3.46,2.33-.22-.17-.42-.37-.63-.55,0,0-.89.7-1.88,1.33s-2.07,1.19-2.42.94-.18-1.46.09-2.59.62-2.2.62-2.2l-.66-.36c-.08-1.17.34-3.69,1.23-4.47C102.22,299.49,106.11,298.6,107.29,299.49Z"/><polygon class="cls-3" points="99.62 310.25 100.11 313.01 97.3 313.46 96.81 310.7 99.62 310.25"/><line class="cls-4" x1="94.89" y1="316.83" x2="97.3" y2="313.46"/><path class="cls-3" d="M96.72,310.81l3.31,2.33c-1.69,1.25-3.41,2.48-5.14,3.69Q95.76,313.8,96.72,310.81Z"/><path class="cls-1" d="M71.9,284.26c1.52,2,3.25,3.86,4.88,5.79s3.46,3.67,5.18,5.51,3.62,3.52,5.52,5.18,3.76,3.36,5.78,4.88l.28-.35c-2-1.51-3.85-3.24-5.76-4.86s-3.66-3.45-5.5-5.17-3.51-3.61-5.17-5.49S73.77,286,72.26,284Z"/><path class="cls-1" d="M78.14,279.28c1.42,1.9,3,3.64,4.58,5.45s3.26,3.45,4.88,5.19,3.41,3.31,5.19,4.88,3.55,3.16,5.45,4.59l.28-.36c-1.89-1.42-3.62-3-5.43-4.57s-3.44-3.25-5.17-4.86-3.3-3.39-4.86-5.17-3.15-3.53-4.57-5.43Z"/><path class="cls-1" d="M75.23,281.67c1.46,1.95,3.13,3.73,4.71,5.59s3.34,3.54,5,5.32,3.5,3.4,5.33,5,3.63,3.24,5.58,4.71l.44-.55c-1.94-1.45-3.71-3.12-5.56-4.68s-3.53-3.33-5.3-5-3.38-3.48-5-5.3-3.23-3.61-4.68-5.56Z"/><path class="cls-2" d="M93.25,295.18c.07,1.72.16,3.46.28,5.23-1.63.34-3.29.66-5,1,0,1-.72,1.47-1.5,1.65a5.22,5.22,0,0,1-1.59.1,5.25,5.25,0,0,1,.05-1.51A1.79,1.79,0,0,1,87.1,300c.2-1.63.46-3.27.73-4.88C89.64,295.19,91.43,295.23,93.25,295.18Z"/><path class="cls-2" d="M95.92,292.2c0,1.69.07,3.4.14,5.14l-2.32,2.78c-1.93-1.7-3.93-3.32-5.76-5.13l2.47-2.41C92.28,292.5,94.09,292.4,95.92,292.2Z"/><path class="cls-2" d="M86.93,281.4c1,1.19.36,5.22-.67,6.62-.65.87-2.8,1.44-3.87,1.49l-.51-.67s-1,.49-2.14.9-2.3.71-2.58.38.16-1.46.67-2.51,1.11-2,1.11-2l-.56-.51c.2-1.17,1.11-3.49,2.17-4.06C82,280.23,86,280.25,86.93,281.4Z"/><path class="cls-3" d="M77.06,290.2c-.07.94-.09,1.86-.11,2.78-1,0-1.92-.08-2.86-.17l.15-2.82Z"/><line class="cls-4" x1="70.99" y1="295.56" x2="74.09" y2="292.81"/><path class="cls-3" d="M74.13,290.08c.9,1,1.75,2.05,2.71,3-2,.86-3.9,1.69-5.85,2.47C72,293.71,73.06,291.89,74.13,290.08Z"/><path class="cls-1" d="M55.78,258.71A138,138,0,0,0,71.9,284.26l.36-.28a137.14,137.14,0,0,1-16.07-25.47Z"/><path class="cls-1" d="M63,255.24a129.88,129.88,0,0,0,15.18,24l.35-.28a129,129,0,0,1-15.12-24Z"/><path class="cls-1" d="M59.6,256.92a133,133,0,0,0,15.57,24.67l.54-.43a132.48,132.48,0,0,1-15.49-24.54Z"/><path class="cls-2" d="M74.21,274.07c-.32,1.7-.67,3.45-.89,5.16-1.71,0-3.38-.06-5.07-.15a1.63,1.63,0,0,1-1.84,1.28,5.37,5.37,0,0,1-1.55-.26,5.22,5.22,0,0,1,.39-1.47,1.79,1.79,0,0,1,1.91-1.23c.56-1.55,1.12-3,1.74-4.57C70.67,273.29,72.46,273.69,74.21,274.07Z"/><path class="cls-2" d="M77.47,271.76c-.36,1.65-.75,3.37-1,5L73.59,279c-.82-1-1.52-2.07-2.28-3.11s-1.51-2.09-2.22-3.15l2.93-1.8C73.85,271.25,75.68,271.52,77.47,271.76Z"/><path class="cls-2" d="M71.1,259.24c.73,1.35-.84,5.19-2.15,6.33-.83.7-3,.77-4.09.57l-.33-.77s-1.11.25-2.28.39-2.39.19-2.61-.18.45-1.38,1.18-2.29,1.54-1.73,1.54-1.73l-.42-.62c.46-1.1,1.88-3.17,3-3.49a7.23,7.23,0,0,1,3.4.24,8,8,0,0,1,1.67.66A2.51,2.51,0,0,1,71.1,259.24Z"/><path class="cls-3" d="M59.52,265.62l-.71,2.69-2.76-.79c.24-.91.46-1.8.74-2.7C57.68,265.11,58.62,265.36,59.52,265.62Z"/><line class="cls-4" x1="52.41" y1="269.51" x2="56.05" y2="267.52"/><path class="cls-3" d="M56.67,264.87c.62,1.2,1.34,2.35,2,3.52q-3.11.6-6.26,1.12C53.81,267.94,55.2,266.41,56.67,264.87Z"/><path class="cls-1" d="M45.84,230.17a136.2,136.2,0,0,0,9.94,28.54l.41-.2a135.07,135.07,0,0,1-9.91-28.44Z"/><path class="cls-1" d="M53.62,228.4A127.44,127.44,0,0,0,63,255.24l.41-.2a127.08,127.08,0,0,1-9.31-26.74Z"/><path class="cls-1" d="M50,229.29a131.64,131.64,0,0,0,9.59,27.54l.63-.3a131.48,131.48,0,0,1-9.55-27.4Z"/><path class="cls-2" d="M60.3,249.29c-.7,1.58-1.33,3.17-2,4.81q-2.46-.58-5-1.26a1.62,1.62,0,0,1-2.07.84,4.76,4.76,0,0,1-1.45-.61,5.13,5.13,0,0,1,.73-1.35A1.77,1.77,0,0,1,52.7,251q1.36-2.07,2.75-4.07Q57.9,248.14,60.3,249.29Z"/><path class="cls-2" d="M64,247.76c-.73,1.53-1.39,3.08-2.07,4.67l-3.29,1.5c-.52-1.17-1.08-2.33-1.57-3.52l-1.42-3.59,3.28-1.1Q61.48,246.8,64,247.76Z"/><path class="cls-2" d="M60.62,234.13c.2.75-.35,2-1.06,3.1a7.79,7.79,0,0,1-2.44,2.57c-.95.5-3.15.09-4.15-.34-.06-.27-.13-.54-.17-.82,0,0-1.13,0-2.29-.13s-2.35-.36-2.47-.77.76-1.25,1.68-2,1.86-1.34,1.86-1.34l-.29-.69c.66-1,2.54-2.66,3.74-2.72C56.64,231,60.28,232.68,60.62,234.13Z"/><polygon class="cls-3" points="47.91 237.76 46.58 240.23 44.1 238.83 45.44 236.36 47.91 237.76"/><line class="cls-4" x1="40.11" y1="239.96" x2="44.1" y2="238.83"/><path class="cls-3" d="M45.3,236.39l1.13,3.89c-2.1-.08-4.2-.19-6.32-.32Q42.71,238.13,45.3,236.39Z"/><path class="cls-1" d="M42.44,200.15a136.61,136.61,0,0,0,3.4,30l.44-.1a135,135,0,0,1-3.38-29.92Z"/><path class="cls-1" d="M50.42,200.15a128.33,128.33,0,0,0,3.2,28.25l.44-.1a128.1,128.1,0,0,1-3.19-28.15Z"/><path class="cls-1" d="M46.66,200.2a132.09,132.09,0,0,0,3.28,29l.67-.15a131.33,131.33,0,0,1-3.26-28.84Z"/><path class="cls-2" d="M52.35,222q-1.55,2.07-3.07,4.26c-1.49-.75-3-1.54-4.48-2.35a1.63,1.63,0,0,1-2.21.35,5.25,5.25,0,0,1-1.29-.91,5.14,5.14,0,0,1,1-1.15,1.79,1.79,0,0,1,2.25-.28q1.73-1.71,3.59-3.35C49.47,219.77,50.92,220.91,52.35,222Z"/><path class="cls-2" d="M56.29,221.35c-1,1.33-2.09,2.69-3.12,4.1l-3.54.73-.69-3.8c-.22-1.26-.47-2.53-.61-3.81l3.44-.34C53.21,219.32,54.78,220.35,56.29,221.35Z"/><path class="cls-2" d="M56,207.3c.07,1.54-3,4.3-4.67,4.76-1,.27-3.07-.63-3.93-1.27l0-.83s-1.11-.26-2.23-.64-2.24-.87-2.27-1.3,1-1.05,2.07-1.55,2.13-.89,2.13-.89l-.1-.74c.89-.79,3.07-2,4.25-1.82C52.94,203.32,55.92,205.82,56,207.3Z"/><path class="cls-3" d="M42.8,208l-1.8,2.1-2.15-1.91c.59-.71,1.22-1.41,1.86-2.11C41.39,206.74,42.08,207.38,42.8,208Z"/><line class="cls-4" x1="34.71" y1="208.41" x2="38.85" y2="208.2"/><path class="cls-3" d="M40.57,206.09c0,1.35.18,2.69.27,4-2-.55-4.09-1.12-6.13-1.72C36.63,207.61,38.6,206.84,40.57,206.09Z"/><path class="cls-1" d="M45.84,170.13a136.61,136.61,0,0,0-3.4,30h.46a135.16,135.16,0,0,1,3.38-29.92Z"/><path class="cls-1" d="M53.62,171.9a128.47,128.47,0,0,0-3.2,28.25h.45A128.1,128.1,0,0,1,54.06,172Z"/><path class="cls-1" d="M49.94,171.11a132.16,132.16,0,0,0-3.28,29h.69a131.31,131.31,0,0,1,3.26-28.83Z"/><path class="cls-2" d="M50.6,193.62c-1.29,1.13-2.57,2.29-3.86,3.49-1.3-1.06-2.61-2.16-3.91-3.28a1.63,1.63,0,0,1-2.23-.15,4.89,4.89,0,0,1-1.06-1.17,5.28,5.28,0,0,1,1.24-.9,1.78,1.78,0,0,1,2.26.22c1.42-.85,2.83-1.68,4.25-2.48C48.39,190.81,49.49,192.24,50.6,193.62Z"/><path class="cls-2" d="M54.59,193.85c-1.29,1.07-2.58,2.18-3.87,3.31l-3.62-.07.1-3.85.29-3.85,3.43.42Q52.75,191.9,54.59,193.85Z"/><path class="cls-2" d="M57.45,180.09c-.37,1.5-3.85,3.54-5.59,3.61-1.08,0-2.88-1.29-3.59-2.11l.19-.81s-1-.5-2-1.11-2-1.34-1.89-1.77,1.24-.79,2.38-1.05,2.26-.39,2.26-.39l0-.75c1-.58,3.4-1.31,4.51-.84C55.28,175.53,57.76,178.64,57.45,180.09Z"/><path class="cls-3" d="M44.42,177.87c-.75.54-1.53,1.09-2.27,1.65-.56-.77-1.08-1.55-1.62-2.34l2.28-1.64Z"/><line class="cls-4" x1="36.44" y1="176.48" x2="40.53" y2="177.18"/><path class="cls-3" d="M42.68,175.5l-.69,4c-1.87-1-3.7-2-5.55-3C38.52,176.12,40.6,175.8,42.68,175.5Z"/><path class="cls-1" d="M55.78,141.6a135.92,135.92,0,0,0-9.94,28.53l.44.1a135.27,135.27,0,0,1,9.91-28.44Z"/><path class="cls-1" d="M63,145.06a127.84,127.84,0,0,0-9.34,26.84l.44.1a127.27,127.27,0,0,1,9.31-26.74Z"/><path class="cls-1" d="M59.55,143.47A131.73,131.73,0,0,0,50,171l.67.15a131.68,131.68,0,0,1,9.55-27.4Z"/><path class="cls-2" d="M55.24,165.58c-1.52.81-3.11,1.63-4.6,2.52-1.07-1.33-2-2.67-3-4.06a1.63,1.63,0,0,1-2.15-.63A5.33,5.33,0,0,1,44.7,162a5,5,0,0,1,1.39-.61,1.78,1.78,0,0,1,2.15.72c1.56-.52,3.06-1,4.66-1.47C53.61,162.32,54.45,164,55.24,165.58Z"/><path class="cls-2" d="M59.08,166.7c-1.51.74-3.09,1.51-4.58,2.34L51,168.17c.29-1.25.68-2.48,1-3.72s.67-2.49,1.08-3.7l3.24,1.17C57.2,163.54,58.16,165.14,59.08,166.7Z"/><path class="cls-2" d="M64.9,153.92c-.61,1.41-4.58,2.57-6.29,2.25-1.06-.2-2.5-1.89-3-2.84l.39-.74s-.88-.71-1.72-1.53-1.64-1.76-1.48-2.16,1.35-.52,2.52-.5,2.31.12,2.31.12l.23-.71c1.15-.33,3.65-.5,4.62.2a7.37,7.37,0,0,1,1.93,2.82A4.77,4.77,0,0,1,64.9,153.92Z"/><path class="cls-3" d="M52.7,148.83,50.15,150l-1.1-2.66c.85-.38,1.7-.75,2.58-1.09C52,147.07,52.33,148,52.7,148.83Z"/><line class="cls-4" x1="45.23" y1="145.69" x2="49.05" y2="147.29"/><path class="cls-3" d="M51.51,146.13c-.56,1.23-1,2.51-1.51,3.76q-2.4-2.05-4.77-4.2C47.32,145.81,49.4,146,51.51,146.13Z"/><path class="cls-1" d="M71.9,116.05A137.67,137.67,0,0,0,55.78,141.6l.41.19a137.06,137.06,0,0,1,16.07-25.46Z"/><path class="cls-1" d="M78.14,121a130.22,130.22,0,0,0-15.18,24l.41.2a129.31,129.31,0,0,1,15.12-24Z"/><path class="cls-1" d="M75.17,118.71A133.09,133.09,0,0,0,59.6,143.39l.62.3a132.15,132.15,0,0,1,15.49-24.54Z"/><path class="cls-2" d="M66,139.27c-1.68.44-3.32.94-5,1.45-.71-1.52-1.41-3.08-2.1-4.66a1.63,1.63,0,0,1-1.95-1.1,4.91,4.91,0,0,1-.42-1.51,5.22,5.22,0,0,1,1.51-.27,1.78,1.78,0,0,1,1.93,1.18c1.64-.15,3.28-.28,4.89-.38Q65.37,136.68,66,139.27Z"/><path class="cls-2" d="M69.46,141.22c-1.66.38-3.27.82-4.94,1.28l-3.22-1.63c.59-1.14,1.14-2.31,1.78-3.42L65,134.1,67.9,136C68.4,137.76,68.92,139.5,69.46,141.22Z"/><path class="cls-2" d="M78,130.08c-.47.62-1.74,1-3.09,1.09a7.71,7.71,0,0,1-3.53-.29c-1-.44-2-2.42-2.33-3.47.17-.22.37-.42.55-.63,0,0-.69-.89-1.32-1.87s-1.2-2.07-1-2.42,1.46-.19,2.59.08,2.2.62,2.2.62l.36-.66c1.17-.08,3.69.34,4.47,1.24C78,125,78.92,128.89,78,130.08Z"/><polygon class="cls-3" points="67.27 122.4 64.51 122.9 64.06 120.09 66.82 119.59 67.27 122.4"/><line class="cls-4" x1="60.69" y1="117.67" x2="64.06" y2="120.09"/><path class="cls-3" d="M66.71,119.5l-2.33,3.31q-1.87-2.53-3.69-5.14C62.72,118.26,64.72,118.87,66.71,119.5Z"/><path class="cls-1" d="M93.26,94.69c-2,1.51-3.86,3.24-5.78,4.87S83.8,103,82,104.75s-3.52,3.61-5.18,5.51-3.36,3.77-4.88,5.79l.36.28c1.51-2,3.23-3.85,4.85-5.77s3.45-3.66,5.17-5.49,3.61-3.51,5.5-5.17,3.75-3.35,5.76-4.86Z"/><path class="cls-1" d="M98.24,100.92c-1.9,1.42-3.63,3-5.45,4.59s-3.45,3.26-5.19,4.88-3.31,3.4-4.88,5.19-3.16,3.54-4.58,5.44l.35.28c1.42-1.89,3-3.62,4.57-5.42s3.25-3.44,4.86-5.17,3.39-3.31,5.17-4.87,3.54-3.15,5.43-4.57Z"/><path class="cls-1" d="M95.85,98c-1.95,1.46-3.72,3.14-5.58,4.71s-3.55,3.34-5.33,5-3.4,3.49-5,5.32-3.25,3.64-4.71,5.59l.54.43c1.45-1.94,3.12-3.71,4.68-5.56s3.33-3.52,5-5.29,3.48-3.38,5.3-5,3.62-3.23,5.56-4.69Z"/><path class="cls-2" d="M82.34,116c-1.72.07-3.46.16-5.22.28-.35-1.63-.67-3.29-1-5-1,0-1.48-.72-1.66-1.51a5.61,5.61,0,0,1-.1-1.59,5.05,5.05,0,0,1,1.51.06,1.77,1.77,0,0,1,1.62,1.58c1.63.21,3.27.47,4.88.73C82.33,112.42,82.29,114.21,82.34,116Z"/><path class="cls-2" d="M85.32,118.71c-1.69,0-3.4.06-5.13.13l-2.79-2.31c1.7-1.93,3.32-3.94,5.13-5.76L85,113.24C85,115.06,85.13,116.87,85.32,118.71Z"/><path class="cls-2" d="M96.12,109.71c-1.19,1-5.21.37-6.62-.67-.87-.64-1.44-2.8-1.48-3.87l.66-.51s-.49-1-.89-2.14-.72-2.3-.39-2.57,1.46.15,2.52.67,2,1.1,2,1.1l.51-.55c1.17.19,3.49,1.11,4.06,2.16C97.29,104.81,97.28,108.77,96.12,109.71Z"/><path class="cls-3" d="M87.33,99.84c-1-.06-1.86-.09-2.79-.11,0-1,.08-1.92.17-2.85l2.82.15Z"/><line class="cls-4" x1="81.96" y1="93.77" x2="84.71" y2="96.88"/><path class="cls-3" d="M87.44,96.91c-1,.9-2,1.75-3,2.71-.86-1.94-1.69-3.9-2.47-5.85Q84.74,95.32,87.44,96.91Z"/><path class="cls-1" d="M118.82,78.56A137.79,137.79,0,0,0,93.26,94.69l.28.35A137.14,137.14,0,0,1,119,79Z"/><path class="cls-1" d="M122.28,85.75a129.31,129.31,0,0,0-24,15.17l.28.35a129.5,129.5,0,0,1,24-15.12Z"/><path class="cls-1" d="M120.6,82.38A133.54,133.54,0,0,0,95.93,98l.43.54A132.77,132.77,0,0,1,120.9,83Z"/><path class="cls-2" d="M103.45,97c-1.7-.32-3.45-.67-5.16-.89,0-1.71.07-3.37.15-5.07a1.62,1.62,0,0,1-1.28-1.83,5.3,5.3,0,0,1,.27-1.56,5,5,0,0,1,1.46.4,1.77,1.77,0,0,1,1.23,1.9c1.55.57,3,1.12,4.57,1.75C104.23,93.45,103.83,95.25,103.45,97Z"/><path class="cls-2" d="M105.76,100.26c-1.65-.37-3.37-.75-5-1l-2.2-2.87c1-.82,2.08-1.52,3.11-2.28s2.09-1.5,3.15-2.22l1.81,2.94C106.27,96.63,106,98.47,105.76,100.26Z"/><path class="cls-2" d="M118.28,93.88c-1.35.73-5.19-.84-6.32-2.15-.71-.83-.78-3-.58-4.08l.77-.34s-.25-1.11-.39-2.28-.19-2.39.19-2.6,1.38.44,2.28,1.17S116,85.14,116,85.14l.62-.42c1.11.46,3.17,1.89,3.49,3a7.23,7.23,0,0,1-.24,3.4,8.06,8.06,0,0,1-.66,1.68A2.41,2.41,0,0,1,118.28,93.88Z"/><path class="cls-3" d="M111.9,82.31l-2.69-.72.79-2.76c.91.24,1.8.46,2.71.75C112.41,80.46,112.16,81.4,111.9,82.31Z"/><line class="cls-4" x1="108.01" y1="75.2" x2="110" y2="78.83"/><path class="cls-3" d="M112.65,79.45c-1.2.63-2.35,1.34-3.52,2-.4-2.08-.77-4.16-1.12-6.26C109.58,76.6,111.11,78,112.65,79.45Z"/><path class="cls-1" d="M147.35,68.62a135.92,135.92,0,0,0-28.53,9.94L119,79a135.07,135.07,0,0,1,28.44-9.91Z"/><path class="cls-1" d="M149.12,76.4a127.47,127.47,0,0,0-26.84,9.35l.2.4a127.84,127.84,0,0,1,26.74-9.31Z"/><path class="cls-1" d="M148.24,72.74a131.76,131.76,0,0,0-27.55,9.6l.3.62a131.07,131.07,0,0,1,27.4-9.54Z"/><path class="cls-2" d="M128.24,83.08c-1.59-.69-3.18-1.33-4.82-2q.58-2.46,1.26-5a1.64,1.64,0,0,1-.84-2.08,4.76,4.76,0,0,1,.61-1.45,5.32,5.32,0,0,1,1.35.73,1.78,1.78,0,0,1,.77,2.13c1.39.9,2.74,1.82,4.07,2.75C129.81,79.87,129,81.48,128.24,83.08Z"/><path class="cls-2" d="M129.76,86.78c-1.53-.72-3.08-1.39-4.66-2.07l-1.51-3.29c1.17-.52,2.33-1.08,3.52-1.57l3.59-1.41,1.1,3.27C131.08,83.41,130.4,85.11,129.76,86.78Z"/><path class="cls-2" d="M143.4,83.41c-.76.19-2-.35-3.1-1.07a7.72,7.72,0,0,1-2.58-2.43c-.5-1-.09-3.16.34-4.16.27-.06.54-.12.82-.16,0,0,0-1.13.13-2.29s.36-2.36.77-2.48,1.25.77,2,1.68,1.33,1.87,1.33,1.87l.69-.29c1,.65,2.66,2.53,2.72,3.73C146.55,79.42,144.84,83.06,143.4,83.41Z"/><polygon class="cls-3" points="139.76 70.7 137.29 69.36 138.69 66.89 141.16 68.22 139.76 70.7"/><line class="cls-4" x1="137.57" y1="62.9" x2="138.69" y2="66.89"/><path class="cls-3" d="M141.14,68.09l-3.89,1.12q.1-3.15.32-6.31Q139.39,65.48,141.14,68.09Z"/><path class="cls-1" d="M177.37,65.23a136,136,0,0,0-30,3.39l.1.44a136.3,136.3,0,0,1,29.92-3.38Z"/><path class="cls-1" d="M177.37,73.2a128.33,128.33,0,0,0-28.25,3.2l.1.44a127.49,127.49,0,0,1,28.15-3.18Z"/><path class="cls-1" d="M177.32,69.44a132.09,132.09,0,0,0-29,3.28l.15.68a131.33,131.33,0,0,1,28.84-3.26Z"/><path class="cls-2" d="M155.51,75.13q-2.07-1.55-4.26-3.07c.75-1.48,1.54-3,2.35-4.47a1.63,1.63,0,0,1-.35-2.21,5.49,5.49,0,0,1,.91-1.3,5.14,5.14,0,0,1,1.15,1,1.79,1.79,0,0,1,.28,2.25c1.14,1.15,2.26,2.36,3.35,3.59C157.75,72.25,156.62,73.71,155.51,75.13Z"/><path class="cls-2" d="M156.17,79.08q-2-1.58-4.09-3.13l-.73-3.54,3.79-.68c1.27-.23,2.53-.48,3.81-.61l.34,3.43C158.2,76,157.17,77.56,156.17,79.08Z"/><path class="cls-2" d="M170.22,78.79c-1.54.07-4.3-3-4.76-4.68-.27-1,.63-3.07,1.27-3.93l.84,0s.25-1.11.63-2.22.88-2.25,1.31-2.28,1,1,1.54,2.07.89,2.14.89,2.14l.74-.11c.79.89,2,3.07,1.82,4.25C174.2,75.72,171.7,78.7,170.22,78.79Z"/><path class="cls-3" d="M169.51,65.59l-2.1-1.81,1.91-2.15c.71.59,1.42,1.22,2.11,1.87C170.78,64.17,170.14,64.86,169.51,65.59Z"/><line class="cls-4" x1="169.11" y1="57.49" x2="169.32" y2="61.63"/><path class="cls-3" d="M171.43,63.36c-1.35,0-2.69.17-4,.26q.81-3.06,1.71-6.13C169.91,59.41,170.69,61.38,171.43,63.36Z"/><path class="cls-1" d="M207.39,68.62a136,136,0,0,0-30-3.39v.45a136.3,136.3,0,0,1,29.92,3.38Z"/><path class="cls-1" d="M205.62,76.4a128.4,128.4,0,0,0-28.25-3.2v.46a127.49,127.49,0,0,1,28.15,3.18Z"/><path class="cls-1" d="M206.41,72.72a132.09,132.09,0,0,0-29-3.28v.7a131.17,131.17,0,0,1,28.83,3.26Z"/><path class="cls-2" d="M183.9,73.38c-1.13-1.28-2.29-2.57-3.49-3.85,1.07-1.31,2.16-2.61,3.29-3.92a1.63,1.63,0,0,1,.14-2.23A4.83,4.83,0,0,1,185,62.32a5.53,5.53,0,0,1,.9,1.25,1.78,1.78,0,0,1-.23,2.25q1.27,2.13,2.48,4.25C186.71,71.17,185.28,72.27,183.9,73.38Z"/><path class="cls-2" d="M183.67,77.38c-1.07-1.29-2.17-2.59-3.31-3.88l.07-3.62,3.85.11,3.85.28-.42,3.43C186.32,74.92,185,76.15,183.67,77.38Z"/><path class="cls-2" d="M197.43,80.24c-1.5-.38-3.53-3.86-3.61-5.6,0-1.08,1.29-2.88,2.11-3.59l.81.2s.5-1,1.11-2,1.34-2,1.77-1.89.79,1.23,1,2.38.39,2.26.39,2.26l.75,0c.58,1,1.31,3.41.85,4.52C202,78.06,198.89,80.55,197.43,80.24Z"/><path class="cls-3" d="M199.65,67.21c-.54-.76-1.08-1.53-1.64-2.28.77-.56,1.54-1.08,2.33-1.62L202,65.6Z"/><line class="cls-4" x1="201.04" y1="59.22" x2="200.34" y2="63.31"/><path class="cls-3" d="M202,65.46l-4-.68c1-1.87,2-3.71,3-5.56C201.4,61.31,201.72,63.39,202,65.46Z"/><path class="cls-1" d="M235.92,78.56a135.92,135.92,0,0,0-28.53-9.94l-.1.44A135.07,135.07,0,0,1,235.73,79Z"/><path class="cls-1" d="M232.46,85.75a127.67,127.67,0,0,0-26.84-9.35l-.1.44a127.84,127.84,0,0,1,26.74,9.31Z"/><path class="cls-1" d="M234.05,82.34a131.76,131.76,0,0,0-27.55-9.6l-.15.68A131.07,131.07,0,0,1,233.75,83Z"/><path class="cls-2" d="M211.94,78c-.81-1.52-1.63-3.11-2.52-4.6,1.33-1.07,2.67-2,4.06-3a1.63,1.63,0,0,1,.63-2.15,5.3,5.3,0,0,1,1.39-.76,5.18,5.18,0,0,1,.6,1.39,1.78,1.78,0,0,1-.72,2.15c.52,1.56,1,3.06,1.48,4.67C215.2,76.4,213.54,77.23,211.94,78Z"/><path class="cls-2" d="M210.83,81.86c-.75-1.51-1.52-3.09-2.35-4.58l.87-3.51c1.26.29,2.48.69,3.72,1s2.49.67,3.7,1.08l-1.17,3.25C214,80,212.38,80.94,210.83,81.86Z"/><path class="cls-2" d="M223.6,87.68c-1.41-.6-2.57-4.58-2.25-6.28.21-1.07,1.89-2.5,2.84-3l.74.4s.71-.89,1.54-1.73,1.75-1.64,2.15-1.48.52,1.35.51,2.52-.13,2.31-.13,2.31l.71.23c.33,1.15.5,3.65-.2,4.62a7.26,7.26,0,0,1-2.82,1.93A4.77,4.77,0,0,1,223.6,87.68Z"/><path class="cls-3" d="M228.69,75.48l-1.12-2.55,2.66-1.1c.38.86.75,1.7,1.1,2.59C230.45,74.74,229.56,75.11,228.69,75.48Z"/><line class="cls-4" x1="231.83" y1="68.01" x2="230.23" y2="71.83"/><path class="cls-3" d="M231.39,74.29c-1.23-.56-2.51-1-3.76-1.5q2.06-2.42,4.2-4.78C231.72,70.1,231.58,72.18,231.39,74.29Z"/><path class="cls-1" d="M261.48,94.69a138.12,138.12,0,0,0-25.56-16.13l-.19.41A137.06,137.06,0,0,1,261.19,95Z"/><path class="cls-1" d="M256.5,100.92a129.31,129.31,0,0,0-24-15.17l-.2.4a129.5,129.5,0,0,1,24,15.12Z"/><path class="cls-1" d="M258.81,98a133.54,133.54,0,0,0-24.67-15.57l-.31.63a132.1,132.1,0,0,1,24.54,15.48Z"/><path class="cls-2" d="M238.25,88.75c-.44-1.68-.94-3.31-1.45-5,1.52-.71,3.08-1.41,4.66-2.1a1.63,1.63,0,0,1,1.1-2,5.26,5.26,0,0,1,1.51-.42,5.22,5.22,0,0,1,.27,1.51,1.78,1.78,0,0,1-1.18,1.93c.15,1.65.28,3.28.38,4.9C241.75,88,240,88.35,238.25,88.75Z"/><path class="cls-2" d="M236.31,92.25c-.39-1.66-.83-3.28-1.29-4.94l1.64-3.23c1.13.6,2.3,1.14,3.42,1.78l3.34,1.92-1.87,2.9C239.76,91.19,238,91.71,236.31,92.25Z"/><path class="cls-2" d="M247.45,100.82c-.63-.48-1-1.75-1.1-3.1a7.88,7.88,0,0,1,.29-3.53c.44-1,2.42-2,3.47-2.32.22.17.42.36.63.55,0,0,.89-.7,1.88-1.33s2.07-1.19,2.42-.94.18,1.45-.09,2.58-.62,2.21-.62,2.21l.66.36c.08,1.16-.34,3.69-1.23,4.46C252.52,100.81,248.63,101.71,247.45,100.82Z"/><polygon class="cls-3" points="255.12 90.05 254.62 87.3 257.44 86.84 257.93 89.61 255.12 90.05"/><line class="cls-4" x1="259.85" y1="83.47" x2="257.43" y2="86.84"/><path class="cls-3" d="M258,89.5l-3.31-2.33q2.53-1.87,5.14-3.7Q259,86.52,258,89.5Z"/><path class="cls-1" d="M282.84,116.05c-1.52-2-3.25-3.87-4.88-5.79s-3.46-3.67-5.18-5.51-3.62-3.52-5.52-5.19-3.77-3.36-5.78-4.87l-.29.35c2,1.51,3.85,3.23,5.77,4.86s3.66,3.45,5.5,5.17,3.51,3.6,5.16,5.49,3.35,3.76,4.86,5.77Z"/><path class="cls-1" d="M276.6,121c-1.42-1.9-3.05-3.63-4.59-5.44s-3.25-3.46-4.87-5.19-3.41-3.32-5.19-4.88-3.55-3.17-5.45-4.59l-.28.35c1.89,1.42,3.62,3,5.42,4.57s3.45,3.25,5.18,4.87,3.3,3.39,4.86,5.17,3.15,3.53,4.57,5.42Z"/><path class="cls-1" d="M279.51,118.64c-1.46-2-3.13-3.73-4.71-5.59s-3.34-3.55-5-5.32-3.5-3.4-5.33-5-3.63-3.25-5.59-4.71l-.43.54c1.94,1.46,3.71,3.12,5.56,4.69s3.53,3.32,5.3,5,3.38,3.47,5,5.29,3.23,3.62,4.68,5.56Z"/><path class="cls-2" d="M261.49,105.13c-.07-1.72-.16-3.47-.28-5.23,1.63-.34,3.29-.67,5-1,0-1,.73-1.48,1.51-1.66a5.41,5.41,0,0,1,1.59-.09,5.18,5.18,0,0,1,0,1.5,1.78,1.78,0,0,1-1.59,1.62c-.2,1.63-.47,3.28-.73,4.88C265.1,105.11,263.31,105.07,261.49,105.13Z"/><path class="cls-2" d="M258.81,108.1c0-1.68-.06-3.4-.13-5.13l2.32-2.78c1.93,1.7,3.93,3.31,5.75,5.13l-2.46,2.41C262.46,107.8,260.65,107.91,258.81,108.1Z"/><path class="cls-2" d="M267.81,118.9c-1-1.19-.36-5.21.67-6.62.64-.87,2.8-1.44,3.87-1.48l.51.67s1-.5,2.14-.9,2.3-.72,2.58-.39-.16,1.47-.67,2.52-1.11,2-1.11,2l.55.5c-.19,1.17-1.11,3.49-2.16,4.07C272.71,120.07,268.75,120.06,267.81,118.9Z"/><path class="cls-3" d="M277.68,110.11c.07-.94.09-1.86.11-2.79,1,0,1.92.09,2.86.17l-.15,2.82Z"/><line class="cls-4" x1="283.75" y1="104.74" x2="280.65" y2="107.49"/><path class="cls-3" d="M280.61,110.23c-.9-1-1.75-2.06-2.71-3,1.94-.86,3.9-1.7,5.85-2.48Q282.21,107.52,280.61,110.23Z"/><path class="cls-1" d="M299,141.6a138.19,138.19,0,0,0-16.12-25.55l-.36.28a137.06,137.06,0,0,1,16.07,25.46Z"/><path class="cls-1" d="M291.77,145.06a129.64,129.64,0,0,0-15.17-24l-.35.28a129.31,129.31,0,0,1,15.12,24Z"/><path class="cls-1" d="M295.14,143.39a133.09,133.09,0,0,0-15.57-24.68l-.54.44a132.68,132.68,0,0,1,15.49,24.54Z"/><path class="cls-2" d="M280.53,126.23c.32-1.69.67-3.45.89-5.16,1.71,0,3.37.07,5.07.15a1.64,1.64,0,0,1,1.84-1.28,5.28,5.28,0,0,1,1.55.27,5.22,5.22,0,0,1-.39,1.47,1.8,1.8,0,0,1-1.91,1.23c-.57,1.54-1.12,3-1.74,4.56C284.07,127,282.28,126.62,280.53,126.23Z"/><path class="cls-2" d="M277.26,128.55c.37-1.66.75-3.38,1-5l2.87-2.2c.82,1,1.52,2.07,2.28,3.11s1.51,2.08,2.22,3.15l-2.94,1.8C280.89,129.05,279.06,128.79,277.26,128.55Z"/><path class="cls-2" d="M283.64,141.07c-.73-1.36.84-5.19,2.15-6.33.83-.7,3-.78,4.09-.57l.33.77s1.11-.25,2.28-.4,2.39-.18,2.61.19-.45,1.38-1.18,2.29-1.54,1.72-1.54,1.72l.42.62c-.46,1.11-1.89,3.17-3,3.5a7.38,7.38,0,0,1-3.4-.25,7.27,7.27,0,0,1-1.67-.66A2.37,2.37,0,0,1,283.64,141.07Z"/><path class="cls-3" d="M295.21,134.68l.72-2.69,2.76.8c-.24.9-.46,1.79-.75,2.7C297.06,135.19,296.12,134.94,295.21,134.68Z"/><line class="cls-4" x1="302.32" y1="130.79" x2="298.69" y2="132.79"/><path class="cls-3" d="M298.07,135.43c-.62-1.19-1.34-2.34-2-3.52q3.1-.6,6.25-1.12C300.93,132.36,299.53,133.89,298.07,135.43Z"/><path class="cls-1" d="M308.9,170.13A135.92,135.92,0,0,0,299,141.6l-.41.19a135.27,135.27,0,0,1,9.91,28.44Z"/><path class="cls-1" d="M301.12,171.9a127.3,127.3,0,0,0-9.35-26.84l-.4.2A127.27,127.27,0,0,1,300.68,172Z"/><path class="cls-1" d="M304.78,171a131.73,131.73,0,0,0-9.59-27.55l-.63.3a131.07,131.07,0,0,1,9.54,27.4Z"/><path class="cls-2" d="M294.44,151c.7-1.58,1.33-3.18,2-4.82q2.46.6,4.95,1.26a1.65,1.65,0,0,1,2.08-.84,5.06,5.06,0,0,1,1.45.61,5.32,5.32,0,0,1-.73,1.35,1.78,1.78,0,0,1-2.13.78q-1.35,2.07-2.75,4.07C297.66,152.59,296,151.79,294.44,151Z"/><path class="cls-2" d="M290.74,152.55c.73-1.54,1.39-3.08,2.07-4.67l3.29-1.51c.52,1.18,1.08,2.33,1.57,3.52l1.42,3.59-3.28,1.1Q293.26,153.51,290.74,152.55Z"/><path class="cls-2" d="M294.12,166.18c-.2-.76.35-2,1.06-3.1a8,8,0,0,1,2.43-2.58c1-.5,3.16-.08,4.16.34.06.27.12.55.16.82,0,0,1.13,0,2.3.13s2.35.36,2.47.78-.76,1.25-1.68,2-1.86,1.33-1.86,1.33l.28.69c-.65,1-2.53,2.67-3.73,2.72C298.1,169.33,294.46,167.62,294.12,166.18Z"/><polygon class="cls-3" points="306.83 162.55 308.16 160.08 310.63 161.48 309.3 163.95 306.83 162.55"/><line class="cls-4" x1="314.63" y1="160.35" x2="310.63" y2="161.48"/><path class="cls-3" d="M309.43,163.92,308.31,160c2.1.08,4.2.18,6.32.32Q312,162.18,309.43,163.92Z"/><path class="cls-1" d="M312.29,200.15a136,136,0,0,0-3.39-30l-.44.1a135.76,135.76,0,0,1,3.38,29.92Z"/><path class="cls-1" d="M304.32,200.15a128.47,128.47,0,0,0-3.2-28.25l-.44.1a128.1,128.1,0,0,1,3.19,28.15Z"/><path class="cls-1" d="M308.08,200.1a132.16,132.16,0,0,0-3.28-29l-.67.16a132.53,132.53,0,0,1,3.26,28.83Z"/><path class="cls-2" d="M302.39,178.3q1.55-2.09,3.07-4.26c1.48.75,3,1.53,4.47,2.35a1.63,1.63,0,0,1,2.21-.36,5.37,5.37,0,0,1,1.3.92,5,5,0,0,1-1,1.14,1.77,1.77,0,0,1-2.25.28c-1.15,1.14-2.36,2.26-3.59,3.35C305.27,180.53,303.81,179.4,302.39,178.3Z"/><path class="cls-2" d="M298.45,179q1.56-2,3.12-4.1l3.54-.73.68,3.79c.23,1.27.48,2.53.61,3.81l-3.43.34C301.53,181,300,180,298.45,179Z"/><path class="cls-2" d="M298.74,193c-.08-1.54,3-4.31,4.67-4.76,1-.28,3.07.62,3.93,1.26l0,.84s1.11.26,2.23.64,2.24.87,2.27,1.3-1,1.05-2.07,1.55-2.14.88-2.14.88l.11.74c-.89.8-3.07,2-4.25,1.83C301.8,197,298.82,194.49,298.74,193Z"/><path class="cls-3" d="M311.94,192.3l1.8-2.11,2.15,1.92c-.59.71-1.22,1.41-1.86,2.1C313.35,193.56,312.66,192.93,311.94,192.3Z"/><line class="cls-4" x1="320.03" y1="191.89" x2="315.89" y2="192.11"/><path class="cls-3" d="M314.17,194.22c0-1.35-.18-2.7-.27-4,2,.54,4.09,1.11,6.13,1.71C318.11,192.7,316.14,193.47,314.17,194.22Z"/></g><g id="Text"><g id="Envelope_squashed" data-name="Envelope squashed"><path class="cls-5" d="M38.84,101c-1.3-1.06-2-1.59-3.27-2.63,2.58-.82,3.86-1.2,6.43-1.91a38.81,38.81,0,0,0,8-5.15c6.41-5.32,8.17-10,5.73-13.74s-6.49-3.77-15.85.92c-10.52,5.27-15.44,6.21-19,2.07s-1.21-11.69,7.46-18.87a46.73,46.73,0,0,1,14.18-8l2.9,3.09c-2.81.55-4.22.85-7.05,1.51A34.86,34.86,0,0,0,30,63.44c-6.45,5.33-8.51,10.92-6,14s6.06,2.53,15.51-2.17c10.76-5.34,16.1-5.09,19.22-.11,3.24,5.18.78,11.5-7.17,18A60.21,60.21,0,0,1,38.84,101Z"/><path class="cls-5" d="M66.72,39.82,79.83,66.66c1.29,1.57,1.94,2.36,3.21,4-2,1.09-3,1.65-5,2.81-.53-2-.78-3-1.28-5L63.21,41.79c-3.64,2.09-5.45,3.18-9,5.45-1.94,1.77-2.89,2.66-4.79,4.48-.51-1.41-.77-2.12-1.27-3.53A231,231,0,0,1,80.05,30.25l2,3.11c-2.46.63-3.69,1-6.15,1.68C72.21,36.86,70.36,37.82,66.72,39.82Z"/><path class="cls-5" d="M130.64,52.44c-2.21.52-3.32.8-5.51,1.39-1.08-1.36-1.62-2-2.72-3.38A160.57,160.57,0,0,0,108.72,42c-4.09,1.38-6.12,2.12-10.16,3.72,1.48,4.17,2.21,6.25,3.69,10.41,1,1.76,1.54,2.64,2.56,4.41-1.88.73-2.81,1.11-4.68,1.9-.44-2-.66-3-1.09-5-3.84-10.31-5.75-15.47-9.59-25.78-1-1.76-1.51-2.64-2.53-4.4a188.76,188.76,0,0,1,18.49-6.86c9.84-3.17,15.74-.47,17.21,6.19,1.32,5.94-2.36,10.77-10.13,13.82A163.36,163.36,0,0,1,130.64,52.44ZM109.38,39.05c7.07-2.33,10.78-6.3,9.54-11.49s-5.73-7.23-13.31-4.76c-5.44,1.76-8.14,2.74-13.49,4.86,2.21,6.26,3.32,9.39,5.54,15.64C102.31,41.46,104.66,40.6,109.38,39.05Z"/><path class="cls-5" d="M163.93,44c-.17,1.47-.25,2.21-.4,3.68a158.17,158.17,0,0,0-27.35,3.55c-.09-2-.13-3.07-.21-5.12C134,35.21,133,29.77,131.09,18.88c-.67-1.93-1-2.89-1.7-4.82,10.8-1.93,21.14-3.28,32.08-4.18.34,1.44.52,2.16.86,3.6-2.45-.32-3.68-.47-6.14-.72a185.88,185.88,0,0,0-21.74,2.87L136.8,30c6.15-1.12,9.24-1.57,15.43-2.23,2.07-.42,3.1-.62,5.18-1l.25,3.53c-2.07-.06-3.11-.08-5.19-.09-6.14.65-9.19,1.09-15.28,2.21,1,6.22,1.53,9.33,2.54,15.56a160.06,160.06,0,0,1,19-2.5C160.78,44.86,161.83,44.56,163.93,44Z"/><path class="cls-5" d="M209.25,12.25l-1.5,4.89-4.47,32.44c-1.81-.28-2.73-.41-4.55-.65a309.6,309.6,0,0,0-24.88-36.8l.06,30.16c.29,2,.43,3,.71,5.07-1.72,0-2.58,0-4.3,0,.24-2,.36-3,.62-5.08-.17-11.08-.26-16.62-.43-27.71l-.9-5c2.54-.06,3.81-.07,6.36-.05a313.51,313.51,0,0,1,24.77,36.93q1.84-14.89,3.68-29.79c-.07-2-.11-3.08-.19-5.14C206.24,11.78,207.25,11.93,209.25,12.25Z"/><path class="cls-5" d="M250,44.06l-5.17,14.75A53.2,53.2,0,0,1,230,56.62C219.13,53.49,212,43.49,214.23,32.08c2.51-13,14.59-17.17,26.29-13.59a43.17,43.17,0,0,1,14.15,7.35c-.26,1.72-.4,2.58-.68,4.29-2-2.06-3-3.08-5.09-5.1A39.42,39.42,0,0,0,240,21c-9.61-3.17-20.2,1.23-22,11.85-1.87,11,3.13,18.37,12.82,21.36A42.51,42.51,0,0,0,242.47,56l2.8-8.38c-.07-2.18-.11-3.27-.21-5.45C247,42.92,248,43.29,250,44.06Z"/><path class="cls-5" d="M279.59,38.55l-12.83,27c-.45,2-.68,3-1.15,5.07-2-1.09-3-1.62-5.06-2.65,1.23-1.62,1.85-2.43,3.1-4l12.4-27.21c-3.72-1.9-5.59-2.81-9.36-4.53-2.45-.62-3.68-.91-6.12-1.45.77-1.27,1.16-1.9,1.94-3.17A229.6,229.6,0,0,1,294.8,44.47c-.47,1.42-.7,2.14-1.18,3.56-2-1.77-2.95-2.64-4.95-4.35C285.07,41.54,283.25,40.51,279.59,38.55Z"/><path class="cls-5" d="M285.27,76.75c5.65-9.32,8.47-14,14.12-23.32.75-1.89,1.13-2.85,1.87-4.75,1.94,1.31,2.9,2,4.82,3.34-1.36,1.49-2,2.23-3.37,3.72l-6.29,10A202.26,202.26,0,0,1,319,84.06L326.44,75,329,70.61c1.76,1.61,2.64,2.44,4.37,4.11-1.53,1.27-2.29,1.91-3.81,3.19L312,98.46c-1.08,1.71-1.62,2.56-2.71,4.25-1.47-1.42-2.21-2.11-3.7-3.49l3.66-3.35L317.39,86a201,201,0,0,0-22.32-18.1L288.21,78.8c-.81,1.86-1.22,2.79-2,4.65-1.62-1.16-2.44-1.73-4.09-2.84C283.35,79.06,284,78.29,285.27,76.75Z"/></g></g></svg>