<svg id="Spanish_Loyalty" data-name="Spanish Loyalty" xmlns="http://www.w3.org/2000/svg" xmlns:xlink="http://www.w3.org/1999/xlink" viewBox="0 0 350 350"><defs><style>.cls-1,.cls-2,.cls-3{fill:none;stroke:#000;stroke-miterlimit:10;}.cls-1{stroke-width:0.5px;}.cls-2{stroke-width:0.75px;}.cls-3{stroke-width:0.25px;}.cls-4{fill:#401e0b;}</style></defs><image width="2100" height="2100" transform="translate(31 59) scale(0.13)" xlink:href="../../../../../../../../Users/kathleenfenton/Downloads/Spanish%20Loyalty.png"/><g id="Layer_33" data-name="Layer 33"><path class="cls-1" d="M312,206.52c-2.07,1-4.13,2-6.19,2.95s-4.1,1.82-6.22,2.65c0,0,.73.74,1.81,2a50.64,50.64,0,0,1,3.87,5,38.25,38.25,0,0,1,3.45,6.37,10.57,10.57,0,0,1,.82,5.59"/><path class="cls-1" d="M312.11,205.21c-3.89-2.51-7.81-4.83-11.71-7"/><path class="cls-1" d="M292,243.2s1-.32,2.56-.92a52.9,52.9,0,0,0,5.7-2.67c1.05-.58,2.15-1.2,3.16-1.89a28.65,28.65,0,0,0,2.81-2.18c1.71-1.51,3-3.09,3.34-4.56"/><path class="cls-1" d="M309.31,232a6.79,6.79,0,0,0,2.44-.49c.05-.2-1.43-1.23-2-1.45s-.93-.5-1.21.73S308.75,232,309.31,232Z"/><path class="cls-2" d="M311,198.4a136.58,136.58,0,0,1-2.33,24.8"/><path class="cls-2" d="M303.24,198.25a130.21,130.21,0,0,1-2.19,23.4"/><path class="cls-3" d="M307.14,198.33a133.49,133.49,0,0,1-2.29,24.11"/><path class="cls-2" d="M301.9,247.07a136.67,136.67,0,0,0,6.81-24"/><path class="cls-2" d="M294.59,244.39a128.21,128.21,0,0,0,6.46-22.74"/><path class="cls-3" d="M298.25,245.72a131.82,131.82,0,0,0,6.6-23.29"/><path class="cls-1" d="M313.26,204.72a1.14,1.14,0,0,1,1.09,1.23,1.18,1.18,0,0,1-1.24,1.1,1.13,1.13,0,0,1-1.06-1.23A1.18,1.18,0,0,1,313.26,204.72Z"/><path class="cls-1" d="M299.72,255.45c-4.51.47-9.13.67-13.6.71,0,0,.43,1,1,2.54a58.27,58.27,0,0,1,1.74,6,31.52,31.52,0,0,1,.88,7.17,17.42,17.42,0,0,1-.26,3.18,6.6,6.6,0,0,1-1,2.34"/><path class="cls-1" d="M300.26,254.26c-1.34-1.87-2.67-3.68-4.08-5.47s-2.86-3.54-4.32-5.24"/><path class="cls-1" d="M267.79,282.41a58.68,58.68,0,0,0,9-.36,37.78,37.78,0,0,0,7-1.63,10.05,10.05,0,0,0,4.74-3.06"/><path class="cls-1" d="M288,278.17a6.68,6.68,0,0,0,2.47.44c.12-.16-.87-1.64-1.32-2.05s-.68-.81-1.41.22S287.43,278,288,278.17Z"/><path class="cls-2" d="M301.72,247.52a136.26,136.26,0,0,1-11.13,22.28"/><path class="cls-2" d="M294.52,244.56a128,128,0,0,1-10.49,21"/><path class="cls-3" d="M298.12,246.05a131.89,131.89,0,0,1-10.84,21.65"/><path class="cls-2" d="M275.62,289.6a136.43,136.43,0,0,0,15-19.88"/><path class="cls-2" d="M269.77,284.46A129,129,0,0,0,284,265.58"/><path class="cls-3" d="M272.71,287a133.12,133.12,0,0,0,14.58-19.34"/><path class="cls-1" d="M301.52,254.22a1.16,1.16,0,0,1,.57,1.55,1.15,1.15,0,0,1-1.53.58,1.17,1.17,0,0,1,1-2.13Z"/><path class="cls-1" d="M270.54,296.61c-4.43-1.25-8.69-2.61-12.94-4.24,0,0,0,1.05,0,2.71,0,.83-.05,1.81-.13,2.89s-.22,2.2-.4,3.39c-.66,4.79-2.4,10-4.88,11.75"/><path class="cls-1" d="M271.49,295.71c-1.13-4.44-2.5-8.83-4-13"/><path class="cls-1" d="M231,310.24s1,.43,2.51,1a43.9,43.9,0,0,0,6,1.89,33.23,33.23,0,0,0,7.16,1,10.72,10.72,0,0,0,5.55-1.11"/><path class="cls-1" d="M251.4,313.58a6.84,6.84,0,0,0,2.15,1.31,5.67,5.67,0,0,0-.5-2.41c-.25-.51-.35-1-1.38-.28S251,313.19,251.4,313.58Z"/><path class="cls-2" d="M275.29,290a134.26,134.26,0,0,1-18.42,16.76"/><path class="cls-2" d="M269.65,284.59a127.1,127.1,0,0,1-17.38,15.82"/><path class="cls-3" d="M272.47,287.28a129.92,129.92,0,0,1-17.93,16.28"/><path class="cls-2" d="M235.76,319.76a135.78,135.78,0,0,0,21.18-13.11"/><path class="cls-2" d="M232.16,312.87a129,129,0,0,0,20.11-12.46"/><path class="cls-3" d="M234,316.32a132.17,132.17,0,0,0,20.58-12.76"/><path class="cls-1" d="M272.69,296.14a1.14,1.14,0,0,1,0,1.63,1.18,1.18,0,0,1-1.65,0,1.15,1.15,0,0,1,0-1.63A1.18,1.18,0,0,1,272.69,296.14Z"/><path class="cls-1" d="M228.52,324.53Q223,320.35,218,315.9a59,59,0,0,1-3.74,8.2,37.32,37.32,0,0,1-4.18,5.88,10,10,0,0,1-4.64,3.23"/><path class="cls-1" d="M229.71,324c.27-2.29.48-4.57.66-6.82l.22-3.36.12-3.4"/><path class="cls-1" d="M186.75,322.9l.53.52c.33.34.82.82,1.43,1.35a60.49,60.49,0,0,0,4.93,3.93,31.31,31.31,0,0,0,6.3,3.53,15.11,15.11,0,0,0,3,1,6.5,6.5,0,0,0,2.53,0"/><path class="cls-1" d="M204.5,333.39c.25.52,1.34,2,1.53,2a5.64,5.64,0,0,0,.41-2.42c-.05-.56,0-1.06-1.19-.77S204.27,332.88,204.5,333.39Z"/><path class="cls-2" d="M235.33,320a135.3,135.3,0,0,1-23.24,9"/><path class="cls-2" d="M232,313a127.69,127.69,0,0,1-21.91,8.46"/><path class="cls-3" d="M233.66,316.48a131.65,131.65,0,0,1-22.6,8.69"/><path class="cls-2" d="M187.69,333.48a135.85,135.85,0,0,0,24.49-4.56"/><path class="cls-2" d="M186.84,325.75a128.57,128.57,0,0,0,23.25-4.34"/><path class="cls-3" d="M187.28,329.62a133.55,133.55,0,0,0,23.79-4.45"/><path class="cls-1" d="M230.67,324.81a1.18,1.18,0,0,1-.61,1.54,1.15,1.15,0,0,1-1.53-.6,1.19,1.19,0,0,1,.62-1.52A1.15,1.15,0,0,1,230.67,324.81Z"/><path class="cls-1" d="M179.22,335.25c-2.44-3.9-4.67-7.79-6.71-11.85,0,0-.67.8-1.82,2-.57.6-1.26,1.3-2,2s-1.65,1.48-2.58,2.24a34,34,0,0,1-6,4,10.7,10.7,0,0,1-5.49,1.37"/><path class="cls-1" d="M180.52,335.22c1.08-2,2.11-4.05,3.08-6.12s1.91-4.12,2.78-6.17"/><path class="cls-1" d="M140.85,318.72s.41,1,1.15,2.46a45.86,45.86,0,0,0,3.19,5.43,31.23,31.23,0,0,0,4.6,5.58c1.67,1.53,3.37,2.72,4.86,2.91"/><path class="cls-1" d="M153.63,334.92a6.78,6.78,0,0,0,.72,2.4,5.85,5.85,0,0,0,1.25-2.13c.16-.54.42-1-.83-1.13S153.6,334.35,153.63,334.92Z"/><path class="cls-2" d="M187.21,333.52a133.63,133.63,0,0,1-24.9,0"/><path class="cls-2" d="M186.66,325.76a125.61,125.61,0,0,1-23.51,0"/><path class="cls-3" d="M186.93,329.65a129.78,129.78,0,0,1-24.22,0"/><path class="cls-2" d="M137.92,328.93a136.65,136.65,0,0,0,24.48,4.58"/><path class="cls-2" d="M139.9,321.41a129.27,129.27,0,0,0,23.25,4.34"/><path class="cls-3" d="M138.91,325.18a131.94,131.94,0,0,0,23.81,4.42"/><path class="cls-1" d="M181.12,336.34a1.13,1.13,0,0,1-1.13,1.18,1.15,1.15,0,1,1-.08-2.3A1.18,1.18,0,0,1,181.12,336.34Z"/><path class="cls-1" d="M129.36,327.55l-.62-3.35-.52-3.4c-.32-2.26-.6-4.49-.83-6.71l-.65.35c-.42.21-1,.54-1.78.87a60.13,60.13,0,0,1-5.85,2.31,32.25,32.25,0,0,1-7.06,1.53,14.75,14.75,0,0,1-3.18,0,6.82,6.82,0,0,1-2.43-.74"/><path class="cls-1" d="M130.6,328q2.61-2.25,5.07-4.56c1.65-1.56,3.26-3.18,4.82-4.79"/><path class="cls-1" d="M99.58,298.24l0,.74c0,.47.08,1.14.17,1.95a60.09,60.09,0,0,0,1,6.24A35.86,35.86,0,0,0,103,314c.24.52.49,1,.76,1.48a13.44,13.44,0,0,0,.85,1.24,6.8,6.8,0,0,0,1.87,1.73"/><path class="cls-1" d="M105.65,317.93a6.67,6.67,0,0,0-.21,2.5c.17.1,1.56-1,1.93-1.51s.74-.75-.36-1.37S105.81,317.4,105.65,317.93Z"/><path class="cls-2" d="M137.45,328.8a136.12,136.12,0,0,1-23.22-9"/><path class="cls-2" d="M139.73,321.36a127.43,127.43,0,0,1-21.9-8.5"/><path class="cls-3" d="M138.58,325.09a131.36,131.36,0,0,1-22.56-8.8"/><path class="cls-2" d="M93.14,306.7a135.84,135.84,0,0,0,21.18,13.12"/><path class="cls-2" d="M97.72,300.41a128.77,128.77,0,0,0,20.11,12.45"/><path class="cls-3" d="M95.43,303.57A132.65,132.65,0,0,0,116,316.3"/><path class="cls-1" d="M130.75,329.23a1.16,1.16,0,0,1-1.48.71,1.14,1.14,0,0,1-.73-1.46,1.19,1.19,0,0,1,1.49-.72A1.16,1.16,0,0,1,130.75,329.23Z"/><path class="cls-1" d="M85.69,302.29q.63-3.39,1.36-6.69c.5-2.2,1.08-4.42,1.67-6.58,0,0-1,.14-2.7.26a44.62,44.62,0,0,1-6.3,0,31.79,31.79,0,0,1-7.15-1.1c-2.16-.65-4.06-1.5-5-2.68"/><path class="cls-1" d="M86.68,303.15c4.29-1.51,8.57-3.31,12.6-5.14"/><path class="cls-1" d="M68.48,264.21s-.34,1-.79,2.59A47.36,47.36,0,0,0,66.37,273,35.38,35.38,0,0,0,66,280.2a10.73,10.73,0,0,0,1.63,5.41"/><path class="cls-1" d="M67,284.78a7.12,7.12,0,0,0-1.11,2.27,5.53,5.53,0,0,0,2.34-.71c.49-.31,1-.43.17-1.42S67.39,284.34,67,284.78Z"/><path class="cls-2" d="M92.76,306.4a136.75,136.75,0,0,1-18.4-16.79"/><path class="cls-2" d="M97.58,300.29a127.15,127.15,0,0,1-17.36-15.84"/><path class="cls-3" d="M95.16,303.35A131.82,131.82,0,0,1,77.29,287"/><path class="cls-2" d="M59.43,269.79a136.92,136.92,0,0,0,15,19.89"/><path class="cls-2" d="M66,265.57a129,129,0,0,0,14.26,18.88"/><path class="cls-3" d="M62.69,267.69A132.6,132.6,0,0,0,77.3,287"/><path class="cls-1" d="M86.36,304.38a1.14,1.14,0,0,1-1.63.12,1.17,1.17,0,0,1-.13-1.65,1.16,1.16,0,0,1,1.63-.11A1.18,1.18,0,0,1,86.36,304.38Z"/><path class="cls-1" d="M54,263c2.45-3.94,4.93-7.67,7.61-11.29,0,0-1-.25-2.58-.74a52.1,52.1,0,0,1-5.92-2.22,38,38,0,0,1-6.28-3.61,10.51,10.51,0,0,1-3.64-4.32"/><path class="cls-1" d="M54.66,264.16c4.64.09,9.11,0,13.61-.26"/><path class="cls-1" d="M51.78,221.29s-.69.8-1.7,2.13a52,52,0,0,0-3.44,5.26c-.59,1-1.2,2.16-1.7,3.27a29.46,29.46,0,0,0-1.24,3.33c-.67,2.18-1,4.23-.45,5.64"/><path class="cls-1" d="M43,239.94c-.5.29-1.89,1.51-1.82,1.7a5.86,5.86,0,0,0,2.45.18c.55-.1,1.06-.06.65-1.26S43.44,239.65,43,239.94Z"/><path class="cls-2" d="M59.17,269.39a135.62,135.62,0,0,1-11.08-22.32"/><path class="cls-2" d="M65.86,265.41a127.92,127.92,0,0,1-10.45-21"/><path class="cls-3" d="M62.5,267.4a132.28,132.28,0,0,1-10.74-21.7"/><path class="cls-2" d="M41.33,223.2a134.93,134.93,0,0,0,6.8,24"/><path class="cls-2" d="M49,221.63a128.31,128.31,0,0,0,6.46,22.75"/><path class="cls-3" d="M45.13,222.43a131.81,131.81,0,0,0,6.63,23.28"/><path class="cls-1" d="M53.93,265.19a1.17,1.17,0,1,1-1.12-2.05,1.15,1.15,0,0,1,1.56.49A1.14,1.14,0,0,1,53.93,265.19Z"/><path class="cls-1" d="M38.77,214.92c1.84-1.39,3.62-2.73,5.52-4s3.78-2.54,5.67-3.74c0,0-.86-.6-2.18-1.63a46.94,46.94,0,0,1-4.67-4.21c-.84-.86-1.68-1.79-2.48-2.74a26.05,26.05,0,0,1-2.05-2.89c-1.18-1.94-2-3.85-1.89-5.34"/><path class="cls-1" d="M38.94,216.22c2.13.88,4.18,1.73,6.34,2.51s4.3,1.51,6.44,2.19"/><path class="cls-1" d="M51.72,175.19s-.92.5-2.33,1.38c-.71.43-1.53,1-2.42,1.58s-1.78,1.33-2.71,2.09a33,33,0,0,0-5.13,5.1,10.63,10.63,0,0,0-2.45,5.1"/><path class="cls-1" d="M36.79,189.42a6.76,6.76,0,0,0-2.34.93,5.59,5.59,0,0,0,2.21,1.05c.57.1,1,.32,1.07-.94S37.35,189.33,36.79,189.42Z"/><path class="cls-2" d="M41.24,222.72A138.51,138.51,0,0,1,39,197.92"/><path class="cls-2" d="M48.92,221.45a131.11,131.11,0,0,1-2.17-23.4"/><path class="cls-3" d="M45.07,222.08A135.43,135.43,0,0,1,42.87,198"/><path class="cls-2" d="M41.28,173.22A138.36,138.36,0,0,0,39,198"/><path class="cls-2" d="M49,174.49a131.07,131.07,0,0,0-2.2,23.56"/><path class="cls-3" d="M45.1,173.86A134.51,134.51,0,0,0,42.87,198"/><path class="cls-1" d="M37.88,216.91a1.16,1.16,0,0,1-.29-2.31,1.16,1.16,0,0,1,.29,2.31Z"/><path class="cls-1" d="M41.84,164.57c4.4-1.29,8.88-2.34,13.23-3.22,0,0-.62-.88-1.42-2.29a58.8,58.8,0,0,1-2.86-5.63c-1.88-4.38-3.28-9.8-2-12.53"/><path class="cls-1" d="M41.55,165.84c3.35,3.19,6.66,6.16,10.23,9"/><path class="cls-1" d="M68.29,132.21l-.74.1c-.47.06-1.14.17-1.94.33a62.34,62.34,0,0,0-6.1,1.57,32.93,32.93,0,0,0-6.62,2.9A9.73,9.73,0,0,0,48.77,141"/><path class="cls-1" d="M49.23,140.06a6.74,6.74,0,0,0-2.5,0c-.09.18,1.16,1.46,1.68,1.78s.82.67,1.34-.48S49.78,140.18,49.23,140.06Z"/><path class="cls-2" d="M41.36,172.74a135.9,135.9,0,0,1,6.84-24"/><path class="cls-2" d="M49,174.31a128.42,128.42,0,0,1,6.44-22.58"/><path class="cls-3" d="M45.16,173.52a132.29,132.29,0,0,1,6.67-23.28"/><path class="cls-2" d="M59.27,126.58a136.26,136.26,0,0,0-11.11,22.29"/><path class="cls-2" d="M66,130.56a127.75,127.75,0,0,0-10.54,21.17"/><path class="cls-3" d="M62.6,128.57a132.24,132.24,0,0,0-10.77,21.68"/><path class="cls-1" d="M40.32,166.11a1.17,1.17,0,0,1-.86-1.41,1.14,1.14,0,0,1,1.38-.86,1.19,1.19,0,0,1,.86,1.41A1.14,1.14,0,0,1,40.32,166.11Z"/><path class="cls-1" d="M63,118.75c2.29.2,4.55.45,6.77.73s4.52.67,6.73,1.07c0,0-.24-1-.52-2.67a46.5,46.5,0,0,1-.61-6.27c0-1.2,0-2.45,0-3.69a26.06,26.06,0,0,1,.43-3.52c.44-2.23,1.1-4.2,2.21-5.21"/><path class="cls-1" d="M62.21,119.82l1.46,3.08L65.23,126q1.59,3,3.26,5.93"/><path class="cls-1" d="M99.3,98.1s-1-.24-2.64-.53a50.52,50.52,0,0,0-6.27-.76,37.83,37.83,0,0,0-7.24.3,10.61,10.61,0,0,0-5.22,2.14"/><path class="cls-1" d="M78.7,98.57a6.82,6.82,0,0,0-2.36-.89,5.6,5.6,0,0,0,.92,2.26c.34.45.52.92,1.43,0S79.17,98.88,78.7,98.57Z"/><path class="cls-2" d="M59.53,126.17a136.86,136.86,0,0,1,15-19.86"/><path class="cls-2" d="M66.06,130.41a128.66,128.66,0,0,1,14.17-18.75"/><path class="cls-3" d="M62.79,128.28A133.34,133.34,0,0,1,77.43,109"/><path class="cls-2" d="M92.91,89.61A135.43,135.43,0,0,0,74.5,106.38"/><path class="cls-2" d="M97.72,95.72a127.62,127.62,0,0,0-17.49,15.94"/><path class="cls-3" d="M95.31,92.66A130,130,0,0,0,77.42,109"/><path class="cls-1" d="M61,119.61a1.13,1.13,0,0,1-.27-1.61,1.16,1.16,0,1,1,.27,1.61Z"/><path class="cls-1" d="M99.18,83.62c2.07,1,4.09,2.08,6.08,3.16s3.92,2.18,5.86,3.38c0,0,.16-1,.5-2.65a45.76,45.76,0,0,1,1.67-6.1,35.78,35.78,0,0,1,3-6.58,10.63,10.63,0,0,1,4-4"/><path class="cls-1" d="M98.08,84.33c.34,4.63.82,9.11,1.52,13.54"/><path class="cls-1" d="M140.51,77.5s-.86-.6-2.27-1.48a46.86,46.86,0,0,0-5.57-3c-1.09-.49-2.25-1-3.42-1.39a24.37,24.37,0,0,0-3.43-.93c-2.22-.43-4.3-.56-5.66.07"/><path class="cls-1" d="M121.11,70.44c-.33-.47-1.68-1.73-1.86-1.65a5.86,5.86,0,0,0,0,2.46c.16.54.16,1,1.31.53S121.44,70.9,121.11,70.44Z"/><path class="cls-2" d="M93.3,89.31a135.29,135.29,0,0,1,21.19-13.09"/><path class="cls-2" d="M97.87,95.61a128.28,128.28,0,0,1,20-12.36"/><path class="cls-3" d="M95.58,92.44a132.67,132.67,0,0,1,20.62-12.7"/><path class="cls-2" d="M137.64,67.27a136.2,136.2,0,0,0-23.24,9"/><path class="cls-2" d="M139.9,74.72a127.43,127.43,0,0,0-22.05,8.53"/><path class="cls-3" d="M138.76,71a131.3,131.3,0,0,0-22.57,8.76"/><path class="cls-1" d="M97,83.71a1.16,1.16,0,0,1,.32-1.62,1.19,1.19,0,0,1,1.63.33A1.15,1.15,0,0,1,98.6,84,1.17,1.17,0,0,1,97,83.71Z"/><path class="cls-1" d="M145.64,64l2.29,2.52,2.23,2.62q2.19,2.64,4.24,5.29s.51-.94,1.42-2.33a55.78,55.78,0,0,1,3.77-5,31.45,31.45,0,0,1,5.19-5,16.64,16.64,0,0,1,2.7-1.7,6.23,6.23,0,0,1,2.45-.65"/><path class="cls-1" d="M144.36,64.25q-1,3.28-1.91,6.54c-.58,2.19-1.1,4.42-1.58,6.61"/><path class="cls-1" d="M186.41,73.2s-.59-.86-1.6-2.17a45.91,45.91,0,0,0-4.13-4.79,37.91,37.91,0,0,0-5.54-4.66,10.58,10.58,0,0,0-5.31-1.93"/><path class="cls-1" d="M170.86,59.66a6.77,6.77,0,0,0-1.14-2.24,5.85,5.85,0,0,0-.84,2.29c0,.56-.23,1,1,1S171,60.21,170.86,59.66Z"/><path class="cls-2" d="M138.1,67.14a137,137,0,0,1,24.49-4.53"/><path class="cls-2" d="M140.08,74.67a129.22,129.22,0,0,1,23.09-4.29"/><path class="cls-3" d="M139.1,70.89a132.74,132.74,0,0,1,23.81-4.38"/><path class="cls-2" d="M187.4,62.62c-2.07-.14-4.14-.36-6.22-.43L175,62l-6.23.15c-2.08.08-4.15.29-6.22.43"/><path class="cls-2" d="M186.84,70.38c-2-.13-3.94-.33-5.91-.41L175,69.82l-5.93.15c-2,.08-3.94.28-5.91.41"/><path class="cls-3" d="M187.11,66.49c-2-.13-4-.34-6-.42L175,65.93l-6.06.15c-2,.08-4,.29-6,.43"/><path class="cls-1" d="M143.57,63.26a1.18,1.18,0,0,1,.89-1.39,1.14,1.14,0,0,1,1.39.86,1.17,1.17,0,0,1-.89,1.39A1.16,1.16,0,0,1,143.57,63.26Z"/><path class="cls-1" d="M196.07,62.38c1.67,4.33,3.15,8.61,4.42,12.88a59.93,59.93,0,0,1,7.5-5,37.27,37.27,0,0,1,6.65-2.8,10,10,0,0,1,5.64-.32"/><path class="cls-1" d="M194.77,62.21c-2.86,3.65-5.52,7.23-8,11"/><path class="cls-1" d="M230.73,85.73s-.22-1-.67-2.64a60.75,60.75,0,0,0-2.13-5.92,31.81,31.81,0,0,0-3.5-6.32,16.46,16.46,0,0,0-2.08-2.42,7,7,0,0,0-2.16-1.33"/><path class="cls-1" d="M221.15,67.47a6.66,6.66,0,0,0-.26-2.49c-.19-.06-1.35,1.3-1.62,1.85s-.59.88.61,1.28S221.09,68,221.15,67.47Z"/><path class="cls-2" d="M187.89,62.66a136.86,136.86,0,0,1,24.48,4.6"/><path class="cls-2" d="M187,70.4a128.39,128.39,0,0,1,23.09,4.32"/><path class="cls-3" d="M187.46,66.52A132.58,132.58,0,0,1,211.25,71"/><path class="cls-2" d="M235.5,76.23a136,136,0,0,0-23.22-9"/><path class="cls-2" d="M232.16,83.26a128.28,128.28,0,0,0-22-8.54"/><path class="cls-3" d="M233.83,79.73A132.17,132.17,0,0,0,211.24,71"/><path class="cls-1" d="M194.39,61a1.17,1.17,0,0,1,1.32-1,1.15,1.15,0,0,1,1,1.32,1.18,1.18,0,0,1-1.33,1A1.14,1.14,0,0,1,194.39,61Z"/><path class="cls-1" d="M243.65,79.19c0,2.3,0,4.53-.11,6.82s-.26,4.54-.44,6.78c0,0,1-.33,2.61-.76a51.32,51.32,0,0,1,6.18-1.19c1.19-.15,2.45-.28,3.68-.33a31.85,31.85,0,0,1,3.55.11c2.27.22,4.27.73,5.38,1.73"/><path class="cls-1" d="M242.51,78.53c-3.93,2.26-7.8,4.8-11.45,7.37"/><path class="cls-1" d="M267.55,113.46s.15-1,.29-2.67a57.16,57.16,0,0,0,.18-6.33,38.35,38.35,0,0,0-1-7.16,10.37,10.37,0,0,0-2.61-5"/><path class="cls-1" d="M265.19,93a6.79,6.79,0,0,0,.66-2.42,5.63,5.63,0,0,0-2.16,1.12c-.42.38-.87.61.09,1.43S264.92,93.49,265.19,93Z"/><path class="cls-2" d="M235.93,76.45a136.05,136.05,0,0,1,21.16,13.14"/><path class="cls-2" d="M232.32,83.34a128.35,128.35,0,0,1,20,12.39"/><path class="cls-3" d="M234.14,79.89a133.45,133.45,0,0,1,20.56,12.8"/><path class="cls-2" d="M275.42,106.32A135,135,0,0,0,257,89.53"/><path class="cls-2" d="M269.77,111.67a127,127,0,0,0-17.48-15.94"/><path class="cls-3" d="M272.6,109a130.54,130.54,0,0,0-17.91-16.3"/><path class="cls-1" d="M242.59,77.27a1.17,1.17,0,0,1,2,1.16,1.17,1.17,0,0,1-2-1.16Z"/><path class="cls-1" d="M282,112c-1.68,4.32-3.39,8.42-5.41,12.5,0,0,1,.06,2.69.25a45.39,45.39,0,0,1,6.21,1.1,33.2,33.2,0,0,1,6.83,2.39,10.72,10.72,0,0,1,4.42,3.55"/><path class="cls-1" d="M281.14,111c-4.56.75-9,1.69-13.33,2.75"/><path class="cls-1" d="M291.87,152.6s.52-.91,1.26-2.4c.37-.74.79-1.63,1.22-2.62s.82-2.06,1.2-3.19c1.63-4.56,2.49-10,1.09-12.67"/><path class="cls-1" d="M297.09,132.64c.44-.38,1.6-1.85,1.49-2a5.82,5.82,0,0,0-2.45.28c-.52.21-1,.26-.4,1.35S296.66,133,297.09,132.64Z"/><path class="cls-2" d="M275.75,106.67a136.23,136.23,0,0,1,15,19.9"/><path class="cls-2" d="M269.9,111.8a129.24,129.24,0,0,1,14.15,18.77"/><path class="cls-3" d="M272.84,109.24a132.55,132.55,0,0,1,14.55,19.36"/><path class="cls-2" d="M301.79,148.79a136.31,136.31,0,0,0-11.1-22.3"/><path class="cls-2" d="M294.59,151.74a128.53,128.53,0,0,0-10.54-21.17"/><path class="cls-3" d="M298.19,150.25a131.05,131.05,0,0,0-10.81-21.66"/><path class="cls-1" d="M281.67,109.84a1.11,1.11,0,0,1,1.62.18,1.16,1.16,0,0,1-.17,1.64,1.14,1.14,0,0,1-1.62-.19A1.18,1.18,0,0,1,281.67,109.84Z"/><path class="cls-1" d="M305.85,156.45c-3.07,3.4-6.33,6.65-9.56,9.68,0,0,1,.43,2.41,1.21a59.44,59.44,0,0,1,5.39,3.28c3.9,2.74,8,6.62,8.27,9.62"/><path class="cls-1" d="M305.43,155.21c-4.51-1-8.91-1.74-13.42-2.26"/><path class="cls-1" d="M300.4,197.89a59.46,59.46,0,0,0,6.4-6.33,35.79,35.79,0,0,0,4.09-5.95,9.71,9.71,0,0,0,1.46-5.46"/><path class="cls-1" d="M312.44,181.17a6.69,6.69,0,0,0,2.12-1.33,5.73,5.73,0,0,0-2.37-.63c-.56,0-1.05-.14-.88,1.11S311.92,181.36,312.44,181.17Z"/><path class="cls-2" d="M302,149.24a136.65,136.65,0,0,1,6.77,24"/><path class="cls-2" d="M294.65,151.91a127.42,127.42,0,0,1,6.4,22.6"/><path class="cls-3" d="M298.32,150.58a131.81,131.81,0,0,1,6.56,23.3"/><path class="cls-2" d="M311,197.92a137.55,137.55,0,0,0-2.31-24.8"/><path class="cls-2" d="M303.25,198.06a131,131,0,0,0-2.2-23.55"/><path class="cls-3" d="M307.15,198a134.55,134.55,0,0,0-2.27-24.11"/><path class="cls-1" d="M306.34,154.33a1.17,1.17,0,0,1,1.47.75,1.13,1.13,0,0,1-.73,1.46,1.19,1.19,0,0,1-1.47-.75A1.15,1.15,0,0,1,306.34,154.33Z"/></g><g id="Text_copy_4" data-name="Text copy 4"><path class="cls-4" d="M83.16,78.88c.57,1.4.86,2.09,1.45,3.48A155.1,155.1,0,0,0,62.29,99.48c-1.13-1.71-1.69-2.57-2.81-4.3L40.93,74.61c-1.64-1.26-2.46-1.88-4.11-3.12,1.94-1.77,2.92-2.63,4.9-4.32,1,1.79,1.54,2.69,2.57,4.47L64,94.53A142.27,142.27,0,0,1,78.88,83.08C80.56,81.37,81.42,80.53,83.16,78.88Z"/><path class="cls-4" d="M75.51,65.64c-6.81-11.11.59-24.31,11.88-29.07s25.28-3.43,29.67,9.57c3.72,11-2.75,21.85-12.77,26.52S81.58,75.55,75.51,65.64ZM113.05,47.5C109.5,37,97.69,34.57,88.48,38.89S73.34,53.83,79.2,63.37c5.66,9.23,15.09,11.15,24,7S116.5,57.74,113.05,47.5Z"/><path class="cls-4" d="M143.28,53.81c.65,1.94,1,2.92,1.6,4.87-1.95.35-2.92.54-4.86,1-.13-2.05-.19-3.07-.31-5.12l-1.93-9.33a170.26,170.26,0,0,0-25.49-17.33c2.71-.86,4.07-1.27,6.8-2,1.68,1.69,2.5,2.54,4.13,4.25A155.41,155.41,0,0,1,139.4,42.24a159.62,159.62,0,0,1,10.38-17.35c.92-2.2,1.39-3.3,2.36-5.5,2.5-.27,3.75-.39,6.26-.59a173.63,173.63,0,0,0-16.88,25.54C142.23,48.12,142.58,50,143.28,53.81Z"/><path class="cls-4" d="M194.46,57.18c-1.94-.23-2.91-.33-4.85-.51-.32-2-.48-3-.83-5-.79-2.12-1.2-3.18-2.05-5.3a148.38,148.38,0,0,0-23.19-.06c-.86,2.11-1.28,3.17-2.09,5.29-.35,2-.52,3-.85,5-1.77.15-2.65.23-4.42.43a227.66,227.66,0,0,1,16.06-36.75c-.58-.84-.87-1.26-1.46-2.09,2.72-.05,4.09-.05,6.81,0A309.37,309.37,0,0,1,194.46,57.18ZM185.64,43.8a190.66,190.66,0,0,0-10.41-21.65,190.56,190.56,0,0,0-10.59,21.59A151.73,151.73,0,0,1,185.64,43.8Z"/><path class="cls-4" d="M227.32,60.6c-.7,1.33-1,2-1.73,3.33a139.07,139.07,0,0,0-26.18-6.09c.6-2,.9-2.94,1.51-4.9,1.69-11,2.54-16.43,4.23-27.39-.05-2.05-.07-3.09-.13-5.15,2.43.37,3.64.57,6.06,1-.72,1.93-1.07,2.9-1.78,4.84Q206.69,41.12,204.07,56a141.08,141.08,0,0,1,17.47,4C223.85,60.21,225,60.32,227.32,60.6Z"/><path class="cls-4" d="M252.11,36.09Q246.32,50,240.54,64c-.32,2.06-.49,3.09-.84,5.14-2.2-.92-3.3-1.37-5.52-2.21,1.17-1.73,1.76-2.59,2.95-4.31q5.49-14.07,11-28.15c-4.21-1.64-6.33-2.4-10.61-3.79-2.72-.41-4.08-.59-6.8-.9.7-1.34,1.06-2,1.77-3.35a204.2,204.2,0,0,1,36.65,14.74c-.41,1.46-.62,2.19-1,3.64-2.25-1.69-3.39-2.52-5.69-4.13C258.32,38.73,256.26,37.81,252.11,36.09Z"/><path class="cls-4" d="M275.84,83.8c-.95,1.82-1.44,2.72-2.41,4.53-1.66-1.23-2.51-1.83-4.2-3,1.4-1.5,2.11-2.25,3.53-3.73,2.17-3.13,3.25-4.7,5.42-7.82a178.73,178.73,0,0,0-5.51-30.72c2.54,1.39,3.8,2.1,6.29,3.59,0,2.39-.06,3.58-.16,6A163,163,0,0,1,281.51,73a147.32,147.32,0,0,1,20.24-4c2.29-.8,3.44-1.19,5.76-1.94,2,1.74,3,2.62,5,4.43a160.89,160.89,0,0,0-31,4.52Z"/></g></svg>