<svg id="Spanish_Wisdom" data-name="Spanish Wisdom" xmlns="http://www.w3.org/2000/svg" xmlns:xlink="http://www.w3.org/1999/xlink" viewBox="0 0 350 350"><defs><style>.cls-1,.cls-2{fill:none;stroke:#000;stroke-miterlimit:10;}.cls-1{stroke-width:0.25px;}.cls-2{stroke-width:0.53px;}.cls-3{fill:#62370f;}</style></defs><image id="Sketch" width="2100" height="2100" transform="translate(31 65) scale(0.13)" xlink:href="../../../../../../../../Users/kathleenfenton/Downloads/Spanish%20Wisdom.png"/><g id="Border"><path class="cls-1" d="M308.24,195.41a6.6,6.6,0,0,1-2.11,4.12,8.62,8.62,0,0,1-1.88,1.41s1.1.54,1.08,1-1.28.94-1.28.94a24.45,24.45,0,0,1,2.76,2.14c1.37,1.24,2.7,2.84,2.58,4.06s-1.77,2.43-3.32,3.34A23.38,23.38,0,0,1,303,214s1.27.68,1.17,1.16-1.52.79-1.52.79a8.69,8.69,0,0,1,1.58,1.73,6.8,6.8,0,0,1,1.32,4.49"/><path class="cls-1" d="M304.41,195.41c-.37,2.8-4.24,3.78-4.31,6.4-.21,2.77,3.89,3.93,3.68,6.72s-4.59,3-4.95,5.82c-.44,2.49,3.58,4.5,3.12,7"/><path class="cls-1" d="M305.56,210.15a1.5,1.5,0,1,1,.34-2.87,1.69,1.69,0,0,1,1.51,1.57A1.82,1.82,0,0,1,305.56,210.15Z"/><path class="cls-1" d="M302,209.88c-.89,0-2.51-.92-2.4-1.83s1.85-1.52,2.71-1.29a2.07,2.07,0,0,1,1.49,1.71A2.19,2.19,0,0,1,302,209.88Z"/><path class="cls-1" d="M302.33,207.38c.84.08,1.49.57,1.45,1.1s-.8.88-1.63.78-1.47-.58-1.42-1.09S301.49,207.3,302.33,207.38Z"/><path class="cls-1" d="M305,209.4c.61.07,1.16-.24,1.21-.69s-.44-.86-1.06-.92-1.14.26-1.17.7S304.34,209.34,305,209.4Z"/><path class="cls-2" d="M311.85,195.42a137.32,137.32,0,0,1-2.8,27.42"/><path class="cls-2" d="M296.27,195.41a121.75,121.75,0,0,1-2.47,24.31"/><path class="cls-1" d="M302.69,195.41a4.45,4.45,0,0,1-2.88,1.56,2,2,0,0,1-2-1.56"/><path class="cls-1" d="M300,221a4.33,4.33,0,0,0-2.44-2c-1-.18-2.06.41-2.17,1"/><path class="cls-1" d="M305.55,222.15a6.65,6.65,0,0,1-2.89,3.61,8.42,8.42,0,0,1-2.13,1s1,.75.84,1.24-1.45.66-1.45.66a23.26,23.26,0,0,1,2.28,2.66c1.09,1.48,2.1,3.33,1.7,4.49s-2.21,2-3.91,2.6a24.18,24.18,0,0,1-3.3.85s1.12.93.89,1.36-1.64.46-1.64.46a8.74,8.74,0,0,1,1.2,2,6.54,6.54,0,0,1,.37,4.66"/><path class="cls-1" d="M301.79,221.38c-.93,2.66-4.9,2.84-5.51,5.4s3,4.64,2.24,7.31-5,2-6,4.7c-.94,2.35,2.64,5.15,1.62,7.52"/><path class="cls-1" d="M299.94,236a2.08,2.08,0,0,1-1.36-2,2.15,2.15,0,0,1,2.29-.76,1.66,1.66,0,0,1,1.15,1.84A1.83,1.83,0,0,1,299.94,236Z"/><path class="cls-1" d="M296.55,235.06c-.88-.14-2.28-1.4-2-2.27s2.12-1.11,2.93-.71a2,2,0,0,1,1.1,2A2.19,2.19,0,0,1,296.55,235.06Z"/><path class="cls-1" d="M297.35,232.69c.81.24,1.37.86,1.19,1.36s-1,.7-1.76.44-1.33-.87-1.16-1.36S296.54,232.44,297.35,232.69Z"/><path class="cls-1" d="M299.5,235.19a1,1,0,0,0,1.33-.43c.15-.43-.25-.93-.83-1.11a1,1,0,0,0-1.31.44C298.55,234.51,298.91,235,299.5,235.19Z"/><path class="cls-2" d="M309.08,222.88a135.22,135.22,0,0,1-8.3,26.29"/><path class="cls-2" d="M293.82,219.74A119.57,119.57,0,0,1,286.48,243"/><path class="cls-1" d="M300.11,221A4.48,4.48,0,0,1,297,222a2,2,0,0,1-1.64-1.92"/><path class="cls-1" d="M292.34,245.55c.14-.27-1-2-2-2.41a2.06,2.06,0,0,0-2.35.55"/><path class="cls-1" d="M297.49,247.79a6.55,6.55,0,0,1-3.54,3,9,9,0,0,1-2.28.56s.78.91.54,1.36-1.54.35-1.54.35a25.26,25.26,0,0,1,1.71,3.08c.77,1.68,1.39,3.69.73,4.73s-2.56,1.54-4.34,1.77a22.87,22.87,0,0,1-2.36.17c-.63,0-1,0-1,0s.88,1.12.58,1.51-1.7.13-1.7.13a9.17,9.17,0,0,1,.79,2.23,6.28,6.28,0,0,1-.6,4.62"/><path class="cls-1" d="M294,246.27c-1.45,2.42-5.32,1.83-6.49,4.17-.64,1.24-.12,2.52.39,3.82s1,2.61.32,3.8-2,1.46-3.38,1.7-2.67.48-3.46,1.68-.3,2.46.08,3.86.73,2.8,0,3.84"/><path class="cls-1" d="M289.2,260.26a2.12,2.12,0,0,1-.95-2.22,2.24,2.24,0,0,1,2.44-.26,1.63,1.63,0,0,1,.71,2A1.78,1.78,0,0,1,289.2,260.26Z"/><path class="cls-1" d="M286.07,258.62c-.83-.32-1.95-1.84-1.49-2.64s2.34-.63,3-.08a1.93,1.93,0,0,1,.64,2.13A2.15,2.15,0,0,1,286.07,258.62Z"/><path class="cls-1" d="M287.35,256.46c.74.4,1.13,1.1.87,1.56s-1.08.49-1.81.08-1.13-1.12-.87-1.57S286.61,256.05,287.35,256.46Z"/><path class="cls-1" d="M288.93,259.33a1,1,0,0,0,1.38-.15c.23-.39,0-.95-.57-1.25a1,1,0,0,0-1.38.16C288.14,258.47,288.39,259,288.93,259.33Z"/><path class="cls-2" d="M300.81,249.22a136.29,136.29,0,0,1-13.45,24.06"/><path class="cls-2" d="M286.49,243.05a120.67,120.67,0,0,1-11.9,21.33"/><path class="cls-1" d="M292.39,245.6a4.41,4.41,0,0,1-3.25.29,2,2,0,0,1-1.23-2.22"/><path class="cls-1" d="M279.82,268a4.12,4.12,0,0,0-1.43-2.74,2.07,2.07,0,0,0-2.43,0"/><path class="cls-1" d="M284.42,271.26a6.49,6.49,0,0,1-4,2.21,8.86,8.86,0,0,1-2.38.06s.59,1.06.26,1.45-1.57,0-1.57,0a25,25,0,0,1,1.07,3.37c.45,1.83.56,3.84-.25,4.76s-2.8,1-4.58.89a24.22,24.22,0,0,1-3.4-.56s.64,1.27.27,1.6-1.67-.21-1.67-.21a9.12,9.12,0,0,1,.33,2.35,6.36,6.36,0,0,1-1.53,4.4"/><path class="cls-1" d="M281.27,269.07c-1.88,2.09-5.54.73-7.19,2.77-1.72,2.19,1,5.52-.83,7.61-.92,1.06-2.28,1-3.64,1s-2.76-.11-3.75.94-.76,2.36-.67,3.81.13,2.86-.8,3.74"/><path class="cls-1" d="M273.8,281.82a2.14,2.14,0,0,1-.49-2.37,2.21,2.21,0,0,1,2.43.22,1.65,1.65,0,0,1,.3,2.13A1.77,1.77,0,0,1,273.8,281.82Z"/><path class="cls-1" d="M271.07,279.58c-.75-.48-1.55-2.2-.95-2.89s2.42-.15,3,.53a1.94,1.94,0,0,1,.21,2.21A2.11,2.11,0,0,1,271.07,279.58Z"/><path class="cls-1" d="M272.74,277.71c.64.54.89,1.31.54,1.71s-1.14.27-1.78-.28-.88-1.33-.54-1.72S272.09,277.16,272.74,277.71Z"/><path class="cls-1" d="M273.72,280.86a1,1,0,0,0,1.38.11,1,1,0,0,0-.32-1.34.86.86,0,1,0-1.06,1.23Z"/><path class="cls-2" d="M287.37,273.33a137.11,137.11,0,0,1-18,20.87"/><path class="cls-2" d="M274.6,264.41a122.8,122.8,0,0,1-15.94,18.51"/><path class="cls-1" d="M279.87,268.09a4.41,4.41,0,0,1-3.24-.36,2,2,0,0,1-.76-2.43"/><path class="cls-1" d="M263.05,287.54a4.17,4.17,0,0,0-.87-3,2,2,0,0,0-2.37-.43"/><path class="cls-1" d="M266.9,291.63a6.1,6.1,0,0,1-4.4,1.35,9.17,9.17,0,0,1-2.34-.42s.36,1.16,0,1.48-1.55-.26-1.55-.26a22.11,22.11,0,0,1,.38,3.51c0,1.83-.23,3.88-1.21,4.62s-2.92.46-4.68-.08a24.28,24.28,0,0,1-3.21-1.21s.38,1.38,0,1.63-1.6-.53-1.6-.53a6.67,6.67,0,0,1,0,.69,8.82,8.82,0,0,1-.18,1.67,6.65,6.65,0,0,1-2.38,4"/><path class="cls-1" d="M264.26,288.85a5.44,5.44,0,0,1-3.88.66c-1.39-.12-2.72-.24-3.72.62-2.08,1.85-.14,5.56-2.34,7.29s-5.29-1.25-7.62.43a2.87,2.87,0,0,0-1,1.55,12.36,12.36,0,0,0-.41,2c-.21,1.42-.44,2.84-1.52,3.53"/><path class="cls-1" d="M254.4,299.87a1.51,1.51,0,1,1,2.31-1.74,1.65,1.65,0,0,1-.12,2.15A1.75,1.75,0,0,1,254.4,299.87Z"/><path class="cls-1" d="M252.17,297.13c-.63-.62-1.08-2.47-.35-3s2.39.32,2.81,1.1a2,2,0,0,1-.23,2.23A2.09,2.09,0,0,1,252.17,297.13Z"/><path class="cls-1" d="M254.17,295.6c.52.67.61,1.47.2,1.8s-1.17.05-1.69-.63-.6-1.48-.19-1.79S253.65,294.94,254.17,295.6Z"/><path class="cls-1" d="M254.52,298.9a1,1,0,0,0,1.32.39,1,1,0,0,0-.05-1.39c-.38-.49-1-.66-1.32-.38A1,1,0,0,0,254.52,298.9Z"/><path class="cls-2" d="M269.39,294.25a136.83,136.83,0,0,1-21.8,16.85"/><path class="cls-2" d="M258.66,283a121,121,0,0,1-19.32,14.95"/><path class="cls-1" d="M263.08,287.61a4.35,4.35,0,0,1-3.08-1,2.1,2.1,0,0,1-.28-2.55"/><path class="cls-1" d="M242.72,303.31a4.29,4.29,0,0,0-.26-3.11c-.52-.81-1.72-1.21-2.23-.88"/><path class="cls-1" d="M245.68,308.09a6.17,6.17,0,0,1-4.6.42,9,9,0,0,1-2.2-.86s.12,1.21-.32,1.45-1.45-.56-1.45-.56,0,.43-.05,1.07a23.11,23.11,0,0,1-.31,2.41c-.34,1.8-1,3.77-2.09,4.31s-3-.21-4.59-1a23.16,23.16,0,0,1-2.89-1.82s.1,1.44-.37,1.6-1.46-.85-1.46-.85a8.4,8.4,0,0,1-.63,2.26,6.72,6.72,0,0,1-3.13,3.47"/><path class="cls-1" d="M243.65,304.84c-1.24.64-2.62.23-4-.16s-2.61-.76-3.76-.11-1.53,2-1.85,3.36-.66,2.69-1.9,3.32c-2.54,1.24-4.95-2.32-7.55-1.12-2.33,1-1.93,5.41-4.33,6.36"/><path class="cls-1" d="M231.77,313.65a2.18,2.18,0,0,1,.48-2.38,2.15,2.15,0,0,1,2.13,1.13,1.68,1.68,0,0,1-.54,2.1A1.74,1.74,0,0,1,231.77,313.65Z"/><path class="cls-1" d="M230.14,310.51c-.51-.74-.55-2.6.27-3s2.26.79,2.52,1.64a2,2,0,0,1-.66,2.15A2.05,2.05,0,0,1,230.14,310.51Z"/><path class="cls-1" d="M232.4,309.42c.38.76.31,1.57-.17,1.81s-1.15-.18-1.51-.94-.3-1.58.16-1.81S232,308.67,232.4,309.42Z"/><path class="cls-1" d="M232.08,312.74c.27.56.81.84,1.22.63a1,1,0,0,0,.22-1.37c-.27-.55-.82-.84-1.21-.64A1,1,0,0,0,232.08,312.74Z"/><path class="cls-2" d="M247.58,311.16a135.81,135.81,0,0,1-24.75,12.13"/><path class="cls-2" d="M239.34,297.93a120.46,120.46,0,0,1-21.92,10.77"/><path class="cls-1" d="M242.74,303.39a4.34,4.34,0,0,1-2.82-1.57,2.14,2.14,0,0,1,.23-2.57"/><path class="cls-1" d="M219.63,314.68a4.31,4.31,0,0,0,.38-3.11c-.35-.9-1.44-1.53-2-1.31"/><path class="cls-1" d="M221.56,320a6.43,6.43,0,0,1-4.59-.53,8.77,8.77,0,0,1-2-1.28s-.13,1.21-.61,1.36-1.32-.87-1.32-.87a23.78,23.78,0,0,1-1,3.34c-.69,1.71-1.73,3.51-2.92,3.82s-2.89-.82-4.28-2a24.7,24.7,0,0,1-2.46-2.36s-.2,1.43-.69,1.5-1.26-1.16-1.26-1.16a8.69,8.69,0,0,1-1.08,2.09,6.67,6.67,0,0,1-3.76,2.78"/><path class="cls-1" d="M220.23,316.36c-2.73.65-5-2.67-7.49-1.82-2.66.78-2.34,5-5,5.78s-4.38-3.27-7.17-2.63c-2.5.44-3,4.91-5.53,5.35"/><path class="cls-1" d="M206.81,322.55a2.09,2.09,0,0,1,1-2.2c.47-.13,1.59.57,1.85,1.53a1.71,1.71,0,0,1-1,2A1.83,1.83,0,0,1,206.81,322.55Z"/><path class="cls-1" d="M205.85,319.15c-.34-.83,0-2.67.88-2.89s2.06,1.21,2.14,2.1a2,2,0,0,1-1.08,2A2.15,2.15,0,0,1,205.85,319.15Z"/><path class="cls-1" d="M208.29,318.57c.22.81,0,1.59-.53,1.74s-1.1-.45-1.3-1.27,0-1.58.54-1.7S208.07,317.75,208.29,318.57Z"/><path class="cls-1" d="M207.3,321.73c.15.59.63,1,1.07.89a1,1,0,0,0,.5-1.3c-.16-.6-.64-1-1.06-.87S207.15,321.12,207.3,321.73Z"/><path class="cls-2" d="M222.81,323.34a134.6,134.6,0,0,1-26.7,6.86"/><path class="cls-2" d="M217.41,308.72a119,119,0,0,1-23.64,6.09"/><path class="cls-1" d="M219.64,314.75a4.35,4.35,0,0,1-2.46-2.14,2.09,2.09,0,0,1,.76-2.43"/><path class="cls-1" d="M194.72,321.12a4.3,4.3,0,0,0,1-3c-.16-.95-1.1-1.78-1.7-1.69"/><path class="cls-1" d="M195.54,326.68a6.6,6.6,0,0,1-4.39-1.47,8.42,8.42,0,0,1-1.67-1.64s-.37,1.17-.87,1.21-1.12-1.13-1.12-1.13a24,24,0,0,1-1.7,3.06c-1,1.53-2.4,3.1-3.63,3.15s-2.66-1.38-3.79-2.78a23.37,23.37,0,0,1-1.94-2.8s-.48,1.36-1,1.33-1-1.39-1-1.39a8.7,8.7,0,0,1-1.47,1.83,6.75,6.75,0,0,1-4.24,2"/><path class="cls-1" d="M195,322.89c-2.82.05-4.37-3.62-7-3.3-2.77.2-3.31,4.44-6.09,4.63s-3.63-4.08-6.5-4c-2.53-.06-3.91,4.21-6.49,4.14"/><path class="cls-1" d="M180.57,326.23a2.08,2.08,0,0,1,1.38-2c.49,0,1.45.88,1.51,1.88a1.69,1.69,0,0,1-1.33,1.72A1.84,1.84,0,0,1,180.57,326.23Z"/><path class="cls-1" d="M180.31,322.7c-.17-.88.53-2.62,1.45-2.65s1.78,1.61,1.67,2.5a2,2,0,0,1-1.46,1.72A2.2,2.2,0,0,1,180.31,322.7Z"/><path class="cls-1" d="M182.82,322.63c.05.84-.34,1.57-.86,1.6s-1-.67-1-1.51.36-1.54.87-1.55S182.77,321.78,182.82,322.63Z"/><path class="cls-1" d="M181.22,325.52c0,.62.41,1.11.86,1.1s.79-.56.75-1.18-.42-1.08-.86-1.06S181.19,324.9,181.22,325.52Z"/><path class="cls-2" d="M196.08,330.25a137.78,137.78,0,0,1-27.52,1.34"/><path class="cls-2" d="M193.75,314.84a122.33,122.33,0,0,1-24.42,1.2"/><path class="cls-1" d="M194.71,321.19a4.42,4.42,0,0,1-2-2.61,2,2,0,0,1,1.24-2.21"/><path class="cls-1" d="M169,322.41a4.31,4.31,0,0,0,1.57-2.72c0-1-.72-2-1.33-2"/><path class="cls-1" d="M168.71,328a6.58,6.58,0,0,1-4-2.31,9.06,9.06,0,0,1-1.31-1.95s-.59,1.07-1.09,1-.88-1.32-.88-1.32a22.52,22.52,0,0,1-2.28,2.65c-1.3,1.3-3,2.55-4.18,2.37s-2.34-1.89-3.16-3.48a22.7,22.7,0,0,1-1.34-3.14s-.75,1.24-1.22,1.11-.71-1.56-.71-1.56a8.75,8.75,0,0,1-1.81,1.5,6.7,6.7,0,0,1-4.55,1.08"/><path class="cls-1" d="M168.9,324.19c-2.77-.5-3.55-4.42-6.17-4.62s-4.12,3.69-6.89,3.33-2.74-4.72-5.57-5.23c-2.46-.57-4.67,3.35-7.18,2.75"/><path class="cls-1" d="M154.13,324.6a2.11,2.11,0,0,1,1.74-1.65,2.14,2.14,0,0,1,1.11,2.14,1.71,1.71,0,0,1-1.65,1.43A1.82,1.82,0,0,1,154.13,324.6Z"/><path class="cls-1" d="M154.58,321.09c0-.89,1-2.46,1.95-2.3s1.42,1.92,1.14,2.77a2,2,0,0,1-1.78,1.4A2.18,2.18,0,0,1,154.58,321.09Z"/><path class="cls-1" d="M157.05,321.52c-.12.84-.64,1.46-1.17,1.39s-.83-.84-.7-1.67.66-1.44,1.17-1.36S157.17,320.68,157.05,321.52Z"/><path class="cls-1" d="M154.9,324c-.09.61.19,1.17.63,1.24s.89-.39,1-1-.19-1.16-.63-1.21S155,323.42,154.9,324Z"/><path class="cls-2" d="M168.52,331.63a136.5,136.5,0,0,1-27.24-4.19"/><path class="cls-2" d="M169.32,316.06a120,120,0,0,1-24.15-3.69"/><path class="cls-1" d="M169,322.48a4.42,4.42,0,0,1-1.41-3,2,2,0,0,1,1.65-1.92"/><path class="cls-1" d="M143.57,318.54c.29.09,1.84-1.33,2.08-2.34a2,2,0,0,0-.9-2.22"/><path class="cls-1" d="M142.15,324a6.6,6.6,0,0,1-3.47-3.07,8.88,8.88,0,0,1-.89-2.17s-.8.94-1.28.77-.58-1.48-.58-1.48a23.27,23.27,0,0,1-2.77,2.14c-1.54,1-3.44,1.94-4.57,1.47s-1.92-2.32-2.41-4a23.35,23.35,0,0,1-.67-3.33s-1,1.05-1.41.81-.38-1.67-.38-1.67a9,9,0,0,1-2.08,1.11,6.46,6.46,0,0,1-4.67.12"/><path class="cls-1" d="M143.1,320.27c-2.61-1.07-2.59-5-5.1-5.78-2.63-.9-4.8,2.81-7.43,1.86s-1.74-5.13-4.38-6.25c-2.3-1.06-5.29,2.39-7.59,1.23"/><path class="cls-1" d="M128.56,317.67a2.08,2.08,0,0,1,2-1.26,2.21,2.21,0,0,1,.64,2.34,1.65,1.65,0,0,1-1.9,1A1.82,1.82,0,0,1,128.56,317.67Z"/><path class="cls-1" d="M129.7,314.33c.2-.87,1.52-2.21,2.38-1.87s1,2.18.55,3a2,2,0,0,1-2,1A2.19,2.19,0,0,1,129.7,314.33Z"/><path class="cls-1" d="M132,315.26c-.29.8-.93,1.32-1.42,1.11s-.65-1-.35-1.78.93-1.28,1.41-1.09S132.32,314.47,132,315.26Z"/><path class="cls-1" d="M129.43,317.27a1,1,0,0,0,.36,1.35c.42.17.94-.18,1.15-.77a1,1,0,0,0-.37-1.33C130.16,316.36,129.65,316.7,129.43,317.27Z"/><path class="cls-2" d="M141.23,327.47a135.79,135.79,0,0,1-25.83-9.63"/><path class="cls-2" d="M145.15,312.39a119.79,119.79,0,0,1-22.89-8.52"/><path class="cls-1" d="M143.53,318.61a4.51,4.51,0,0,1-.78-3.18,2,2,0,0,1,2-1.54"/><path class="cls-1" d="M119.45,309.59a4.11,4.11,0,0,0,2.5-1.84,2.09,2.09,0,0,0-.42-2.39"/><path class="cls-1" d="M117,314.62a6.52,6.52,0,0,1-2.78-3.68,8.18,8.18,0,0,1-.44-2.31s-1,.73-1.39.47-.27-1.55-.27-1.55a24.5,24.5,0,0,1-3.16,1.55,12.8,12.8,0,0,1-2.65.77,3,3,0,0,1-2.11-.28c-1-.66-1.42-2.63-1.55-4.42a20.7,20.7,0,0,1,0-3.42s-1.16.83-1.54.51,0-1.7,0-1.7a8.64,8.64,0,0,1-2.27.67,7.8,7.8,0,0,1-2.23.06,5.67,5.67,0,0,1-2.35-.89"/><path class="cls-1" d="M118.64,311.18c-1.17-.77-1.56-2.13-1.94-3.45s-.76-2.56-1.89-3.24-2.52-.24-3.84.2-2.65.89-3.81.12-1.35-2.11-1.52-3.46a10.21,10.21,0,0,0-.39-2,3,3,0,0,0-1.12-1.59c-2.06-1.48-5.68,1.3-7.68-.32"/><path class="cls-1" d="M104.91,305.71a2.1,2.1,0,0,1,2.27-.83,2.22,2.22,0,0,1,.14,2.44,1.63,1.63,0,0,1-2,.61A1.78,1.78,0,0,1,104.91,305.71Z"/><path class="cls-1" d="M106.71,302.67c.37-.81,1.94-1.86,2.72-1.36s.5,2.38-.08,3.05a2,2,0,0,1-2.16.53A2.16,2.16,0,0,1,106.71,302.67Z"/><path class="cls-1" d="M108.81,304.05c-.44.73-1.16,1.08-1.61.79s-.44-1.09,0-1.81,1.17-1.06,1.61-.79S109.25,303.33,108.81,304.05Z"/><path class="cls-1" d="M105.85,305.49a1,1,0,0,0,.09,1.39c.38.24,1,0,1.28-.52a1,1,0,0,0-.09-1.38A1,1,0,0,0,105.85,305.49Z"/><path class="cls-2" d="M115.35,317.86A136.34,136.34,0,0,1,92,303.21"/><path class="cls-2" d="M122.24,303.88a121,121,0,0,1-20.7-13"/><path class="cls-1" d="M119.4,309.64a4.37,4.37,0,0,1-.13-3.26,2,2,0,0,1,2.28-1.11"/><path class="cls-1" d="M97.63,296a4.17,4.17,0,0,0,2.81-1.29,2.05,2.05,0,0,0,.08-2.43"/><path class="cls-1" d="M94.17,300.38a6.45,6.45,0,0,1-2-4.14,9.18,9.18,0,0,1,.07-2.38s-1.09.53-1.46.19,0-1.58,0-1.58a23.71,23.71,0,0,1-3.41.9c-1.84.35-3.87.36-4.75-.49s-.89-2.83-.65-4.62a24.1,24.1,0,0,1,.73-3.37s-1.31.58-1.62.2.3-1.66.3-1.66a9.14,9.14,0,0,1-2.37.21,6.47,6.47,0,0,1-4.31-1.75"/><path class="cls-1" d="M96.52,297.35c-2-2-.45-5.58-2.41-7.33-1.06-.91-2.43-.72-3.82-.54s-2.73.28-3.74-.67-.92-2.32-.82-3.67.25-2.76-.75-3.8-2.34-.87-3.77-.87-2.86,0-3.69-1"/><path class="cls-1" d="M84.16,289.25a2.15,2.15,0,0,1,2.39-.38,2.2,2.2,0,0,1-.34,2.41,1.64,1.64,0,0,1-2.14.2A1.75,1.75,0,0,1,84.16,289.25Z"/><path class="cls-1" d="M86.53,286.63c.52-.72,2.27-1.44,2.94-.8s0,2.42-.68,3a2,2,0,0,1-2.22.1A2.13,2.13,0,0,1,86.53,286.63Z"/><path class="cls-1" d="M88.32,288.39c-.57.62-1.35.82-1.74.46s-.21-1.16.37-1.77,1.37-.81,1.75-.46S88.9,287.77,88.32,288.39Z"/><path class="cls-1" d="M85.13,289.22a.85.85,0,1,0,1.17,1.11,1,1,0,0,0,.18-1.37A1,1,0,0,0,85.13,289.22Z"/><path class="cls-2" d="M92,303.23a137.94,137.94,0,0,1-19.93-19"/><path class="cls-2" d="M101.51,290.92a122.08,122.08,0,0,1-17.69-16.85"/><path class="cls-1" d="M97.57,296a4.38,4.38,0,0,1,.52-3.2,2.06,2.06,0,0,1,2.47-.65"/><path class="cls-1" d="M79,278.22a4.2,4.2,0,0,0,3-.72,2,2,0,0,0,.55-2.35"/><path class="cls-1" d="M74.71,281.86a5.66,5.66,0,0,1-1-2.25,7.3,7.3,0,0,1-.08-2.22,8.94,8.94,0,0,1,.53-2.31s-1.18.31-1.48-.1.34-1.52.34-1.52-.42.06-1.07.11a20.24,20.24,0,0,1-2.45.08c-1.83-.06-3.86-.42-4.56-1.43a3.2,3.2,0,0,1-.33-2.05,12.79,12.79,0,0,1,.65-2.63,24.68,24.68,0,0,1,1.37-3.14s-1.4.31-1.63-.13.61-1.56.61-1.56a7.87,7.87,0,0,1-2.34-.28,6.73,6.73,0,0,1-3.89-2.57"/><path class="cls-1" d="M77.62,279.37c-1.63-2.29.72-5.6-.9-7.66s-5.53-.44-7.17-2.7a2.81,2.81,0,0,1-.49-1.82,10.19,10.19,0,0,1,.44-2c.4-1.32.79-2.64,0-3.85s-2.1-1.33-3.5-1.62-2.81-.58-3.45-1.69"/><path class="cls-1" d="M67.11,269a2.15,2.15,0,0,1,2.43.1,2.17,2.17,0,0,1-.81,2.29,1.67,1.67,0,0,1-2.15-.23A1.74,1.74,0,0,1,67.11,269Z"/><path class="cls-1" d="M70,266.88c.65-.61,2.52-1,3.05-.21s-.44,2.37-1.24,2.76a2,2,0,0,1-2.22-.34A2.09,2.09,0,0,1,70,266.88Z"/><path class="cls-1" d="M71.38,269c-.69.49-1.5.53-1.8.1s0-1.17.71-1.65,1.5-.52,1.8-.1S72.07,268.46,71.38,269Z"/><path class="cls-1" d="M68.07,269.13a1,1,0,0,0-.45,1.3,1,1,0,0,0,1.39,0,1,1,0,0,0,.45-1.3A1,1,0,0,0,68.07,269.13Z"/><path class="cls-2" d="M72,284.21a137.92,137.92,0,0,1-15.73-22.62"/><path class="cls-2" d="M83.79,274.07a121.26,121.26,0,0,1-14-20"/><path class="cls-1" d="M78.92,278.25a4.27,4.27,0,0,1,1.13-3,2.09,2.09,0,0,1,2.56-.15"/><path class="cls-1" d="M64.26,257.12a4.3,4.3,0,0,0,3.12-.1c.83-.48,1.3-1.66,1-2.19"/><path class="cls-1" d="M59.34,259.83a6.13,6.13,0,0,1-.18-4.61,8.73,8.73,0,0,1,1-2.15s-1.22.06-1.44-.4.63-1.42.63-1.42a23.2,23.2,0,0,1-3.44-.54c-1.79-.42-3.73-1.18-4.21-2.3s.36-3,1.27-4.53a23.69,23.69,0,0,1,2-2.79s-1.44,0-1.58-.45.93-1.42.93-1.42a8.76,8.76,0,0,1-2.22-.75,6.73,6.73,0,0,1-3.31-3.3"/><path class="cls-1" d="M62.69,258c-.58-1.27-.08-2.64.37-3.94s.88-2.56.28-3.74c-1.22-2.49-5.31-1.55-6.47-4.09s2.56-4.82,1.5-7.48c-.85-2.39-5.31-2.21-6.14-4.65"/><path class="cls-1" d="M54.5,245.66a2.15,2.15,0,0,1,2.34.6c.21.44-.33,1.66-1.24,2.07a1.7,1.7,0,0,1-2.07-.65A1.76,1.76,0,0,1,54.5,245.66Z"/><path class="cls-1" d="M57.72,244.18c.77-.46,2.61-.4,3,.43s-.9,2.23-1.76,2.44a2,2,0,0,1-2.12-.77A2.11,2.11,0,0,1,57.72,244.18Z"/><path class="cls-1" d="M58.68,246.5c-.77.35-1.58.23-1.8-.25s.25-1.15,1-1.47,1.57-.21,1.79.26S59.46,246.16,58.68,246.5Z"/><path class="cls-1" d="M55.39,246c-.58.24-.89.77-.7,1.18a1,1,0,0,0,1.36.29c.57-.24.88-.77.7-1.17A1,1,0,0,0,55.39,246Z"/><path class="cls-2" d="M56.18,261.58a135,135,0,0,1-10.86-25.34"/><path class="cls-2" d="M69.8,254a120.54,120.54,0,0,1-9.63-22.44"/><path class="cls-1" d="M64.19,257.13a4.23,4.23,0,0,1,1.72-2.73,2.11,2.11,0,0,1,2.54.37"/><path class="cls-1" d="M54.08,233.48a4.29,4.29,0,0,0,3.09.54c.92-.31,1.6-1.36,1.41-1.94"/><path class="cls-1" d="M48.72,235.15a6.52,6.52,0,0,1,.77-4.57,8.62,8.62,0,0,1,1.38-1.9s-1.21-.19-1.34-.68.94-1.27.94-1.27a23.35,23.35,0,0,1-3.27-1.22c-1.67-.78-3.43-1.91-3.67-3.11s1-2.85,2.18-4.18a23.66,23.66,0,0,1,2.47-2.33s-1.42-.27-1.45-.77,1.21-1.19,1.21-1.19a9,9,0,0,1-2-1.19,6.76,6.76,0,0,1-2.6-3.9"/><path class="cls-1" d="M52.37,234c-.5-2.77,2.92-4.87,2.2-7.39-.62-2.7-4.89-2.59-5.5-5.32s3.48-4.2,3-7c-.32-2.52-4.76-3.24-5.07-5.8"/><path class="cls-1" d="M46.88,220.28A2.08,2.08,0,0,1,49,221.35c.1.47-.66,1.56-1.63,1.77a1.69,1.69,0,0,1-1.9-1.05A1.82,1.82,0,0,1,46.88,220.28Z"/><path class="cls-1" d="M50.33,219.49c.84-.3,2.67.12,2.83,1s-1.31,2-2.21,2A2,2,0,0,1,49,221.37,2.18,2.18,0,0,1,50.33,219.49Z"/><path class="cls-1" d="M50.78,222c-.83.17-1.6-.1-1.71-.62s.5-1.07,1.33-1.24,1.58.12,1.67.63S51.61,221.78,50.78,222Z"/><path class="cls-1" d="M47.68,220.81c-.61.12-1,.58-1,1s.67.69,1.27.56,1-.58.92-1S48.29,220.69,47.68,220.81Z"/><path class="cls-2" d="M45.27,236.22a135.51,135.51,0,0,1-5.49-27"/><path class="cls-2" d="M60.14,231.57a119,119,0,0,1-4.87-23.93"/><path class="cls-1" d="M54,233.49c-.11-.28,1.22-2,2.27-2.35a2,2,0,0,1,2.38.89"/><path class="cls-1" d="M48.92,208.27a4.27,4.27,0,0,0,2.92,1.15c1-.11,1.83-1,1.77-1.61"/><path class="cls-1" d="M43.33,208.82A6.64,6.64,0,0,1,45,204.5a8.72,8.72,0,0,1,1.73-1.58s-1.15-.43-1.17-.93,1.19-1.06,1.19-1.06a24.46,24.46,0,0,1-3-1.86c-1.48-1.09-3-2.55-3-3.77s1.51-2.6,3-3.66a23.65,23.65,0,0,1,2.89-1.79s-1.33-.55-1.27-1,1.42-.93,1.42-.93a8.83,8.83,0,0,1-1.75-1.57A6.79,6.79,0,0,1,43.32,182"/><path class="cls-1" d="M47.14,208.43c.1-2.81,3.83-4.17,3.65-6.79-.06-2.78-4.27-3.52-4.33-6.32s4.27-3.42,4.34-6.29c.18-2.52-4-4.11-3.81-6.68"/><path class="cls-1" d="M44.53,193.89a2.07,2.07,0,0,1,1.89,1.48c0,.48-1,1.39-2,1.41a1.7,1.7,0,0,1-1.66-1.41A1.84,1.84,0,0,1,44.53,193.89Z"/><path class="cls-1" d="M48.07,193.8c.88-.12,2.59.66,2.57,1.59s-1.69,1.69-2.58,1.54a2,2,0,0,1-1.64-1.54A2.18,2.18,0,0,1,48.07,193.8Z"/><path class="cls-1" d="M48,196.32c-.84,0-1.54-.42-1.55-.95s.71-1,1.56-1,1.52.44,1.5,1S48.86,196.31,48,196.32Z"/><path class="cls-1" d="M45.21,194.57c-.62,0-1.13.36-1.14.81s.52.81,1.13.81,1.11-.37,1.1-.81S45.82,194.57,45.21,194.57Z"/><path class="cls-2" d="M39.74,209.17a137.1,137.1,0,0,1,0-27.55"/><path class="cls-2" d="M55.24,207.63a121.81,121.81,0,0,1,0-24.45"/><path class="cls-1" d="M48.85,208.26a4.42,4.42,0,0,1,2.71-1.83,2,2,0,0,1,2.14,1.34"/><path class="cls-1" d="M48.92,182.53a4.35,4.35,0,0,0,2.64,1.71c.95.08,2-.62,2-1.23"/><path class="cls-1" d="M43.33,182a6.62,6.62,0,0,1,2.51-3.89,8.85,8.85,0,0,1,2-1.21s-1-.64-1-1.14,1.37-.81,1.37-.81a22.8,22.8,0,0,1-2.53-2.41c-1.24-1.37-2.41-3.09-2.16-4.29s2-2.24,3.64-3a24,24,0,0,1,3.2-1.18s-1.21-.8-1-1.27,1.59-.63,1.59-.63a8.51,8.51,0,0,1-1.4-1.88,6.68,6.68,0,0,1-.85-4.6"/><path class="cls-1" d="M47.14,182.34c.65-2.75,4.6-3.33,4.93-5.93.49-2.74-3.47-4.31-3-7.06s4.85-2.49,5.5-5.29c.7-2.43-3.11-4.84-2.37-7.31"/><path class="cls-1" d="M47.49,167.56A2.08,2.08,0,0,1,49,169.39a2.11,2.11,0,0,1-2.19,1,1.7,1.7,0,0,1-1.34-1.72A1.82,1.82,0,0,1,47.49,167.56Z"/><path class="cls-1" d="M51,168.19c.89.05,2.41,1.16,2.2,2.06s-2,1.32-2.83,1a2,2,0,0,1-1.3-1.84A2.17,2.17,0,0,1,51,168.19Z"/><path class="cls-1" d="M50.41,170.64c-.83-.17-1.42-.72-1.33-1.24s.89-.79,1.71-.62,1.41.73,1.29,1.23S51.25,170.8,50.41,170.64Z"/><path class="cls-1" d="M48,168.36a1,1,0,0,0-1.28.57c-.08.44.35.9,1,1s1.16-.14,1.24-.57S48.62,168.49,48,168.36Z"/><path class="cls-2" d="M39.74,181.58a134.64,134.64,0,0,1,5.57-27"/><path class="cls-2" d="M55.24,183.16a120.26,120.26,0,0,1,4.92-23.92"/><path class="cls-1" d="M48.85,182.51a4.44,4.44,0,0,1,3-1.26A2,2,0,0,1,53.7,183"/><path class="cls-1" d="M54.08,157.32c-.11.28,1.23,1.91,2.23,2.2a2,2,0,0,0,2.26-.78"/><path class="cls-1" d="M48.73,155.62a6.57,6.57,0,0,1,3.23-3.3,8.43,8.43,0,0,1,2.21-.78s-.9-.85-.69-1.31,1.5-.51,1.5-.51a23.3,23.3,0,0,1-2-2.88c-.92-1.59-1.77-3.54-1.23-4.64s2.41-1.79,4.15-2.19a23,23,0,0,1,3.36-.51s-1-1-.73-1.44,1.68-.3,1.68-.3a8.8,8.8,0,0,1-1-2.13,6.41,6.41,0,0,1,.12-4.67"/><path class="cls-1" d="M52.38,156.77c1.2-2.55,5.14-2.34,6-4.81,1-2.57-2.58-4.94-1.48-7.5s5.2-1.49,6.47-4.06c.58-1.14.05-2.47-.46-3.82s-1-2.73-.39-3.83"/><path class="cls-1" d="M55.71,142.37a2.1,2.1,0,0,1,1.16,2.11,2.22,2.22,0,0,1-2.37.52,1.64,1.64,0,0,1-.94-1.95A1.81,1.81,0,0,1,55.71,142.37Z"/><path class="cls-1" d="M59,143.69c.86.24,2.13,1.63,1.75,2.47s-2.24.88-3,.4a2,2,0,0,1-.88-2.06A2.16,2.16,0,0,1,59,143.69Z"/><path class="cls-1" d="M57.93,146c-.78-.33-1.24-1-1-1.47s1-.6,1.8-.26,1.23,1,1,1.47S58.71,146.29,57.93,146Z"/><path class="cls-1" d="M56.07,143.27a1,1,0,0,0-1.36.29c-.19.41.12.94.69,1.18a1,1,0,0,0,1.36-.29C56.94,144,56.63,143.51,56.07,143.27Z"/><path class="cls-2" d="M45.28,154.53a135.32,135.32,0,0,1,10.94-25.3"/><path class="cls-2" d="M60.15,159.21a120.52,120.52,0,0,1,9.67-22.42"/><path class="cls-1" d="M54,157.28a4.47,4.47,0,0,1,3.21-.62,2,2,0,0,1,1.44,2.08"/><path class="cls-1" d="M64.25,133.69a4.18,4.18,0,0,0,1.7,2.59,2.08,2.08,0,0,0,2.41-.3"/><path class="cls-1" d="M59.35,130.94a6.55,6.55,0,0,1,3.81-2.6A8.14,8.14,0,0,1,65.5,128s-.68-1-.4-1.41,1.56-.2,1.56-.2a24.09,24.09,0,0,1-1.39-3.23,12.34,12.34,0,0,1-.64-2.69,3.16,3.16,0,0,1,.39-2.09c.71-1,2.7-1.28,4.49-1.33a18.93,18.93,0,0,1,2.38.09c.64,0,1,.11,1,.11s-.77-1.2-.43-1.56,1.69,0,1.69,0a9.11,9.11,0,0,1-.55-2.3,7,7,0,0,1,.06-2.23,5.9,5.9,0,0,1,1-2.3"/><path class="cls-1" d="M62.7,132.8c.83-1.13,2.21-1.45,3.54-1.76s2.61-.62,3.34-1.72.36-2.51,0-3.85-.73-2.68.08-3.81c1.66-2.28,5.35-.44,7.15-2.67,1.57-2-1-5.74.71-7.66"/><path class="cls-1" d="M68.86,119.37a2.13,2.13,0,0,1,.72,2.3,2.19,2.19,0,0,1-2.44,0,1.63,1.63,0,0,1-.52-2.08A1.8,1.8,0,0,1,68.86,119.37Z"/><path class="cls-1" d="M71.8,121.32c.8.4,1.76,2,1.23,2.78s-2.4.39-3-.23a1.93,1.93,0,0,1-.42-2.18A2.12,2.12,0,0,1,71.8,121.32Z"/><path class="cls-1" d="M70.32,123.35c-.7-.48-1-1.22-.71-1.65s1.12-.38,1.81.11,1,1.22.7,1.64S71,123.83,70.32,123.35Z"/><path class="cls-1" d="M69,120.32a1,1,0,0,0-1.39,0,1,1,0,0,0,.45,1.3,1,1,0,0,0,1.39,0C69.74,121.26,69.53,120.68,69,120.32Z"/><path class="cls-2" d="M56.2,129.18A136.64,136.64,0,0,1,72,106.61"/><path class="cls-2" d="M69.81,136.77a121.84,121.84,0,0,1,14-20"/><path class="cls-1" d="M64.2,133.64a4.42,4.42,0,0,1,3.26,0,2,2,0,0,1,1,2.34"/><path class="cls-1" d="M79,112.59a4.11,4.11,0,0,0,1.15,2.88,2,2,0,0,0,2.41.19"/><path class="cls-1" d="M74.73,108.91A6.31,6.31,0,0,1,79,107.12a9,9,0,0,1,2.37.18s-.48-1.11-.12-1.47,1.57.11,1.57.11a24,24,0,0,1-.73-3.46c-.24-1.83-.17-3.87.73-4.71s2.86-.76,4.66-.41a24.26,24.26,0,0,1,3.32.9s-.52-1.34-.12-1.63S92.3,97,92.3,97a8.79,8.79,0,0,1-.1-2.38,6.58,6.58,0,0,1,2-4.21"/><path class="cls-1" d="M77.63,111.41c1-1,2.44-1,3.8-1s2.73,0,3.64-1,.84-2.4.74-3.79-.15-2.74.85-3.7,2.35-.82,3.72-.63,2.73.39,3.82-.56c1.9-1.68.2-5.77,2.23-7.36"/><path class="cls-1" d="M86.34,99.47a2.14,2.14,0,0,1,.26,2.41,2.18,2.18,0,0,1-2.39-.46,1.65,1.65,0,0,1-.09-2.15A1.75,1.75,0,0,1,86.34,99.47Z"/><path class="cls-1" d="M88.84,102c.69.55,1.32,2.34.65,3s-2.42-.09-2.92-.82a2,2,0,0,1,0-2.24A2.11,2.11,0,0,1,88.84,102Z"/><path class="cls-1" d="M87,103.68c-.59-.61-.76-1.4-.38-1.77s1.17-.16,1.75.46.74,1.41.37,1.76S87.58,104.28,87,103.68Z"/><path class="cls-1" d="M86.33,100.44a.85.85,0,1,0,.18,1.37A1,1,0,0,0,86.33,100.44Z"/><path class="cls-2" d="M72,106.55a136.87,136.87,0,0,1,20-19"/><path class="cls-2" d="M83.8,116.72A122.06,122.06,0,0,1,101.52,99.9"/><path class="cls-1" d="M78.94,112.53a4.33,4.33,0,0,1,3.17.67,2.07,2.07,0,0,1,.52,2.5"/><path class="cls-1" d="M97.62,94.86a4.24,4.24,0,0,0,.56,3.06c.6.75,1.84,1,2.32.66"/><path class="cls-1" d="M94.19,90.4a5.81,5.81,0,0,1,2.31-.92,7.79,7.79,0,0,1,2.22,0,9,9,0,0,1,2.28.65s-.25-1.19.17-1.48,1.51.42,1.51.42a21.29,21.29,0,0,1,0-3.52c.15-1.82.61-3.84,1.65-4.48s3-.13,4.66.55a23.55,23.55,0,0,1,3.07,1.53s-.24-1.42.2-1.63,1.54.69,1.54.69a8.08,8.08,0,0,1,.4-2.31A6.68,6.68,0,0,1,117,76.17"/><path class="cls-1" d="M96.54,93.43c2.36-1.51,5.57,1,7.69-.51a3.05,3.05,0,0,0,1.1-1.58,10,10,0,0,0,.4-2c.19-1.36.39-2.73,1.56-3.48s2.48-.31,3.78.15,2.6.92,3.85.2c1.09-.66,1.44-2,1.79-3.41s.73-2.78,1.87-3.36"/><path class="cls-1" d="M107.46,83.46a2.19,2.19,0,0,1-.23,2.43A2.17,2.17,0,0,1,105,85a1.68,1.68,0,0,1,.33-2.14A1.76,1.76,0,0,1,107.46,83.46Z"/><path class="cls-1" d="M109.4,86.41c.57.68.83,2.57,0,3.06s-2.34-.55-2.68-1.37a2,2,0,0,1,.45-2.2A2.06,2.06,0,0,1,109.4,86.41Z"/><path class="cls-1" d="M107.26,87.73c-.45-.71-.46-1.52,0-1.81s1.17.07,1.61.79.45,1.54,0,1.81S107.72,88.45,107.26,87.73Z"/><path class="cls-1" d="M107.25,84.41c-.32-.53-.89-.76-1.27-.51a1,1,0,0,0-.09,1.38c.33.53.9.76,1.27.52A1,1,0,0,0,107.25,84.41Z"/><path class="cls-2" d="M92,87.54A137.12,137.12,0,0,1,115.38,73"/><path class="cls-2" d="M101.52,99.87a121,121,0,0,1,20.73-12.93"/><path class="cls-1" d="M97.59,94.79a4.28,4.28,0,0,1,3,1.28,2.11,2.11,0,0,1,0,2.57"/><path class="cls-1" d="M119.44,81.22a4.24,4.24,0,0,0-.06,3.12c.44.86,1.58,1.38,2.13,1.1"/><path class="cls-1" d="M117,76.16a6.26,6.26,0,0,1,4.62.06,9,9,0,0,1,2.09,1.08s0-1.22.47-1.42,1.39.71,1.39.71a24.67,24.67,0,0,1,.71-3.41c.52-1.77,1.37-3.67,2.52-4.1s3,.52,4.46,1.51a23.64,23.64,0,0,1,2.68,2.1s.06-1.44.54-1.56,1.36,1,1.36,1a9,9,0,0,1,.87-2.19,6.78,6.78,0,0,1,3.46-3.15"/><path class="cls-1" d="M118.67,79.6c2.64-1,5.25,2.15,7.63,1.05,2.56-1.08,1.82-5.22,4.42-6.26s4.68,2.81,7.39,1.88c2.43-.71,2.48-5.19,5-5.89"/><path class="cls-1" d="M131.38,72.06a2.12,2.12,0,0,1-.72,2.3c-.45.18-1.64-.41-2-1.34a1.69,1.69,0,0,1,.75-2A1.77,1.77,0,0,1,131.38,72.06Z"/><path class="cls-1" d="M132.69,75.35c.43.8.27,2.64-.58,3s-2.18-1-2.35-1.88a2,2,0,0,1,.88-2.08A2.12,2.12,0,0,1,132.69,75.35Z"/><path class="cls-1" d="M130.32,76.19c-.3-.79-.14-1.59.35-1.79s1.13.32,1.42,1.12.12,1.56-.36,1.76S130.62,77,130.32,76.19Z"/><path class="cls-1" d="M131,72.93c-.21-.58-.73-.94-1.15-.77a1,1,0,0,0-.36,1.35c.22.58.73.91,1.14.75A1,1,0,0,0,131,72.93Z"/><path class="cls-2" d="M115.39,72.92a135.49,135.49,0,0,1,25.87-9.56"/><path class="cls-2" d="M122.25,86.91a120.42,120.42,0,0,1,22.9-8.48"/><path class="cls-1" d="M119.42,81.14A4.25,4.25,0,0,1,122.07,83a2.1,2.1,0,0,1-.5,2.51"/><path class="cls-1" d="M143.56,72.26a4.31,4.31,0,0,0-.69,3.06c.25.93,1.27,1.66,1.86,1.5"/><path class="cls-1" d="M142.17,66.81a6.61,6.61,0,0,1,4.52,1,8.66,8.66,0,0,1,1.83,1.47s.25-1.19.74-1.3,1.23,1,1.23,1a23.28,23.28,0,0,1,1.39-3.22c.86-1.63,2.07-3.33,3.29-3.5s2.79,1.1,4.06,2.38a24.12,24.12,0,0,1,2.21,2.59s.34-1.4.83-1.41,1.14,1.28,1.14,1.28a8.73,8.73,0,0,1,1.28-2,6.72,6.72,0,0,1,4-2.39"/><path class="cls-1" d="M143.13,70.52c2.8-.34,4.71,3.16,7.27,2.58,2.73-.48,2.84-4.76,5.59-5.23s4,3.69,6.87,3.35c2.52-.19,3.47-4.59,6-4.77"/><path class="cls-1" d="M157.12,65.75a2.11,2.11,0,0,1-1.18,2.09c-.48.07-1.53-.74-1.69-1.72a1.7,1.7,0,0,1,1.15-1.85A1.83,1.83,0,0,1,157.12,65.75Z"/><path class="cls-1" d="M157.73,69.23c.26.85-.26,2.66-1.18,2.78s-1.92-1.42-1.91-2.32a2,2,0,0,1,1.28-1.85A2.17,2.17,0,0,1,157.73,69.23Z"/><path class="cls-1" d="M155.24,69.55c-.13-.83.18-1.59.7-1.67s1.05.55,1.17,1.39-.2,1.57-.71,1.64S155.37,70.39,155.24,69.55Z"/><path class="cls-1" d="M156.55,66.52c-.09-.62-.53-1.07-1-1s-.72.64-.63,1.24.53,1,1,1S156.63,67.13,156.55,66.52Z"/><path class="cls-2" d="M141.28,63.31a136.56,136.56,0,0,1,27.26-4.1"/><path class="cls-2" d="M145.16,78.41a120.18,120.18,0,0,1,24.15-3.65"/><path class="cls-1" d="M143.56,72.18a4.49,4.49,0,0,1,2.23,2.4,2,2,0,0,1-1,2.32"/><path class="cls-1" d="M169,68.39a4.29,4.29,0,0,0-1.29,2.86c.06,1,.91,1.88,1.52,1.84"/><path class="cls-1" d="M168.74,62.78A6.6,6.6,0,0,1,173,64.67a9.05,9.05,0,0,1,1.5,1.81s.48-1.12,1-1.12,1,1.23,1,1.23a24.22,24.22,0,0,1,2-2.87c1.17-1.42,2.69-2.84,3.92-2.78s2.51,1.64,3.5,3.15a24.24,24.24,0,0,1,1.65,3s.61-1.3,1.1-1.22.86,1.47.86,1.47a8.85,8.85,0,0,1,1.65-1.67,6.82,6.82,0,0,1,4.42-1.54"/><path class="cls-1" d="M168.93,66.6c2.81.24,4,4.05,6.6,4,2.78.07,3.74-4.08,6.53-4s3.2,4.43,6.06,4.64c2.52.31,4.32-3.79,6.87-3.46"/><path class="cls-1" d="M183.59,64.72A2.1,2.1,0,0,1,182,66.53c-.49,0-1.35-1-1.31-2a1.7,1.7,0,0,1,1.49-1.59A1.83,1.83,0,0,1,183.59,64.72Z"/><path class="cls-1" d="M183.5,68.25c.07.89-.79,2.56-1.71,2.49s-1.61-1.77-1.42-2.64A2.06,2.06,0,0,1,182,66.53,2.18,2.18,0,0,1,183.5,68.25Z"/><path class="cls-1" d="M181,68.08c0-.85.49-1.52,1-1.51s.92.76.87,1.6-.51,1.5-1,1.46S181,68.93,181,68.08Z"/><path class="cls-1" d="M182.88,65.36c0-.62-.31-1.15-.76-1.18s-.83.48-.86,1.1.31,1.13.75,1.14S182.84,66,182.88,65.36Z"/><path class="cls-2" d="M168.57,59.17a137.65,137.65,0,0,1,27.51,1.42"/><path class="cls-2" d="M169.33,74.73A122.39,122.39,0,0,1,193.75,76"/><path class="cls-1" d="M169,68.32a4.49,4.49,0,0,1,1.7,2.79,2,2,0,0,1-1.46,2.08"/><path class="cls-1" d="M194.71,69.68a4.3,4.3,0,0,0-1.84,2.54c-.13,1,.52,2,1.13,2.11"/><path class="cls-1" d="M195.57,64.12a6.55,6.55,0,0,1,3.76,2.71,8.8,8.8,0,0,1,1.11,2.07s.69-1,1.19-.91.73,1.41.73,1.41A24.23,24.23,0,0,1,204.9,67c1.43-1.16,3.22-2.25,4.4-1.93s2.14,2.12,2.8,3.79a24.24,24.24,0,0,1,1,3.25s.87-1.17,1.32-1,.55,1.62.55,1.62a8.64,8.64,0,0,1,2-1.3,6.58,6.58,0,0,1,4.64-.61"/><path class="cls-1" d="M195,67.91c2.7.79,3.09,4.76,5.67,5.22,2.7.63,4.47-3.26,7.19-2.61s2.25,5,5,5.78c2.4.82,5-2.88,7.43-2"/><path class="cls-1" d="M209.73,69a2.08,2.08,0,0,1-1.9,1.46,2.17,2.17,0,0,1-.88-2.25A1.69,1.69,0,0,1,208.73,67,1.8,1.8,0,0,1,209.73,69Z"/><path class="cls-1" d="M208.93,72.45c-.1.89-1.28,2.35-2.17,2.1s-1.22-2.06-.85-2.88a2,2,0,0,1,1.9-1.21A2.16,2.16,0,0,1,208.93,72.45Z"/><path class="cls-1" d="M206.51,71.77c.21-.82.79-1.4,1.31-1.26s.74.92.52,1.74-.79,1.36-1.29,1.22S206.31,72.59,206.51,71.77Z"/><path class="cls-1" d="M208.91,69.49a1,1,0,0,0-.5-1.3c-.44-.12-.92.29-1.07.89a1,1,0,0,0,.51,1.27C208.27,70.47,208.75,70.09,208.91,69.49Z"/><path class="cls-2" d="M196.12,60.55a135.24,135.24,0,0,1,26.69,7"/><path class="cls-2" d="M193.77,76a119.7,119.7,0,0,1,23.63,6.13"/><path class="cls-1" d="M194.74,69.61a4.45,4.45,0,0,1,1.1,3.08A2,2,0,0,1,194,74.43"/><path class="cls-1" d="M219.62,76.12c-.27-.14-2,1.12-2.31,2.1a2,2,0,0,0,.67,2.31"/><path class="cls-1" d="M221.59,70.86a6.55,6.55,0,0,1,3.14,3.39,9,9,0,0,1,.67,2.25s.88-.85,1.34-.62.43,1.52.43,1.52a23.39,23.39,0,0,1,3-1.85c1.63-.85,3.62-1.59,4.69-1s1.67,2.49,2,4.25a21.57,21.57,0,0,1,.29,2.35c0,.62,0,1,0,1s1.07-.94,1.48-.65.2,1.69.2,1.69a9,9,0,0,1,2.19-.9,6.32,6.32,0,0,1,4.65.36"/><path class="cls-1" d="M220.26,74.45c2.49,1.33,2.08,5.23,4.49,6.27s5.08-2.35,7.57-1.1c1.25.64,1.56,2,1.87,3.3s.62,2.63,1.86,3.37,2.47.17,3.84-.28,2.77-.89,3.84-.18"/><path class="cls-1" d="M234.47,78.51a2.11,2.11,0,0,1-2.16,1,2.22,2.22,0,0,1-.39-2.41,1.63,1.63,0,0,1,2-.83A1.82,1.82,0,0,1,234.47,78.51Z"/><path class="cls-1" d="M233,81.71c-.28.85-1.74,2.05-2.56,1.63s-.76-2.3-.24-3a1.94,1.94,0,0,1,2.1-.76A2.15,2.15,0,0,1,233,81.71Z"/><path class="cls-1" d="M230.77,80.54c.36-.76,1-1.19,1.51-1s.55,1,.17,1.81-1.06,1.18-1.52.94S230.4,81.3,230.77,80.54Z"/><path class="cls-1" d="M233.56,78.82a1,1,0,0,0-.23-1.38c-.4-.2-.94.08-1.21.64a1,1,0,0,0,.23,1.37C232.74,79.65,233.28,79.37,233.56,78.82Z"/><path class="cls-2" d="M222.86,67.47a136.13,136.13,0,0,1,24.71,12.21"/><path class="cls-2" d="M217.42,82.08a119.78,119.78,0,0,1,21.9,10.8"/><path class="cls-1" d="M219.66,76.06a4.39,4.39,0,0,1,.46,3.23A2,2,0,0,1,218,80.63"/><path class="cls-1" d="M242.71,87.48A4.15,4.15,0,0,0,240,89a2.05,2.05,0,0,0,.17,2.43"/><path class="cls-1" d="M245.7,82.72a6.54,6.54,0,0,1,2.41,3.93,8.21,8.21,0,0,1,.2,1.67c0,.43,0,.69,0,.69s1-.63,1.43-.33.13,1.57.13,1.57a23.73,23.73,0,0,1,3.3-1.23c1.8-.54,3.83-.78,4.78,0s1.15,2.75,1.11,4.54a23,23,0,0,1-.39,3.41s1.25-.7,1.59-.35-.13,1.69-.13,1.69a9.23,9.23,0,0,1,2.33-.45,6.32,6.32,0,0,1,4.47,1.3"/><path class="cls-1" d="M243.67,86c1.09.88,1.34,2.28,1.59,3.62s.47,2.66,1.54,3.43c2.26,1.62,5.47-1.31,7.64.45s.17,5.37,2.32,7.27c1,.84,2.39.65,3.84.48s2.84-.26,3.77.62"/><path class="cls-1" d="M256.78,92.8a2.12,2.12,0,0,1-2.34.6,2.19,2.19,0,0,1,.1-2.43,1.63,1.63,0,0,1,2.11-.41A1.79,1.79,0,0,1,256.78,92.8Z"/><path class="cls-1" d="M254.68,95.64c-.44.77-2.11,1.66-2.84,1.09s-.27-2.42.38-3a2,2,0,0,1,2.2-.32A2.11,2.11,0,0,1,254.68,95.64Z"/><path class="cls-1" d="M252.73,94.06c.51-.67,1.26-1,1.68-.63s.33,1.14-.19,1.8-1.28.94-1.69.63S252.21,94.73,252.73,94.06Z"/><path class="cls-1" d="M255.82,92.92a1,1,0,0,0,.05-1.38,1,1,0,0,0-1.32.38,1,1,0,0,0-.05,1.39A1,1,0,0,0,255.82,92.92Z"/><path class="cls-2" d="M247.62,79.66a138.17,138.17,0,0,1,21.75,16.92"/><path class="cls-2" d="M239.35,92.87a121.73,121.73,0,0,1,19.29,15"/><path class="cls-1" d="M242.76,87.43a4.4,4.4,0,0,1-.19,3.25,2,2,0,0,1-2.39.88"/><path class="cls-1" d="M263,103.25a4.19,4.19,0,0,0-2.94,1,2,2,0,0,0-.31,2.4"/><path class="cls-1" d="M266.92,99.19a6.22,6.22,0,0,1,1.58,4.33,9,9,0,0,1-.3,2.35s1.13-.42,1.48,0-.19,1.55-.19,1.55a24.88,24.88,0,0,1,3.49-.55c1.83-.13,3.88,0,4.67,1s.61,2.89.16,4.67a23.51,23.51,0,0,1-1.05,3.27s1.36-.44,1.63,0-.45,1.62-.45,1.62a8.46,8.46,0,0,1,2.37,0,6.61,6.61,0,0,1,4.11,2.18"/><path class="cls-1" d="M264.28,102c.9,1.07.88,2.48.86,3.84s-.1,2.74.81,3.69c1.93,2,5.57-.14,7.4,2s-1,5.34.81,7.59c1.59,2,5.74.5,7.24,2.59"/><path class="cls-1" d="M275.78,111.26a1.51,1.51,0,1,1-1.85-2.22,1.66,1.66,0,0,1,2.16,0A1.76,1.76,0,0,1,275.78,111.26Z"/><path class="cls-1" d="M273.15,113.63c-.58.66-2.41,1.2-3,.5s.21-2.41,1-2.87a2,2,0,0,1,2.23.12A2.13,2.13,0,0,1,273.15,113.63Z"/><path class="cls-1" d="M271.54,111.7c.63-.55,1.43-.68,1.78-.28s.1,1.17-.55,1.72-1.44.67-1.78.28S270.9,112.26,271.54,111.7Z"/><path class="cls-1" d="M274.81,111.2a.85.85,0,1,0-1.06-1.23.86.86,0,1,0,1.06,1.23Z"/><path class="cls-2" d="M269.42,96.58a137.58,137.58,0,0,1,17.93,20.92"/><path class="cls-2" d="M258.67,107.86a121.7,121.7,0,0,1,15.91,18.54"/><path class="cls-1" d="M263.1,103.21a4.33,4.33,0,0,1-.83,3.13,2.08,2.08,0,0,1-2.53.4"/><path class="cls-1" d="M279.81,122.76a4.25,4.25,0,0,0-3.09.41c-.78.56-1.13,1.78-.77,2.28"/><path class="cls-1" d="M284.43,119.56a6.12,6.12,0,0,1,.66,4.57,9.13,9.13,0,0,1-.76,2.24s1.2-.19,1.47.25-.49,1.48-.49,1.48.42,0,1.08,0a21.75,21.75,0,0,1,2.42.18c1.82.25,3.81.8,4.41,1.88s0,3-.8,4.62a23.56,23.56,0,0,1-1.68,3s1.43-.17,1.62.29-.76,1.49-.76,1.49a8.9,8.9,0,0,1,2.28.52A6.77,6.77,0,0,1,297.5,143"/><path class="cls-1" d="M281.29,121.75a3.52,3.52,0,0,1,.41,1.92,12,12,0,0,1-.37,2c-.32,1.35-.63,2.65.08,3.76s2.1,1.42,3.46,1.68,2.71.53,3.4,1.73.16,2.5-.35,3.77-1,2.54-.38,3.83c1.12,2.27,5.5,1.65,6.57,4"/><path class="cls-1" d="M290.69,133.16a2.18,2.18,0,0,1-2.4-.35,2.14,2.14,0,0,1,1-2.19,1.69,1.69,0,0,1,2.13.44A1.74,1.74,0,0,1,290.69,133.16Z"/><path class="cls-1" d="M287.64,135c-.7.54-2.58.69-3.05-.11s.67-2.31,1.51-2.61a1.56,1.56,0,1,1,1.54,2.72Z"/><path class="cls-1" d="M286.44,132.75c.73-.42,1.54-.38,1.81.08s-.13,1.16-.87,1.56-1.55.37-1.81-.07S285.7,133.17,286.44,132.75Z"/><path class="cls-1" d="M289.76,132.9a1,1,0,0,0,.58-1.24,1,1,0,0,0-1.39-.16c-.53.3-.79.86-.57,1.24A1,1,0,0,0,289.76,132.9Z"/><path class="cls-2" d="M287.4,117.5a135.7,135.7,0,0,1,13.37,24.1"/><path class="cls-2" d="M274.61,126.4a121.36,121.36,0,0,1,11.86,21.35"/><path class="cls-1" d="M279.88,122.73a4.3,4.3,0,0,1-1.42,2.9,2.12,2.12,0,0,1-2.58-.11"/><path class="cls-1" d="M292.33,145.24a4.26,4.26,0,0,0-3.12-.22c-.88.39-1.46,1.51-1.21,2.07"/><path class="cls-1" d="M297.5,143a6.35,6.35,0,0,1-.29,4.61,8.94,8.94,0,0,1-1.18,2s1.21.06,1.39.53-.79,1.36-.79,1.36a23.82,23.82,0,0,1,3.38.89c1.74.6,3.59,1.55,4,2.71s-.67,2.94-1.74,4.38a23.62,23.62,0,0,1-2.23,2.58s1.44.12,1.53.61-1.09,1.31-1.09,1.31a8.91,8.91,0,0,1,2.14,1,6.8,6.8,0,0,1,3,3.61"/><path class="cls-1" d="M294,144.55c.81,2.69-2.41,5.14-1.43,7.57.92,2.62,5.12,2.08,6,4.73s-3,4.53-2.25,7.29c.57,2.47,5.05,2.74,5.62,5.25"/><path class="cls-1" d="M300.85,157.64a2.12,2.12,0,0,1-2.25-.85c-.15-.46.5-1.62,1.44-1.93a1.69,1.69,0,0,1,2,.86A1.81,1.81,0,0,1,300.85,157.64Z"/><path class="cls-1" d="M297.51,158.77c-.82.39-2.66.15-2.94-.73s1.11-2.12,2-2.25a2,2,0,0,1,2,1A2.15,2.15,0,0,1,297.51,158.77Z"/><path class="cls-1" d="M296.8,156.36c.8-.26,1.59-.06,1.76.44s-.39,1.12-1.19,1.37-1.57,0-1.73-.45S296,156.62,296.8,156.36Z"/><path class="cls-1" d="M300,157.19c.58-.18,1-.68.83-1.11a1,1,0,0,0-1.32-.43c-.59.19-1,.68-.81,1.1A1,1,0,0,0,300,157.19Z"/><path class="cls-2" d="M300.83,141.62A135.45,135.45,0,0,1,309,167.94"/><path class="cls-2" d="M286.5,147.76a118.84,118.84,0,0,1,7.29,23.3"/><path class="cls-1" d="M292.41,145.23a4.34,4.34,0,0,1-2,2.55,2.08,2.08,0,0,1-2.47-.63"/><path class="cls-1" d="M300,169.79a4.31,4.31,0,0,0-3-.85c-.94.21-1.73,1.19-1.59,1.78"/><path class="cls-1" d="M305.55,168.68a6.58,6.58,0,0,1-1.24,4.46,8.69,8.69,0,0,1-1.56,1.76s1.19.3,1.26.8-1.07,1.17-1.07,1.17a24.37,24.37,0,0,1,3.13,1.55c1.59,1,3.23,2.24,3.34,3.47s-1.25,2.73-2.59,3.93a23.79,23.79,0,0,1-2.7,2.07s1.39.42,1.37.91-1.33,1.07-1.33,1.07a8.7,8.7,0,0,1,1.9,1.38,6.76,6.76,0,0,1,2.19,4.14"/><path class="cls-1" d="M301.8,169.45c.19,2.81-3.39,4.54-2.95,7.12.34,2.76,4.61,3.08,4.94,5.85s-3.89,3.83-3.68,6.69c.06,2.54,4.4,3.7,4.45,6.28"/><path class="cls-1" d="M305.86,183.66a2.09,2.09,0,0,1-2-1.28c-.05-.49.81-1.49,1.8-1.6a1.67,1.67,0,0,1,1.79,1.24A1.84,1.84,0,0,1,305.86,183.66Z"/><path class="cls-1" d="M302.35,184.09c-.87.21-2.65-.39-2.72-1.31s1.51-1.85,2.41-1.8a2,2,0,0,1,1.79,1.38A2.18,2.18,0,0,1,302.35,184.09Z"/><path class="cls-1" d="M302.15,181.59c.84-.09,1.59.26,1.64.79s-.61,1-1.46,1.09-1.55-.27-1.59-.79S301.31,181.68,302.15,181.59Z"/><path class="cls-1" d="M305.12,183.05c.61-.06,1.08-.47,1.05-.92s-.6-.76-1.21-.69-1.06.47-1,.91S304.5,183.1,305.12,183.05Z"/><path class="cls-2" d="M309.09,168a137.31,137.31,0,0,1,2.72,27.42"/><path class="cls-2" d="M293.82,171.07a122.48,122.48,0,0,1,2.43,24.32"/><path class="cls-1" d="M300.12,169.79a4.5,4.5,0,0,1-2.51,2.1,2,2,0,0,1-2.27-1.12"/><path class="cls-1" d="M302.62,195.39a4.32,4.32,0,0,0-2.79-1.43c-1,0-1.93.82-1.91,1.43"/></g><g id="Text_copy_3" data-name="Text copy 3"><path class="cls-3" d="M35.46,76.36c1.83-1.84,2.76-2.73,4.64-4.49,1.72,1.16,2.58,1.75,4.29,2.93A215.44,215.44,0,0,1,73,88.61a240.42,240.42,0,0,1-8-30.33c-1.88-1.22-2.83-1.82-4.75-3,2.07-1.48,3.11-2.2,5.21-3.61,1.45,1.47,2.17,2.21,3.6,3.7a233.88,233.88,0,0,1,25,18.86,231.28,231.28,0,0,1-2.81-31.52c-.48-2-.71-3-1.16-5.08,2-.93,2.95-1.39,4.92-2.27a290,290,0,0,0,2.34,41.13c-1.36.76-2,1.15-3.39,2A230.46,230.46,0,0,0,69,60.05a236.56,236.56,0,0,0,7.74,30.22c-1.3,1-1.95,1.54-3.23,2.6C61.25,86.17,48.56,81.05,35.46,76.36Z"/><path class="cls-3" d="M113.77,63,103.42,37.33c-1.1-1.75-1.65-2.62-2.77-4.36,2.35-.95,3.53-1.41,5.9-2.29.35,2,.54,3,.91,5.08l9.77,25.93c1,1.79,1.51,2.69,2.5,4.48-1.91.71-2.87,1.09-4.77,1.86C114.48,66,114.24,65,113.77,63Z"/><path class="cls-3" d="M126.8,62c-.81-1.54-1.21-2.31-2-3.85,2.74.42,4.09.66,6.76,1.19a40.07,40.07,0,0,0,9.59-.9c8.14-1.77,11.82-5.05,11.2-9.57s-4.44-6.53-15.3-6.64c-12.22-.12-17.27-1.38-19-6.71s3.68-11.22,15.23-13.72a48.86,48.86,0,0,1,17.29-.53c.55,1.65.82,2.48,1.36,4.14-3-.86-4.44-1.26-7.46-2a37.38,37.38,0,0,0-10.44.74c-8.56,1.84-12.89,6-11.76,9.91S127,39,138,39.17c12.52.18,17.46,3,18.15,9,.71,6.17-4.36,10.55-14.39,12.64A64.62,64.62,0,0,1,126.8,62Z"/><path class="cls-3" d="M165.37,51.42l-1.7-27.66c-.49-2-.74-3-1.24-5a168.26,168.26,0,0,1,18.24-.37c12.65.33,26,6.46,23.53,21.1-2.11,12.64-12.62,17.19-24.5,16.74a134.56,134.56,0,0,0-14.76.3C165.1,54.48,165.19,53.46,165.37,51.42Zm14.52,2.31c9.93.91,18.71-4.85,20.16-14.86,1.66-11.45-8.67-18.33-19.21-18-5.2-.14-7.8-.13-13,.08l1.29,32.81C173.43,53.63,175.59,53.61,179.89,53.73Z"/><path class="cls-3" d="M211.13,40.74c2.76-12.77,17.13-17.22,28.6-12.8s21,15.19,15.05,27.66c-5.05,10.51-17.43,13.62-27.89,10.07S208.69,52.06,211.13,40.74Zm39.73,13c4.84-10.16-2.31-20.08-12-23.36s-21.25.32-23.6,11.27c-2.27,10.57,3.07,18.44,12.34,21.58S246.2,63.5,250.86,53.73Z"/><path class="cls-3" d="M291.93,99c-1.21,1.65-1.82,2.48-3,4.12-1.45-1.44-2.18-2.15-3.66-3.54,1.6-1.28,2.41-1.91,4-3.18l20.66-21.81a202,202,0,0,0-37.06,14.48c-1-.75-1.47-1.12-2.46-1.85a223.53,223.53,0,0,0,4.05-39.47l-15.25,26c-.78,1.9-1.17,2.85-2,4.74-1.59-1-2.39-1.41-4-2.3,1.25-1.63,1.88-2.44,3.15-4,5.41-9.68,8.12-14.51,13.54-24.18.67-1.95,1-2.93,1.65-4.89,2.93,1.63,4.39,2.47,7.27,4.23-.29,2.13-.45,3.18-.78,5.29-.74,11-1.94,21.5-3.73,32.42a307.4,307.4,0,0,1,30.26-12.41c1.93-.9,2.9-1.35,4.85-2.21,2.52,2.31,3.77,3.5,6.21,6-1.69,1.17-2.54,1.77-4.22,3Z"/></g></svg>