<svg id="Tlaxcalan_Wisdom" data-name="Tlaxcalan Wisdom" xmlns="http://www.w3.org/2000/svg" xmlns:xlink="http://www.w3.org/1999/xlink" viewBox="0 0 350 350"><defs><style>.cls-1{fill:#62370f;}</style></defs><image id="Illustration" width="2100" height="2100" transform="translate(30 56) scale(0.14)" xlink:href="../../../../../../../../Users/kathleenfenton/Downloads/Tlaxcalan%20Wisdom.png"/><g id="Border"><polygon class="cls-1" points="175.15 66.43 171.03 63.31 175.15 60.25 179.21 63.3 175.15 66.43"/><polygon class="cls-1" points="175.15 76.08 171.03 72.96 175.15 69.9 179.21 72.95 175.15 76.08"/><polygon class="cls-1" points="181.24 71.33 177.12 68.21 181.24 65.15 185.3 68.2 181.24 71.33"/><polygon class="cls-1" points="169.22 71.33 165.1 68.21 169.22 65.15 173.28 68.2 169.22 71.33"/><circle class="cls-1" cx="175.19" cy="68.13" r="1.15"/><polygon class="cls-1" points="152.48 68.43 147.88 66.07 151.41 62.34 155.93 64.64 152.48 68.43"/><polygon class="cls-1" points="154.15 77.93 149.56 75.57 153.08 71.85 157.61 74.14 154.15 77.93"/><polygon class="cls-1" points="159.33 72.2 154.73 69.84 158.25 66.12 162.78 68.41 159.33 72.2"/><polygon class="cls-1" points="147.49 74.29 142.89 71.93 146.42 68.2 150.94 70.5 147.49 74.29"/><circle class="cls-1" cx="152.81" cy="70.1" r="1.15"/><polygon class="cls-1" points="130.5 74.33 125.56 72.81 128.38 68.53 133.24 70.01 130.5 74.33"/><polygon class="cls-1" points="133.8 83.4 128.86 81.88 131.69 77.6 136.54 79.07 133.8 83.4"/><polygon class="cls-1" points="137.9 76.86 132.96 75.34 135.78 71.06 140.64 72.53 137.9 76.86"/><polygon class="cls-1" points="126.6 80.97 121.66 79.45 124.49 75.17 129.34 76.64 126.6 80.97"/><circle class="cls-1" cx="131.11" cy="75.92" r="1.15"/><polygon class="cls-1" points="109.88 83.97 104.75 83.33 106.79 78.62 111.83 79.23 109.88 83.97"/><polygon class="cls-1" points="114.7 92.33 109.58 91.69 111.61 86.98 116.65 87.59 114.7 92.33"/><polygon class="cls-1" points="117.6 85.17 112.48 84.53 114.52 79.82 119.55 80.43 117.6 85.17"/><polygon class="cls-1" points="107.19 91.18 102.06 90.54 104.1 85.83 109.14 86.44 107.19 91.18"/><circle class="cls-1" cx="110.76" cy="85.43" r="1.15"/><polygon class="cls-1" points="91.24 97.04 86.08 97.3 87.27 92.31 92.34 92.03 91.24 97.04"/><polygon class="cls-1" points="97.44 104.43 92.28 104.69 93.47 99.7 98.54 99.42 97.44 104.43"/><polygon class="cls-1" points="99.06 96.88 93.9 97.14 95.09 92.15 100.16 91.88 99.06 96.88"/><polygon class="cls-1" points="89.85 104.61 84.69 104.87 85.88 99.88 90.95 99.6 89.85 104.61"/><circle class="cls-1" cx="92.37" cy="98.32" r="1.15"/><polygon class="cls-1" points="75.16 113.14 70.12 114.3 70.43 109.17 75.37 108.03 75.16 113.14"/><polygon class="cls-1" points="82.55 119.35 77.52 120.5 77.82 115.38 82.76 114.23 82.55 119.35"/><polygon class="cls-1" points="82.83 111.63 77.8 112.78 78.1 107.66 83.04 106.51 82.83 111.63"/><polygon class="cls-1" points="75.11 120.84 70.07 121.99 70.37 116.87 75.32 115.72 75.11 120.84"/><circle class="cls-1" cx="76.49" cy="114.21" r="1.15"/><polygon class="cls-1" points="62.12 131.8 57.36 133.81 56.77 128.71 61.44 126.72 62.12 131.8"/><polygon class="cls-1" points="70.48 136.62 65.72 138.63 65.13 133.54 69.8 131.54 70.48 136.62"/><polygon class="cls-1" points="69.41 128.98 64.65 130.99 64.06 125.89 68.73 123.9 69.41 128.98"/><polygon class="cls-1" points="63.4 139.39 58.64 141.4 58.05 136.3 62.72 134.31 63.4 139.39"/><circle class="cls-1" cx="63.61" cy="132.62" r="1.15"/><polygon class="cls-1" points="52.52 152.44 48.18 155.24 46.71 150.32 50.97 147.55 52.52 152.44"/><polygon class="cls-1" points="61.58 155.74 57.24 158.54 55.78 153.62 60.03 150.85 61.58 155.74"/><polygon class="cls-1" points="59.21 148.39 54.87 151.19 53.4 146.28 57.66 143.5 59.21 148.39"/><polygon class="cls-1" points="55.1 159.69 50.76 162.49 49.29 157.57 53.54 154.8 55.1 159.69"/><circle class="cls-1" cx="54.13" cy="152.98" r="1.15"/><polygon class="cls-1" points="46.64 174.42 42.86 177.94 40.56 173.35 44.27 169.88 46.64 174.42"/><polygon class="cls-1" points="56.15 176.1 52.36 179.62 50.06 175.03 53.77 171.56 56.15 176.1"/><polygon class="cls-1" points="52.53 169.28 48.74 172.79 46.45 168.21 50.15 164.74 52.53 169.28"/><polygon class="cls-1" points="50.44 181.12 46.66 184.63 44.36 180.04 48.06 176.58 50.44 181.12"/><circle class="cls-1" cx="48.33" cy="174.68" r="1.15"/><polygon class="cls-1" points="44.68 197.1 41.56 201.22 38.5 197.1 41.55 193.04 44.68 197.1"/><polygon class="cls-1" points="54.33 197.1 51.21 201.22 48.15 197.1 51.2 193.04 54.33 197.1"/><polygon class="cls-1" points="49.58 191.01 46.46 195.13 43.4 191.01 46.45 186.95 49.58 191.01"/><polygon class="cls-1" points="49.58 203.03 46.46 207.15 43.4 203.03 46.45 198.97 49.58 203.03"/><circle class="cls-1" cx="46.38" cy="197.06" r="1.15"/><polygon class="cls-1" points="46.68 219.77 44.32 224.37 40.59 220.84 42.89 216.32 46.68 219.77"/><polygon class="cls-1" points="56.18 218.1 53.82 222.69 50.1 219.17 52.39 214.64 56.18 218.1"/><polygon class="cls-1" points="50.45 212.92 48.09 217.52 44.37 214 46.66 209.47 50.45 212.92"/><polygon class="cls-1" points="52.54 224.76 50.18 229.36 46.45 225.83 48.75 221.31 52.54 224.76"/><circle class="cls-1" cx="48.35" cy="219.44" r="1.15"/><polygon class="cls-1" points="52.59 241.75 51.06 246.69 46.78 243.87 48.26 239.01 52.59 241.75"/><polygon class="cls-1" points="61.65 238.45 60.13 243.39 55.85 240.56 57.32 235.71 61.65 238.45"/><polygon class="cls-1" points="55.11 234.35 53.59 239.29 49.31 236.47 50.78 231.61 55.11 234.35"/><polygon class="cls-1" points="59.22 245.65 57.7 250.59 53.42 247.76 54.89 242.91 59.22 245.65"/><circle class="cls-1" cx="54.17" cy="241.14" r="1.15"/><polygon class="cls-1" points="62.22 262.37 61.58 267.5 56.87 265.46 57.48 260.42 62.22 262.37"/><polygon class="cls-1" points="70.58 257.55 69.94 262.68 65.23 260.64 65.84 255.6 70.58 257.55"/><polygon class="cls-1" points="63.42 254.65 62.78 259.77 58.07 257.74 58.68 252.7 63.42 254.65"/><polygon class="cls-1" points="69.43 265.06 68.79 270.19 64.08 268.15 64.69 263.11 69.43 265.06"/><circle class="cls-1" cx="63.68" cy="261.49" r="1.15"/><polygon class="cls-1" points="75.29 281.01 75.55 286.17 70.56 284.98 70.28 279.91 75.29 281.01"/><polygon class="cls-1" points="82.68 274.81 82.94 279.96 77.95 278.77 77.67 273.71 82.68 274.81"/><polygon class="cls-1" points="75.13 273.19 75.39 278.35 70.4 277.16 70.13 272.09 75.13 273.19"/><polygon class="cls-1" points="82.86 282.4 83.12 287.56 78.13 286.37 77.85 281.3 82.86 282.4"/><circle class="cls-1" cx="76.57" cy="279.88" r="1.15"/><polygon class="cls-1" points="91.39 297.09 92.55 302.13 87.42 301.82 86.28 296.88 91.39 297.09"/><polygon class="cls-1" points="97.6 289.7 98.75 294.74 93.63 294.43 92.48 289.49 97.6 289.7"/><polygon class="cls-1" points="89.88 289.42 91.03 294.45 85.91 294.15 84.76 289.21 89.88 289.42"/><polygon class="cls-1" points="99.09 297.14 100.24 302.18 95.12 301.88 93.97 296.93 99.09 297.14"/><circle class="cls-1" cx="92.46" cy="295.76" r="1.15"/><polygon class="cls-1" points="110.05 310.13 112.06 314.89 106.96 315.48 104.97 310.81 110.05 310.13"/><polygon class="cls-1" points="114.87 301.77 116.88 306.53 111.79 307.12 109.8 302.45 114.87 301.77"/><polygon class="cls-1" points="107.23 302.84 109.24 307.6 104.14 308.19 102.15 303.52 107.23 302.84"/><polygon class="cls-1" points="117.64 308.85 119.65 313.61 114.55 314.2 112.56 309.53 117.64 308.85"/><circle class="cls-1" cx="110.87" cy="308.64" r="1.15"/><polygon class="cls-1" points="130.69 319.73 133.49 324.07 128.57 325.54 125.8 321.29 130.69 319.73"/><polygon class="cls-1" points="133.99 310.67 136.79 315.01 131.87 316.47 129.1 312.22 133.99 310.67"/><polygon class="cls-1" points="126.64 313.04 129.44 317.38 124.53 318.85 121.75 314.59 126.64 313.04"/><polygon class="cls-1" points="137.94 317.15 140.74 321.49 135.82 322.96 133.05 318.71 137.94 317.15"/><circle class="cls-1" cx="131.23" cy="318.12" r="1.15"/><polygon class="cls-1" points="152.67 325.61 156.19 329.39 151.6 331.69 148.13 327.98 152.67 325.61"/><polygon class="cls-1" points="154.35 316.1 157.87 319.89 153.28 322.19 149.81 318.48 154.35 316.1"/><polygon class="cls-1" points="147.53 319.72 151.04 323.51 146.46 325.8 142.99 322.1 147.53 319.72"/><polygon class="cls-1" points="159.37 321.81 162.88 325.6 158.29 327.89 154.83 324.19 159.37 321.81"/><circle class="cls-1" cx="152.93" cy="323.92" r="1.15"/><polygon class="cls-1" points="175.35 327.57 179.47 330.69 175.35 333.75 171.29 330.7 175.35 327.57"/><polygon class="cls-1" points="175.35 317.92 179.47 321.04 175.35 324.1 171.29 321.05 175.35 317.92"/><polygon class="cls-1" points="169.26 322.67 173.38 325.79 169.26 328.85 165.2 325.8 169.26 322.67"/><polygon class="cls-1" points="181.28 322.67 185.4 325.79 181.28 328.85 177.22 325.8 181.28 322.67"/><circle class="cls-1" cx="175.31" cy="325.87" r="1.15"/><polygon class="cls-1" points="198.02 325.57 202.62 327.93 199.09 331.65 194.57 329.36 198.02 325.57"/><polygon class="cls-1" points="196.35 316.07 200.94 318.43 197.42 322.15 192.89 319.86 196.35 316.07"/><polygon class="cls-1" points="191.17 321.8 195.77 324.16 192.25 327.88 187.72 325.59 191.17 321.8"/><polygon class="cls-1" points="203.01 319.71 207.61 322.07 204.08 325.8 199.56 323.5 203.01 319.71"/><circle class="cls-1" cx="197.69" cy="323.9" r="1.15"/><polygon class="cls-1" points="220 319.67 224.94 321.19 222.12 325.47 217.26 323.99 220 319.67"/><polygon class="cls-1" points="216.7 310.6 221.64 312.12 218.81 316.4 213.96 314.93 216.7 310.6"/><polygon class="cls-1" points="212.6 317.14 217.54 318.66 214.72 322.94 209.86 321.47 212.6 317.14"/><polygon class="cls-1" points="223.9 313.03 228.84 314.55 226.01 318.83 221.16 317.36 223.9 313.03"/><circle class="cls-1" cx="219.39" cy="318.08" r="1.15"/><polygon class="cls-1" points="240.62 310.03 245.75 310.67 243.71 315.38 238.67 314.77 240.62 310.03"/><polygon class="cls-1" points="235.8 301.67 240.93 302.31 238.89 307.02 233.85 306.41 235.8 301.67"/><polygon class="cls-1" points="232.9 308.83 238.02 309.47 235.99 314.18 230.95 313.57 232.9 308.83"/><polygon class="cls-1" points="243.31 302.82 248.44 303.46 246.4 308.17 241.36 307.56 243.31 302.82"/><circle class="cls-1" cx="239.74" cy="308.57" r="1.15"/><polygon class="cls-1" points="259.26 296.96 264.42 296.7 263.23 301.69 258.16 301.97 259.26 296.96"/><polygon class="cls-1" points="253.06 289.57 258.21 289.31 257.02 294.3 251.96 294.57 253.06 289.57"/><polygon class="cls-1" points="251.44 297.12 256.6 296.86 255.41 301.85 250.34 302.13 251.44 297.12"/><polygon class="cls-1" points="260.65 289.39 265.81 289.13 264.62 294.12 259.55 294.4 260.65 289.39"/><circle class="cls-1" cx="258.13" cy="295.68" r="1.15"/><polygon class="cls-1" points="275.34 280.86 280.38 279.7 280.07 284.82 275.13 285.98 275.34 280.86"/><polygon class="cls-1" points="267.95 274.65 272.99 273.5 272.68 278.62 267.74 279.77 267.95 274.65"/><polygon class="cls-1" points="267.67 282.37 272.7 281.22 272.4 286.34 267.46 287.49 267.67 282.37"/><polygon class="cls-1" points="275.39 273.16 280.43 272.01 280.13 277.13 275.18 278.28 275.39 273.16"/><circle class="cls-1" cx="274.01" cy="279.79" r="1.15"/><polygon class="cls-1" points="288.38 262.2 293.14 260.19 293.73 265.29 289.06 267.28 288.38 262.2"/><polygon class="cls-1" points="280.02 257.38 284.78 255.37 285.37 260.46 280.7 262.45 280.02 257.38"/><polygon class="cls-1" points="281.09 265.02 285.85 263.01 286.44 268.11 281.77 270.1 281.09 265.02"/><polygon class="cls-1" points="287.1 254.61 291.86 252.6 292.45 257.7 287.78 259.69 287.1 254.61"/><circle class="cls-1" cx="286.89" cy="261.38" r="1.15"/><polygon class="cls-1" points="297.98 241.56 302.32 238.76 303.79 243.68 299.54 246.45 297.98 241.56"/><polygon class="cls-1" points="288.92 238.26 293.26 235.46 294.72 240.38 290.47 243.15 288.92 238.26"/><polygon class="cls-1" points="291.29 245.61 295.63 242.81 297.1 247.72 292.84 250.5 291.29 245.61"/><polygon class="cls-1" points="295.4 234.31 299.74 231.51 301.21 236.43 296.96 239.2 295.4 234.31"/><circle class="cls-1" cx="296.37" cy="241.02" r="1.15"/><polygon class="cls-1" points="303.86 219.58 307.64 216.06 309.94 220.65 306.23 224.12 303.86 219.58"/><polygon class="cls-1" points="294.35 217.9 298.14 214.38 300.44 218.97 296.73 222.44 294.35 217.9"/><polygon class="cls-1" points="297.97 224.72 301.76 221.21 304.05 225.79 300.35 229.26 297.97 224.72"/><polygon class="cls-1" points="300.06 212.88 303.85 209.37 306.14 213.96 302.44 217.42 300.06 212.88"/><circle class="cls-1" cx="302.17" cy="219.32" r="1.15"/><polygon class="cls-1" points="305.82 196.9 308.94 192.78 312 196.9 308.95 200.96 305.82 196.9"/><polygon class="cls-1" points="296.17 196.9 299.29 192.78 302.35 196.9 299.3 200.96 296.17 196.9"/><polygon class="cls-1" points="300.92 202.99 304.04 198.87 307.1 202.99 304.05 207.05 300.92 202.99"/><polygon class="cls-1" points="300.92 190.97 304.04 186.85 307.1 190.97 304.05 195.03 300.92 190.97"/><circle class="cls-1" cx="304.12" cy="196.94" r="1.15"/><polygon class="cls-1" points="303.82 174.23 306.18 169.63 309.9 173.16 307.61 177.68 303.82 174.23"/><polygon class="cls-1" points="294.32 175.9 296.68 171.31 300.4 174.83 298.11 179.36 294.32 175.9"/><polygon class="cls-1" points="300.05 181.08 302.41 176.48 306.13 180 303.84 184.53 300.05 181.08"/><polygon class="cls-1" points="297.96 169.24 300.32 164.64 304.05 168.17 301.75 172.69 297.96 169.24"/><circle class="cls-1" cx="302.15" cy="174.56" r="1.15"/><polygon class="cls-1" points="297.92 152.25 299.44 147.31 303.72 150.13 302.24 154.99 297.92 152.25"/><polygon class="cls-1" points="288.85 155.55 290.37 150.61 294.65 153.44 293.18 158.29 288.85 155.55"/><polygon class="cls-1" points="295.39 159.65 296.91 154.71 301.19 157.53 299.72 162.39 295.39 159.65"/><polygon class="cls-1" points="291.28 148.35 292.8 143.41 297.08 146.24 295.61 151.09 291.28 148.35"/><circle class="cls-1" cx="296.33" cy="152.86" r="1.15"/><polygon class="cls-1" points="288.28 131.63 288.92 126.5 293.63 128.54 293.02 133.58 288.28 131.63"/><polygon class="cls-1" points="279.92 136.45 280.56 131.32 285.27 133.36 284.66 138.4 279.92 136.45"/><polygon class="cls-1" points="287.08 139.35 287.72 134.23 292.43 136.26 291.82 141.3 287.08 139.35"/><polygon class="cls-1" points="281.07 128.94 281.71 123.81 286.42 125.85 285.81 130.89 281.07 128.94"/><circle class="cls-1" cx="286.82" cy="132.51" r="1.15"/><polygon class="cls-1" points="275.21 112.99 274.95 107.83 279.94 109.02 280.22 114.09 275.21 112.99"/><polygon class="cls-1" points="267.82 119.19 267.56 114.03 272.55 115.22 272.82 120.29 267.82 119.19"/><polygon class="cls-1" points="275.37 120.81 275.11 115.65 280.1 116.84 280.38 121.91 275.37 120.81"/><polygon class="cls-1" points="267.64 111.6 267.38 106.44 272.37 107.63 272.65 112.7 267.64 111.6"/><circle class="cls-1" cx="273.93" cy="114.12" r="1.15"/><polygon class="cls-1" points="259.11 96.91 257.95 91.87 263.07 92.18 264.23 97.12 259.11 96.91"/><polygon class="cls-1" points="252.9 104.3 251.75 99.27 256.87 99.57 258.02 104.51 252.9 104.3"/><polygon class="cls-1" points="260.62 104.58 259.47 99.55 264.59 99.85 265.74 104.79 260.62 104.58"/><polygon class="cls-1" points="251.41 96.86 250.26 91.82 255.38 92.12 256.53 97.07 251.41 96.86"/><circle class="cls-1" cx="258.04" cy="98.24" r="1.15"/><polygon class="cls-1" points="240.45 83.87 238.44 79.11 243.54 78.52 245.53 83.19 240.45 83.87"/><polygon class="cls-1" points="235.63 92.23 233.62 87.47 238.71 86.88 240.71 91.55 235.63 92.23"/><polygon class="cls-1" points="243.27 91.16 241.26 86.4 246.36 85.81 248.35 90.48 243.27 91.16"/><polygon class="cls-1" points="232.86 85.15 230.85 80.39 235.95 79.8 237.94 84.47 232.86 85.15"/><circle class="cls-1" cx="239.63" cy="85.36" r="1.15"/><polygon class="cls-1" points="219.81 74.27 217.01 69.93 221.93 68.46 224.7 72.72 219.81 74.27"/><polygon class="cls-1" points="216.51 83.33 213.71 78.99 218.63 77.53 221.4 81.78 216.51 83.33"/><polygon class="cls-1" points="223.86 80.96 221.06 76.62 225.97 75.15 228.75 79.41 223.86 80.96"/><polygon class="cls-1" points="212.56 76.85 209.76 72.51 214.68 71.04 217.45 75.29 212.56 76.85"/><circle class="cls-1" cx="219.27" cy="75.88" r="1.15"/><polygon class="cls-1" points="197.83 68.39 194.31 64.61 198.9 62.31 202.37 66.02 197.83 68.39"/><polygon class="cls-1" points="196.15 77.9 192.63 74.11 197.22 71.81 200.69 75.52 196.15 77.9"/><polygon class="cls-1" points="202.97 74.28 199.46 70.49 204.04 68.2 207.51 71.9 202.97 74.28"/><polygon class="cls-1" points="191.13 72.19 187.62 68.41 192.21 66.11 195.67 69.81 191.13 72.19"/><circle class="cls-1" cx="197.57" cy="70.08" r="1.15"/></g><g id="Text"><path class="cls-1" d="M35.46,76.36c1.83-1.84,2.76-2.73,4.64-4.49,1.72,1.16,2.58,1.75,4.29,2.93A215.44,215.44,0,0,1,73,88.61a240.42,240.42,0,0,1-8-30.33c-1.88-1.22-2.83-1.82-4.75-3,2.07-1.48,3.11-2.2,5.21-3.61,1.45,1.47,2.17,2.21,3.6,3.7a233.88,233.88,0,0,1,25,18.86,231.28,231.28,0,0,1-2.81-31.52c-.48-2-.71-3-1.16-5.08,2-.93,2.95-1.39,4.92-2.27a290,290,0,0,0,2.34,41.13c-1.36.76-2,1.15-3.39,2A230.46,230.46,0,0,0,69,60.05a236.56,236.56,0,0,0,7.74,30.22c-1.3,1-1.95,1.54-3.23,2.6C61.25,86.17,48.56,81.05,35.46,76.36Z"/><path class="cls-1" d="M113.77,63,103.42,37.33c-1.1-1.75-1.65-2.62-2.77-4.36,2.35-.95,3.53-1.41,5.9-2.29.35,2,.54,3,.91,5.08l9.77,25.93c1,1.79,1.51,2.69,2.5,4.48-1.91.71-2.87,1.09-4.77,1.86C114.48,66,114.24,65,113.77,63Z"/><path class="cls-1" d="M126.8,62c-.81-1.54-1.21-2.31-2-3.85,2.74.42,4.09.66,6.76,1.19a40.07,40.07,0,0,0,9.59-.9c8.14-1.77,11.82-5.05,11.2-9.57s-4.44-6.53-15.3-6.64c-12.22-.12-17.27-1.38-19-6.71s3.68-11.22,15.23-13.72a48.86,48.86,0,0,1,17.29-.53c.55,1.65.82,2.48,1.36,4.14-3-.86-4.44-1.26-7.46-2a37.38,37.38,0,0,0-10.44.74c-8.56,1.84-12.89,6-11.76,9.91S127,39,138,39.17c12.52.18,17.46,3,18.15,9,.71,6.17-4.36,10.55-14.39,12.64A64.62,64.62,0,0,1,126.8,62Z"/><path class="cls-1" d="M165.37,51.42l-1.7-27.66c-.49-2-.74-3-1.24-5a168.26,168.26,0,0,1,18.24-.37c12.65.33,26,6.46,23.53,21.1-2.11,12.64-12.62,17.19-24.5,16.74a134.56,134.56,0,0,0-14.76.3C165.1,54.48,165.19,53.46,165.37,51.42Zm14.52,2.31c9.93.91,18.71-4.85,20.16-14.86,1.66-11.45-8.67-18.33-19.21-18-5.2-.14-7.8-.13-13,.08l1.29,32.81C173.43,53.63,175.59,53.61,179.89,53.73Z"/><path class="cls-1" d="M211.13,40.74c2.76-12.77,17.13-17.22,28.6-12.8s21,15.19,15.05,27.66c-5.05,10.51-17.43,13.62-27.89,10.07S208.69,52.06,211.13,40.74Zm39.73,13c4.84-10.16-2.31-20.08-12-23.36s-21.25.32-23.6,11.27c-2.27,10.57,3.07,18.44,12.34,21.58S246.2,63.5,250.86,53.73Z"/><path class="cls-1" d="M291.93,99c-1.21,1.65-1.82,2.48-3,4.12-1.45-1.44-2.18-2.15-3.66-3.54,1.6-1.28,2.41-1.91,4-3.18l20.66-21.81a202,202,0,0,0-37.06,14.48c-1-.75-1.47-1.12-2.46-1.85a223.53,223.53,0,0,0,4.05-39.47l-15.25,26c-.78,1.9-1.17,2.85-2,4.74-1.59-1-2.39-1.41-4-2.3,1.25-1.63,1.88-2.44,3.15-4,5.41-9.68,8.12-14.51,13.54-24.18.67-1.95,1-2.93,1.65-4.89,2.93,1.63,4.39,2.47,7.27,4.23-.29,2.13-.45,3.18-.78,5.29-.74,11-1.94,21.5-3.73,32.42a307.4,307.4,0,0,1,30.26-12.41c1.93-.9,2.9-1.35,4.85-2.21,2.52,2.31,3.77,3.5,6.21,6-1.69,1.17-2.54,1.77-4.22,3Z"/></g></svg>